<svg xmlns="http://www.w3.org/2000/svg" version="1.1" id="favicon" x="0" y="0" viewBox="0 0 100 100" xml:space="preserve"><path d="M75.7 77.5H24.3c-4.1-18.3-4.1-36.6 0-55h51.5c4.6 18.3 4.6 36.7-.1 55z" fill="#f7b26a" stroke="#333" stroke-width="3.5" stroke-miterlimit="10"/><path d="M74.6 13.3l-5.9 3-5-3-6.8 3-6.8-3-6.4 3-5.2-3-7.9 3-5.2-3c-1.9 0-3.3 1.8-2.7 3.7l1.7 5.5h51.5l1.7-5.5c.3-1.8-1.1-3.7-3-3.7z" fill="#f7b26a" stroke="#333" stroke-width="3.5" stroke-miterlimit="10"/><path d="M74.6 86.7l-5.9-3-5 3-6.8-3-6.8 3-6.4-3-5.2 3-7.9-3-5.2 3c-1.9 0-3.3-1.8-2.7-3.7l1.7-5.5h51.5l1.7 5.5c.3 1.8-1.1 3.7-3 3.7z" fill="#f7b26a" stroke="#333" stroke-width="3.5" stroke-miterlimit="10"/><path d="M77.1 28.8c-.7-2.5-56.5 12.7-55.8 15.2-.4 9 .1 18.1 1.7 27.2.7 2.5 56.7-12.7 56-15.2.5-9.1-.1-18.2-1.9-27.2z" fill="#fff" stroke="#333" stroke-width="3.5" stroke-miterlimit="10"/><path d="M58.6 48.5c0 4.8-3.9 9.3-8.6 10.1s-8.6-2.4-8.6-7.1 3.9-9.3 8.6-10.1 8.6 2.3 8.6 7.1z" fill="#f4e6c8" stroke="#333" stroke-width="3.5" stroke-miterlimit="10"/></svg>
