<svg width="327" height="202" viewBox="0 0 327 202" fill="none" xmlns="http://www.w3.org/2000/svg">
<path d="M75.1797 118.316H251.82" stroke="#6B6B6B" stroke-width="1.5" stroke-linecap="round"/>
<path d="M204.606 83.3647C204.606 94.3254 199.813 102.376 192.053 107.714C184.261 113.075 173.434 115.726 161.388 115.726C149.342 115.726 138.515 113.075 130.723 107.714C122.963 102.376 118.17 94.3254 118.17 83.3647C118.17 61.4018 137.462 43.498 161.388 43.498C185.314 43.498 204.606 61.4018 204.606 83.3647Z" fill="#FDF0DF" stroke="#C4C4C4" stroke-width="1.5"/>
<ellipse cx="147.18" cy="66.9385" rx="4.032" ry="5.376" fill="#525252"/>
<ellipse cx="175.212" cy="66.9385" rx="4.032" ry="5.376" fill="#525252"/>
<ellipse cx="161.195" cy="79.0339" rx="3.072" ry="2.112" fill="#FEE8B0"/>
<path d="M156.1 89.2129C158.027 87.5816 162.524 85.8644 167.236 89.2129" stroke="#525252" stroke-width="1.5" stroke-linecap="round"/>
<path d="M192.126 36.6713C196.285 37.1969 198.829 39.1246 201.429 41.3791C201.696 41.611 201.965 41.8468 202.236 42.085C204.596 44.1592 207.159 46.411 211.041 47.7848C213.651 48.7085 216.647 49.0713 219.688 49.2469C221.212 49.3349 222.761 49.3763 224.29 49.4147C224.379 49.4169 224.468 49.4192 224.557 49.4214C225.998 49.4574 227.417 49.4929 228.796 49.5639C231.734 49.7151 234.414 50.0252 236.606 50.8069C238.771 51.5786 240.412 52.7918 241.373 54.7373C242.951 58.5392 242.603 64.9491 238.348 69.7619C234.123 74.5408 225.893 77.8953 211.427 75.2302C196.595 72.4976 187.722 62.1597 184.659 52.8069C183.123 48.1153 183.078 43.7669 184.364 40.7774C185.002 39.2949 185.96 38.1583 187.22 37.447C188.48 36.7357 190.102 36.4155 192.126 36.6713Z" fill="#C4C4C4" stroke="#C4C4C4" stroke-width="1.5"/>
<path d="M82.4627 66.8451L82.4629 66.8361V66.8271C82.4629 63.2584 83.5157 60.9643 85.188 59.3862C86.8923 57.778 89.3259 56.83 92.25 56.1495C94.2268 55.6895 96.3529 55.3658 98.5672 55.0288C99.6417 54.8652 100.737 54.6985 101.846 54.5115C105.201 53.9457 108.626 53.2006 111.699 51.7912C114.483 50.514 116.992 48.8301 119.336 47.1286C120.07 46.5958 120.784 46.0645 121.485 45.543C123.044 44.3831 124.537 43.2718 126.04 42.3017C128.207 40.9036 130.311 39.8576 132.496 39.4537C134.66 39.0536 136.95 39.2754 139.512 40.4904C141.239 41.3093 142.311 42.3494 142.911 43.5186C143.512 44.6915 143.678 46.0702 143.453 47.631C143 50.7862 140.978 54.5259 138.144 58.3192C132.502 65.8715 123.935 73.2563 119.592 76.0019C104.073 84.3048 94.769 84.2509 89.4244 81.1878C84.0724 78.1204 82.3432 71.8327 82.4627 66.8451Z" fill="#C4C4C4" stroke="#C4C4C4" stroke-width="1.5"/>
<path d="M127.633 101.041L127.633 101.041C131.644 99.001 141.479 97.3747 153.145 100.694C157.254 102.576 161.479 106.226 160.914 112.012L160.911 112.042L160.911 112.073C160.881 113.983 160.212 116.919 158.122 119.439C156.051 121.935 152.528 124.094 146.647 124.391L146.595 124.394L146.545 124.403C141.746 125.311 136.652 124.778 134.939 124.407L134.861 124.39H134.78C130.35 124.39 127.402 122.978 125.402 121.277C123.386 119.561 122.289 117.514 121.63 116.17C119.76 112.358 120.387 109.057 121.906 106.458C123.448 103.822 125.911 101.916 127.633 101.041Z" fill="#FDF0DF" stroke="#C4C4C4" stroke-width="1.5"/>
<path d="M169.871 101.426L169.871 101.426C173.883 99.3858 183.717 97.7595 195.383 101.079C199.492 102.961 203.717 106.611 203.152 112.396L203.149 112.427L203.149 112.457C203.119 114.368 202.45 117.304 200.36 119.824C198.29 122.32 194.767 124.478 188.885 124.776L188.834 124.779L188.783 124.788C183.985 125.695 178.891 125.162 177.177 124.792L177.099 124.775H177.019C172.588 124.775 169.641 123.363 167.641 121.661C165.625 119.946 164.528 117.899 163.868 116.555C161.998 112.743 162.625 109.441 164.145 106.843C165.686 104.207 168.149 102.301 169.871 101.426Z" fill="#FDF0DF" stroke="#C4C4C4" stroke-width="1.5"/>
<path d="M174.635 56.9551C175.403 57.6591 177.63 59.1823 180.395 59.6431" stroke="#525252" stroke-width="1.5" stroke-linecap="round"/>
<path d="M147.756 56.9551C146.988 57.6591 144.761 59.1823 141.996 59.6431" stroke="#525252" stroke-width="1.5" stroke-linecap="round"/>
<path d="M137.388 7.03489C137.388 8.73151 136.013 10.1069 134.316 10.1069C132.62 10.1069 131.244 8.73151 131.244 7.03489C131.244 5.33827 132.62 3.96289 134.316 3.96289C136.013 3.96289 137.388 5.33827 137.388 7.03489Z" fill="#E0E0E0"/>
<circle cx="161.963" cy="7.03489" r="3.072" fill="#E0E0E0"/>
<circle cx="189.611" cy="7.03489" r="3.072" fill="#E0E0E0"/>
<path d="M102.024 161.758C102.024 162.546 102.004 163.246 101.963 163.856C101.926 164.463 101.833 165.153 101.683 165.928H103.446V166.994H98.4834V172.176H97.1709V166.994H92.2764V165.928H100.37C100.534 165.158 100.637 164.467 100.678 163.856C100.719 163.241 100.739 162.542 100.739 161.758V161.744H93.6436V160.678H102.024V161.758ZM114.917 172.162H113.673V165.777H112.155V171.561H110.925V160.145H112.155V164.711H113.673V159.912H114.917V172.162ZM109.544 168.936H104.786V161.293H109.544V168.936ZM106.017 167.896H108.327V162.318H106.017V167.896ZM131.104 170.631H119.894V169.551H122.573V166.352C122.063 166.069 121.666 165.711 121.384 165.278C121.101 164.845 120.96 164.36 120.96 163.822C120.96 163.189 121.151 162.631 121.534 162.147C121.922 161.664 122.457 161.291 123.141 161.026C123.824 160.757 124.601 160.623 125.472 160.623C126.347 160.623 127.126 160.757 127.81 161.026C128.498 161.291 129.033 161.664 129.416 162.147C129.803 162.631 129.997 163.189 129.997 163.822C129.997 164.355 129.86 164.836 129.587 165.265C129.313 165.688 128.926 166.042 128.425 166.324V169.551H131.104V170.631ZM125.472 161.662C124.834 161.662 124.269 161.751 123.776 161.929C123.284 162.102 122.901 162.353 122.628 162.681C122.354 163.004 122.218 163.385 122.218 163.822C122.218 164.255 122.354 164.636 122.628 164.964C122.901 165.292 123.284 165.547 123.776 165.729C124.269 165.907 124.834 165.996 125.472 165.996C126.105 165.996 126.668 165.907 127.16 165.729C127.657 165.547 128.044 165.292 128.322 164.964C128.6 164.636 128.739 164.255 128.739 163.822C128.739 163.389 128.6 163.009 128.322 162.681C128.049 162.353 127.664 162.102 127.167 161.929C126.675 161.751 126.11 161.662 125.472 161.662ZM127.112 169.551V166.823C126.616 166.946 126.069 167.008 125.472 167.008C124.897 167.008 124.36 166.949 123.858 166.83V169.551H127.112ZM136.286 162.523C136.286 163.002 136.411 163.462 136.662 163.904C136.913 164.346 137.268 164.736 137.729 165.073C138.189 165.41 138.724 165.663 139.335 165.832L138.72 166.844C138.018 166.643 137.405 166.336 136.881 165.921C136.357 165.502 135.953 165.007 135.671 164.438C135.402 165.08 135.003 165.638 134.475 166.112C133.951 166.582 133.328 166.93 132.608 167.158L131.993 166.16C132.604 165.964 133.135 165.682 133.586 165.312C134.042 164.939 134.39 164.513 134.632 164.034C134.878 163.551 135.001 163.048 135.001 162.523V162.373H132.335V161.334H135.001V159.857H136.3V161.334H138.952V162.373H136.286V162.523ZM142.206 167.336H140.907V164.41H138.569V163.344H140.907V159.912H142.206V167.336ZM138.104 167.609C138.957 167.609 139.693 167.698 140.312 167.876C140.937 168.054 141.415 168.311 141.748 168.648C142.081 168.986 142.247 169.391 142.247 169.865C142.247 170.344 142.078 170.754 141.741 171.096C141.409 171.438 140.93 171.697 140.306 171.875C139.686 172.053 138.952 172.139 138.104 172.135C137.252 172.139 136.514 172.053 135.89 171.875C135.265 171.697 134.787 171.438 134.454 171.096C134.121 170.754 133.957 170.344 133.962 169.865C133.957 169.391 134.121 168.986 134.454 168.648C134.787 168.311 135.263 168.054 135.883 167.876C136.507 167.698 137.248 167.609 138.104 167.609ZM138.104 168.621C137.207 168.621 136.505 168.73 135.999 168.949C135.498 169.163 135.247 169.469 135.247 169.865C135.247 170.13 135.361 170.357 135.589 170.549C135.817 170.736 136.145 170.882 136.573 170.986C137.002 171.087 137.512 171.137 138.104 171.137C138.701 171.137 139.214 171.087 139.643 170.986C140.071 170.882 140.397 170.736 140.62 170.549C140.848 170.357 140.962 170.13 140.962 169.865C140.962 169.469 140.711 169.163 140.21 168.949C139.709 168.73 139.007 168.621 138.104 168.621ZM153.718 163.863H155.495V164.943H153.718V169.086H152.419V159.926H153.718V163.863ZM151.407 162.4H144.106V161.348H147.114V159.912H148.413V161.348H151.407V162.4ZM147.757 162.988C148.34 162.988 148.855 163.084 149.302 163.275C149.753 163.467 150.102 163.738 150.348 164.089C150.598 164.435 150.724 164.839 150.724 165.299C150.724 165.759 150.598 166.162 150.348 166.509C150.102 166.855 149.753 167.124 149.302 167.315C148.855 167.502 148.34 167.596 147.757 167.596C147.169 167.596 146.649 167.502 146.198 167.315C145.747 167.124 145.396 166.855 145.146 166.509C144.899 166.162 144.776 165.759 144.776 165.299C144.776 164.839 144.899 164.435 145.146 164.089C145.396 163.738 145.747 163.467 146.198 163.275C146.649 163.084 147.169 162.988 147.757 162.988ZM147.757 163.986C147.41 163.986 147.105 164.041 146.841 164.15C146.581 164.255 146.381 164.408 146.239 164.608C146.098 164.804 146.03 165.035 146.034 165.299C146.03 165.559 146.098 165.786 146.239 165.982C146.381 166.174 146.581 166.322 146.841 166.427C147.105 166.532 147.41 166.584 147.757 166.584C148.103 166.584 148.406 166.532 148.666 166.427C148.93 166.322 149.135 166.174 149.281 165.982C149.427 165.786 149.502 165.559 149.507 165.299C149.502 165.035 149.427 164.804 149.281 164.608C149.135 164.408 148.93 164.255 148.666 164.15C148.406 164.041 148.103 163.986 147.757 163.986ZM154.237 171.902H145.952V168.361H147.251V170.85H154.237V171.902ZM170.097 172.162H168.853V165.887H167.28V171.533H166.063V160.158H167.28V164.82H168.853V159.912H170.097V172.162ZM161.483 167.903C162.8 167.89 164.054 167.764 165.243 167.527L165.38 168.662C164.591 168.803 163.84 168.904 163.124 168.963C162.413 169.018 161.698 169.045 160.978 169.045H160.185V161.361H161.483V167.903ZM181.923 172.162H180.624V168.799H173.624V167.773H181.923V172.162ZM181.923 167.131H180.624V165.449H177.603C177.311 165.786 176.946 166.049 176.509 166.235C176.071 166.422 175.593 166.516 175.073 166.516C174.467 166.516 173.923 166.39 173.439 166.14C172.956 165.884 172.576 165.531 172.298 165.08C172.024 164.629 171.888 164.118 171.888 163.549C171.888 162.988 172.024 162.485 172.298 162.038C172.576 161.587 172.956 161.234 173.439 160.979C173.927 160.723 174.472 160.596 175.073 160.596C175.593 160.596 176.071 160.689 176.509 160.876C176.946 161.063 177.311 161.325 177.603 161.662H180.624V159.912H181.923V167.131ZM175.101 161.689C174.722 161.689 174.383 161.769 174.082 161.929C173.786 162.084 173.553 162.302 173.385 162.585C173.216 162.868 173.132 163.189 173.132 163.549C173.132 163.918 173.216 164.244 173.385 164.526C173.553 164.809 173.786 165.03 174.082 165.189C174.383 165.344 174.722 165.422 175.101 165.422C175.47 165.422 175.8 165.344 176.092 165.189C176.388 165.03 176.62 164.809 176.789 164.526C176.958 164.239 177.042 163.913 177.042 163.549C177.042 163.189 176.958 162.868 176.789 162.585C176.62 162.302 176.388 162.084 176.092 161.929C175.796 161.769 175.465 161.689 175.101 161.689ZM180.624 164.383V162.729H178.17C178.247 162.997 178.286 163.271 178.286 163.549C178.286 163.836 178.247 164.114 178.17 164.383H180.624ZM193.954 172.189H192.655V159.912H193.954V172.189ZM187.405 160.828C188.011 160.828 188.554 161.006 189.032 161.361C189.511 161.712 189.884 162.214 190.153 162.865C190.427 163.512 190.563 164.264 190.563 165.121C190.563 165.982 190.427 166.739 190.153 167.391C189.884 168.042 189.511 168.546 189.032 168.901C188.554 169.252 188.011 169.428 187.405 169.428C186.79 169.428 186.243 169.252 185.765 168.901C185.286 168.546 184.91 168.045 184.637 167.397C184.368 166.746 184.233 165.987 184.233 165.121C184.233 164.26 184.368 163.506 184.637 162.858C184.91 162.207 185.286 161.705 185.765 161.354C186.243 161.004 186.79 160.828 187.405 160.828ZM187.405 161.99C187.027 161.99 186.692 162.118 186.4 162.373C186.113 162.628 185.89 162.993 185.73 163.467C185.571 163.936 185.491 164.488 185.491 165.121C185.491 165.759 185.571 166.315 185.73 166.789C185.89 167.263 186.113 167.628 186.4 167.883C186.692 168.138 187.027 168.266 187.405 168.266C187.779 168.266 188.109 168.138 188.396 167.883C188.684 167.628 188.907 167.263 189.066 166.789C189.226 166.315 189.306 165.759 189.306 165.121C189.306 164.488 189.226 163.936 189.066 163.467C188.907 162.993 188.684 162.628 188.396 162.373C188.109 162.118 187.779 161.99 187.405 161.99ZM201.938 168.512H203.853V167.09H205.056V172.012H200.722V167.09H201.938V168.512ZM203.853 171V169.496H201.938V171H203.853ZM208.61 168.006C208.61 168.448 208.692 168.874 208.856 169.284C209.021 169.694 209.269 170.061 209.602 170.385C209.939 170.704 210.351 170.95 210.839 171.123L210.169 172.107C209.631 171.902 209.178 171.611 208.809 171.232C208.444 170.859 208.161 170.419 207.961 169.913C207.751 170.405 207.462 170.84 207.093 171.219C206.728 171.597 206.291 171.893 205.78 172.107L205.124 171.123C205.598 170.927 205.999 170.665 206.327 170.337C206.66 170.004 206.908 169.637 207.072 169.236C207.241 168.831 207.325 168.421 207.325 168.006V167.008H208.61V168.006ZM202.718 160.432C203.251 160.432 203.739 160.527 204.181 160.719C204.623 160.906 204.987 161.172 205.274 161.519C205.566 161.865 205.757 162.264 205.849 162.715H208.241V159.912H209.54V166.406H208.241V163.781H205.855C205.769 164.246 205.58 164.654 205.288 165.005C205.001 165.356 204.634 165.627 204.188 165.818C203.745 166.01 203.256 166.105 202.718 166.105C202.098 166.105 201.544 165.987 201.057 165.75C200.569 165.508 200.188 165.174 199.915 164.745C199.642 164.312 199.505 163.818 199.505 163.262C199.505 162.715 199.642 162.227 199.915 161.799C200.188 161.366 200.569 161.031 201.057 160.794C201.544 160.552 202.098 160.432 202.718 160.432ZM202.718 161.512C202.335 161.512 201.993 161.587 201.692 161.737C201.396 161.883 201.164 162.088 200.995 162.353C200.831 162.617 200.749 162.92 200.749 163.262C200.749 163.608 200.831 163.916 200.995 164.185C201.164 164.453 201.396 164.665 201.692 164.82C201.993 164.971 202.335 165.048 202.718 165.053C203.091 165.048 203.424 164.971 203.716 164.82C204.012 164.665 204.242 164.453 204.406 164.185C204.575 163.916 204.659 163.608 204.659 163.262C204.659 162.92 204.575 162.617 204.406 162.353C204.242 162.088 204.012 161.883 203.716 161.737C203.424 161.587 203.091 161.512 202.718 161.512ZM214.749 160.828C215.3 160.828 215.797 160.979 216.239 161.279C216.681 161.576 217.039 162.002 217.312 162.558C217.59 163.109 217.761 163.758 217.825 164.506H220.354V159.912H221.64V172.189H220.354V165.559H217.839C217.793 166.342 217.634 167.026 217.36 167.609C217.087 168.193 216.725 168.642 216.273 168.956C215.822 169.271 215.314 169.428 214.749 169.428C214.138 169.428 213.598 169.252 213.129 168.901C212.66 168.546 212.293 168.045 212.028 167.397C211.769 166.746 211.641 165.987 211.646 165.121C211.641 164.26 211.769 163.506 212.028 162.858C212.293 162.207 212.66 161.705 213.129 161.354C213.603 161.004 214.143 160.828 214.749 160.828ZM214.749 161.99C214.38 161.99 214.054 162.118 213.771 162.373C213.489 162.628 213.268 162.993 213.108 163.467C212.953 163.936 212.876 164.488 212.876 165.121C212.876 165.759 212.953 166.315 213.108 166.789C213.268 167.263 213.489 167.628 213.771 167.883C214.054 168.138 214.38 168.266 214.749 168.266C215.118 168.266 215.444 168.138 215.727 167.883C216.009 167.628 216.228 167.263 216.383 166.789C216.542 166.315 216.622 165.759 216.622 165.121C216.622 164.488 216.542 163.936 216.383 163.467C216.228 162.993 216.009 162.628 215.727 162.373C215.444 162.118 215.118 161.99 214.749 161.99ZM234.737 170.631H223.526V169.551H226.206V166.352C225.696 166.069 225.299 165.711 225.017 165.278C224.734 164.845 224.593 164.36 224.593 163.822C224.593 163.189 224.784 162.631 225.167 162.147C225.554 161.664 226.09 161.291 226.773 161.026C227.457 160.757 228.234 160.623 229.104 160.623C229.979 160.623 230.759 160.757 231.442 161.026C232.131 161.291 232.666 161.664 233.049 162.147C233.436 162.631 233.63 163.189 233.63 163.822C233.63 164.355 233.493 164.836 233.22 165.265C232.946 165.688 232.559 166.042 232.058 166.324V169.551H234.737V170.631ZM229.104 161.662C228.466 161.662 227.901 161.751 227.409 161.929C226.917 162.102 226.534 162.353 226.261 162.681C225.987 163.004 225.851 163.385 225.851 163.822C225.851 164.255 225.987 164.636 226.261 164.964C226.534 165.292 226.917 165.547 227.409 165.729C227.901 165.907 228.466 165.996 229.104 165.996C229.738 165.996 230.301 165.907 230.793 165.729C231.29 165.547 231.677 165.292 231.955 164.964C232.233 164.636 232.372 164.255 232.372 163.822C232.372 163.389 232.233 163.009 231.955 162.681C231.682 162.353 231.297 162.102 230.8 161.929C230.308 161.751 229.743 161.662 229.104 161.662ZM230.745 169.551V166.823C230.248 166.946 229.701 167.008 229.104 167.008C228.53 167.008 227.993 166.949 227.491 166.83V169.551H230.745ZM32.3799 185.867C32.3799 186.405 32.4984 186.92 32.7354 187.412C32.9769 187.904 33.3187 188.34 33.7607 188.718C34.2074 189.091 34.7314 189.376 35.333 189.572L34.6357 190.598C33.9749 190.365 33.3962 190.021 32.8994 189.565C32.4072 189.105 32.0267 188.57 31.7578 187.959C31.4889 188.656 31.097 189.262 30.582 189.777C30.0716 190.288 29.4632 190.675 28.7568 190.939L28.0596 189.9C28.6885 189.677 29.2285 189.358 29.6797 188.943C30.1354 188.524 30.484 188.041 30.7256 187.494C30.9671 186.947 31.0902 186.368 31.0947 185.758V184.555H32.3799V185.867ZM37.7803 186.988H39.5576V188.082H37.7803V191.309H36.4814V183.912H37.7803V186.988ZM33.8291 191.596C34.6631 191.596 35.3854 191.687 35.9961 191.869C36.6068 192.047 37.0739 192.307 37.3975 192.648C37.7256 192.986 37.8896 193.391 37.8896 193.865C37.8896 194.344 37.7256 194.754 37.3975 195.096C37.0739 195.438 36.6068 195.697 35.9961 195.875C35.3854 196.053 34.6631 196.139 33.8291 196.135C32.986 196.139 32.2546 196.053 31.6348 195.875C31.015 195.697 30.5387 195.438 30.2061 195.096C29.8779 194.754 29.7139 194.344 29.7139 193.865C29.7139 193.391 29.8779 192.986 30.2061 192.648C30.5387 192.307 31.015 192.047 31.6348 191.869C32.2546 191.687 32.986 191.596 33.8291 191.596ZM33.8291 192.621C33.2412 192.621 32.7354 192.671 32.3115 192.771C31.8877 192.867 31.5641 193.008 31.3408 193.195C31.1175 193.382 31.0081 193.605 31.0127 193.865C31.0081 194.266 31.252 194.574 31.7441 194.788C32.2363 195.002 32.9313 195.114 33.8291 195.123C34.7178 195.114 35.4036 195.002 35.8867 194.788C36.3743 194.574 36.6182 194.266 36.6182 193.865C36.6182 193.473 36.3721 193.168 35.8799 192.949C35.3923 192.73 34.7087 192.621 33.8291 192.621ZM51.4248 190.816H46.4756V192.129H50.0576V196.012H41.5947V192.129H45.1904V190.816H40.2549V189.777H51.4248V190.816ZM50.3721 185.348H48.5947V187.686H50.3174V188.738H41.335V187.686H43.0713V185.348H41.2803V184.295H50.3721V185.348ZM42.8799 194.959H48.7998V193.154H42.8799V194.959ZM47.2959 187.686V185.348H44.3564V187.686H47.2959ZM65.9443 196.189H64.6455V183.912H65.9443V196.189ZM62.1982 189.49H57.7959V192.17C58.8714 192.165 59.8581 192.131 60.7559 192.067C61.6582 192.004 62.5947 191.892 63.5654 191.732L63.6885 192.799C62.6676 192.972 61.6764 193.09 60.7148 193.154C59.7578 193.218 58.6891 193.25 57.5088 193.25H56.4697V188.451H60.8721V186.072H56.4561V185.02H62.1982V189.49ZM74.0928 185.648C74.0928 186.296 74.3001 186.924 74.7148 187.535C75.1341 188.146 75.6878 188.668 76.376 189.101C77.0641 189.529 77.7979 189.814 78.5771 189.955L77.9756 191.035C77.3239 190.894 76.6995 190.661 76.1025 190.338C75.5055 190.014 74.9723 189.62 74.5029 189.155C74.0381 188.686 73.6758 188.169 73.416 187.604C73.1517 188.164 72.7871 188.679 72.3223 189.148C71.862 189.613 71.3333 190.007 70.7363 190.331C70.1393 190.655 69.5127 190.889 68.8564 191.035L68.2822 189.955C69.0524 189.809 69.7793 189.522 70.4629 189.094C71.1465 188.661 71.6934 188.141 72.1035 187.535C72.5182 186.924 72.7256 186.296 72.7256 185.648V184.719H74.0928V185.648ZM79.083 194.549H67.8721V193.469H79.083V194.549ZM89.9111 191.473H81.3799V184.924H89.7881V185.977H82.6924V187.631H89.5283V188.656H82.6924V190.434H89.9111V191.473ZM91.1826 194.617H79.9717V193.551H91.1826V194.617ZM103.269 190.529H92.0576V189.531H103.269V190.529ZM101.888 194.084H94.6963V195.096H102.271V196.012H93.3975V193.223H100.603V192.32H93.3838V191.391H101.888V194.084ZM101.86 186.879H94.7783V187.809H102.065V188.725H93.4932V186.018H100.562V185.143H93.4658V184.227H101.86V186.879ZM117.446 188.082H109.052V184.363H117.323V185.416H110.351V187.043H117.446V188.082ZM118.759 190.01H113.81V191.09H117.351V193.947H110.214V195.027H117.692V196.039H108.942V193.018H116.065V192.061H108.929V191.09H112.524V190.01H107.589V188.957H118.759V190.01ZM129.888 196.189H128.603V189.6H126.36V188.52H128.603V183.912H129.888V196.189ZM125.636 189.395H121.438V192.184C122.505 192.179 123.43 192.152 124.214 192.102C125.002 192.047 125.8 191.947 126.606 191.801L126.716 192.867C125.859 193.022 125.007 193.127 124.159 193.182C123.316 193.236 122.3 193.268 121.11 193.277H120.14V188.342H124.378V186.072H120.112V185.02H125.636V189.395ZM142.999 194.645H131.788V193.564H136.724V191.049H133.073V184.746H134.372V186.852H140.388V184.746H141.673V191.049H138.009V193.564H142.999V194.645ZM140.388 189.996V187.904H134.372V189.996H140.388ZM153.8 186.291C153.8 186.979 153.791 187.578 153.772 188.089C153.759 188.595 153.718 189.18 153.649 189.846C153.586 190.511 153.481 191.231 153.335 192.006L152.022 191.869C152.168 191.135 152.275 190.445 152.344 189.798C152.417 189.146 152.46 188.567 152.474 188.062C152.492 187.556 152.501 186.965 152.501 186.291V186.141H145.063V185.088H153.8V186.291ZM155.058 194.508H143.888V193.428H148.14V189.107H149.425V193.428H155.058V194.508ZM166.228 185.525V185.689C166.218 186.305 166.196 186.872 166.159 187.392C166.123 187.911 166.041 188.497 165.913 189.148L164.628 189.025C164.746 188.415 164.826 187.868 164.867 187.385C164.913 186.897 164.94 186.405 164.949 185.908H160.048V184.842H166.228V185.525ZM163.097 190.126C164.587 190.071 165.886 189.964 166.993 189.805L167.075 190.748C165.945 190.949 164.76 191.081 163.521 191.145C162.281 191.208 160.918 191.245 159.433 191.254L159.31 190.201H159.46C159.765 190.197 160.153 190.192 160.622 190.188C161.091 190.183 161.488 190.176 161.812 190.167V187.59H163.097V190.126ZM169.099 187.809H170.78V188.902H169.099V193.113H167.772V183.912H169.099V187.809ZM169.495 195.902H161.169V192.279H162.468V194.85H169.495V195.902ZM181.677 196.189H180.378V183.912H181.677V196.189ZM177.931 189.49H173.528V192.17C174.604 192.165 175.59 192.131 176.488 192.067C177.391 192.004 178.327 191.892 179.298 191.732L179.421 192.799C178.4 192.972 177.409 193.09 176.447 193.154C175.49 193.218 174.422 193.25 173.241 193.25H172.202V188.451H176.604V186.072H172.188V185.02H177.931V189.49ZM187.87 187.521C187.87 188.164 188.002 188.816 188.267 189.477C188.531 190.137 188.9 190.734 189.374 191.268C189.853 191.801 190.395 192.211 191.001 192.498L190.263 193.51C189.588 193.182 188.987 192.696 188.458 192.054C187.934 191.411 187.531 190.682 187.248 189.866C186.965 190.75 186.549 191.546 185.997 192.252C185.45 192.954 184.83 193.478 184.138 193.824L183.372 192.799C183.978 192.507 184.525 192.079 185.013 191.514C185.505 190.949 185.89 190.315 186.168 189.613C186.446 188.907 186.585 188.21 186.585 187.521V186.223H183.823V185.143H190.536V186.223H187.87V187.521ZM193.147 188.766H195.116V189.859H193.147V196.162H191.849V183.912H193.147V188.766ZM206.245 196.162H205.001V183.912H206.245V196.162ZM203.757 195.561H202.513V189.654H201.132C201.095 190.447 200.963 191.135 200.735 191.719C200.507 192.302 200.2 192.751 199.812 193.065C199.425 193.375 198.981 193.528 198.479 193.523C197.951 193.528 197.486 193.355 197.085 193.004C196.688 192.653 196.381 192.152 196.162 191.5C195.948 190.844 195.841 190.078 195.841 189.203C195.841 188.328 195.948 187.565 196.162 186.913C196.381 186.261 196.688 185.762 197.085 185.416C197.486 185.065 197.951 184.892 198.479 184.896C198.972 184.892 199.409 185.04 199.792 185.341C200.175 185.637 200.48 186.065 200.708 186.626C200.94 187.182 201.079 187.84 201.125 188.602H202.513V184.145H203.757V195.561ZM198.479 186.113C198.183 186.113 197.928 186.236 197.714 186.482C197.5 186.724 197.333 187.077 197.215 187.542C197.101 188.002 197.044 188.556 197.044 189.203C197.044 189.85 197.101 190.406 197.215 190.871C197.333 191.331 197.5 191.685 197.714 191.931C197.928 192.172 198.183 192.293 198.479 192.293C198.78 192.293 199.04 192.172 199.259 191.931C199.478 191.685 199.646 191.331 199.765 190.871C199.883 190.406 199.942 189.85 199.942 189.203C199.942 188.556 199.883 188.002 199.765 187.542C199.646 187.077 199.478 186.724 199.259 186.482C199.04 186.236 198.78 186.113 198.479 186.113ZM218.331 196.162H217.101V183.912H218.331V196.162ZM215.747 195.561H214.517V189.873H212.124C211.358 191.359 210.151 192.585 208.501 193.551L207.763 192.621C209.039 191.865 210.007 190.976 210.668 189.955C211.333 188.934 211.721 187.781 211.83 186.496H208.337V185.43H213.122C213.113 186.688 212.931 187.822 212.575 188.834H214.517V184.227H215.747V195.561ZM234.532 194.631H223.321V193.551H226.001V190.352C225.491 190.069 225.094 189.711 224.812 189.278C224.529 188.845 224.388 188.36 224.388 187.822C224.388 187.189 224.579 186.631 224.962 186.147C225.349 185.664 225.885 185.291 226.568 185.026C227.252 184.757 228.029 184.623 228.899 184.623C229.774 184.623 230.554 184.757 231.237 185.026C231.925 185.291 232.461 185.664 232.844 186.147C233.231 186.631 233.425 187.189 233.425 187.822C233.425 188.355 233.288 188.836 233.015 189.265C232.741 189.688 232.354 190.042 231.853 190.324V193.551H234.532V194.631ZM228.899 185.662C228.261 185.662 227.696 185.751 227.204 185.929C226.712 186.102 226.329 186.353 226.056 186.681C225.782 187.004 225.646 187.385 225.646 187.822C225.646 188.255 225.782 188.636 226.056 188.964C226.329 189.292 226.712 189.547 227.204 189.729C227.696 189.907 228.261 189.996 228.899 189.996C229.533 189.996 230.096 189.907 230.588 189.729C231.085 189.547 231.472 189.292 231.75 188.964C232.028 188.636 232.167 188.255 232.167 187.822C232.167 187.389 232.028 187.009 231.75 186.681C231.477 186.353 231.091 186.102 230.595 185.929C230.103 185.751 229.537 185.662 228.899 185.662ZM230.54 193.551V190.823C230.043 190.946 229.496 191.008 228.899 191.008C228.325 191.008 227.787 190.949 227.286 190.83V193.551H230.54ZM239.714 186.523C239.714 187.002 239.839 187.462 240.09 187.904C240.34 188.346 240.696 188.736 241.156 189.073C241.617 189.41 242.152 189.663 242.763 189.832L242.147 190.844C241.446 190.643 240.833 190.336 240.309 189.921C239.785 189.502 239.381 189.007 239.099 188.438C238.83 189.08 238.431 189.638 237.902 190.112C237.378 190.582 236.756 190.93 236.036 191.158L235.421 190.16C236.032 189.964 236.562 189.682 237.014 189.312C237.469 188.939 237.818 188.513 238.06 188.034C238.306 187.551 238.429 187.048 238.429 186.523V186.373H235.763V185.334H238.429V183.857H239.728V185.334H242.38V186.373H239.714V186.523ZM245.634 191.336H244.335V188.41H241.997V187.344H244.335V183.912H245.634V191.336ZM241.532 191.609C242.384 191.609 243.12 191.698 243.74 191.876C244.365 192.054 244.843 192.311 245.176 192.648C245.508 192.986 245.675 193.391 245.675 193.865C245.675 194.344 245.506 194.754 245.169 195.096C244.836 195.438 244.358 195.697 243.733 195.875C243.114 196.053 242.38 196.139 241.532 196.135C240.68 196.139 239.942 196.053 239.317 195.875C238.693 195.697 238.215 195.438 237.882 195.096C237.549 194.754 237.385 194.344 237.39 193.865C237.385 193.391 237.549 192.986 237.882 192.648C238.215 192.311 238.691 192.054 239.311 191.876C239.935 191.698 240.675 191.609 241.532 191.609ZM241.532 192.621C240.634 192.621 239.933 192.73 239.427 192.949C238.925 193.163 238.675 193.469 238.675 193.865C238.675 194.13 238.789 194.357 239.017 194.549C239.244 194.736 239.573 194.882 240.001 194.986C240.429 195.087 240.94 195.137 241.532 195.137C242.129 195.137 242.642 195.087 243.07 194.986C243.499 194.882 243.825 194.736 244.048 194.549C244.276 194.357 244.39 194.13 244.39 193.865C244.39 193.469 244.139 193.163 243.638 192.949C243.136 192.73 242.435 192.621 241.532 192.621ZM253.577 186.988H247.493V185.936H249.899V184.268H251.185V185.936H253.577V186.988ZM250.542 187.727C251.057 187.727 251.515 187.847 251.916 188.089C252.317 188.326 252.632 188.659 252.859 189.087C253.087 189.511 253.203 189.996 253.208 190.543C253.203 191.094 253.087 191.587 252.859 192.02C252.632 192.448 252.317 192.783 251.916 193.024C251.515 193.266 251.057 193.387 250.542 193.387C250.036 193.387 249.58 193.266 249.175 193.024C248.769 192.783 248.452 192.446 248.225 192.013C247.997 191.58 247.885 191.09 247.89 190.543C247.885 190.001 247.997 189.515 248.225 189.087C248.452 188.659 248.769 188.326 249.175 188.089C249.58 187.847 250.036 187.727 250.542 187.727ZM250.542 188.807C250.25 188.807 249.991 188.882 249.763 189.032C249.535 189.178 249.357 189.383 249.229 189.647C249.102 189.912 249.038 190.21 249.038 190.543C249.038 190.885 249.102 191.188 249.229 191.452C249.357 191.712 249.535 191.915 249.763 192.061C249.991 192.206 250.25 192.279 250.542 192.279C250.834 192.279 251.093 192.206 251.321 192.061C251.554 191.915 251.734 191.712 251.861 191.452C251.993 191.188 252.06 190.885 252.06 190.543C252.06 190.21 251.993 189.912 251.861 189.647C251.734 189.383 251.554 189.178 251.321 189.032C251.089 188.882 250.829 188.807 250.542 188.807ZM258.007 196.162H256.776V190.078H255.368V195.588H254.138V184.186H255.368V189.012H256.776V183.912H258.007V196.162ZM270.831 194.645H259.62V193.564H264.556V191.049H260.905V184.746H262.204V186.852H268.22V184.746H269.505V191.049H265.841V193.564H270.831V194.645ZM268.22 189.996V187.904H262.204V189.996H268.22ZM275.452 187.262C275.452 187.927 275.546 188.586 275.732 189.237C275.919 189.884 276.197 190.477 276.566 191.015C276.936 191.552 277.384 191.983 277.913 192.307L277.188 193.305C276.632 192.972 276.156 192.519 275.76 191.944C275.363 191.366 275.058 190.709 274.844 189.976C274.611 190.773 274.283 191.486 273.859 192.115C273.44 192.74 272.941 193.227 272.362 193.578L271.556 192.607C272.116 192.27 272.595 191.824 272.991 191.268C273.388 190.707 273.686 190.087 273.887 189.408C274.092 188.725 274.194 188.027 274.194 187.316V185.033H275.452V187.262ZM282.261 196.162H281.017V183.912H282.261V196.162ZM279.718 195.561H278.487V189.299H276.587V188.219H278.487V184.145H279.718V195.561ZM295.03 194.631H283.819V193.551H286.499V190.352C285.989 190.069 285.592 189.711 285.31 189.278C285.027 188.845 284.886 188.36 284.886 187.822C284.886 187.189 285.077 186.631 285.46 186.147C285.847 185.664 286.383 185.291 287.066 185.026C287.75 184.757 288.527 184.623 289.397 184.623C290.272 184.623 291.052 184.757 291.735 185.026C292.424 185.291 292.959 185.664 293.342 186.147C293.729 186.631 293.923 187.189 293.923 187.822C293.923 188.355 293.786 188.836 293.513 189.265C293.239 189.688 292.852 190.042 292.351 190.324V193.551H295.03V194.631ZM289.397 185.662C288.759 185.662 288.194 185.751 287.702 185.929C287.21 186.102 286.827 186.353 286.554 186.681C286.28 187.004 286.144 187.385 286.144 187.822C286.144 188.255 286.28 188.636 286.554 188.964C286.827 189.292 287.21 189.547 287.702 189.729C288.194 189.907 288.759 189.996 289.397 189.996C290.031 189.996 290.594 189.907 291.086 189.729C291.583 189.547 291.97 189.292 292.248 188.964C292.526 188.636 292.665 188.255 292.665 187.822C292.665 187.389 292.526 187.009 292.248 186.681C291.975 186.353 291.59 186.102 291.093 185.929C290.601 185.751 290.035 185.662 289.397 185.662ZM291.038 193.551V190.823C290.541 190.946 289.994 191.008 289.397 191.008C288.823 191.008 288.285 190.949 287.784 190.83V193.551H291.038ZM298.052 192.143H296.698L296.575 185.102H298.175L298.052 192.143ZM297.382 195.096C297.209 195.096 297.045 195.052 296.89 194.966C296.739 194.879 296.621 194.761 296.534 194.61C296.448 194.46 296.407 194.298 296.411 194.125C296.407 193.952 296.448 193.79 296.534 193.64C296.621 193.489 296.739 193.371 296.89 193.284C297.045 193.198 297.209 193.154 297.382 193.154C297.55 193.154 297.71 193.198 297.86 193.284C298.011 193.371 298.129 193.489 298.216 193.64C298.307 193.79 298.353 193.952 298.353 194.125C298.353 194.298 298.307 194.46 298.216 194.61C298.129 194.761 298.011 194.879 297.86 194.966C297.71 195.052 297.55 195.096 297.382 195.096Z" fill="#ABABAB"/>
</svg>
