<svg width="388" height="304" viewBox="0 0 388 304" fill="none" xmlns="http://www.w3.org/2000/svg">
<path d="M56 185.43H332" stroke="#6B6B6B" stroke-width="2.5" stroke-linecap="round"/>
<path d="M258.15 128.694C258.15 145.793 250.675 158.348 238.57 166.676C226.412 175.04 209.512 179.18 190.7 179.18C171.888 179.18 154.988 175.04 142.83 166.676C130.725 158.348 123.25 145.793 123.25 128.694C123.25 94.4259 153.353 66.4805 190.7 66.4805C228.047 66.4805 258.15 94.4259 258.15 128.694Z" fill="#FDF0DF" stroke="#C4C4C4" stroke-width="2.5"/>
<ellipse cx="168.499" cy="103.029" rx="6.3" ry="8.4" fill="#525252"/>
<ellipse cx="212.3" cy="103.029" rx="6.3" ry="8.4" fill="#525252"/>
<ellipse cx="190.4" cy="121.929" rx="4.8" ry="3.3" fill="#FEE8B0"/>
<path d="M183 137.83C186.012 135.281 193.038 132.598 200.4 137.83" stroke="#525252" stroke-width="2" stroke-linecap="round"/>
<path d="M238.719 55.8154C245.194 56.6337 249.155 59.633 253.214 63.1529C253.632 63.515 254.051 63.8835 254.474 64.2558C258.162 67.4963 262.177 71.0247 268.258 73.1765C272.347 74.6235 277.036 75.1909 281.79 75.4654C284.173 75.6029 286.595 75.6677 288.984 75.7277C289.123 75.7312 289.262 75.7346 289.4 75.7381C291.652 75.7944 293.869 75.8499 296.022 75.9607C300.611 76.1969 304.789 76.681 308.203 77.8984C311.571 79.0992 314.117 80.983 315.606 83.9985C318.061 89.9125 317.52 99.8945 310.893 107.39C304.316 114.83 291.489 120.071 268.902 115.909C245.757 111.645 231.914 95.5151 227.136 80.9256C224.739 73.6054 224.674 66.8321 226.673 62.1847C227.664 59.8813 229.151 58.1197 231.102 57.018C233.053 55.9163 235.57 55.4175 238.719 55.8154Z" fill="#C4C4C4" stroke="#C4C4C4" stroke-width="2.5"/>
<path d="M67.4581 102.886L67.4584 102.871V102.856C67.4584 97.2975 69.0974 93.7351 71.6919 91.2869C74.3396 88.7884 78.1256 87.311 82.6903 86.2488C85.7762 85.5306 89.0931 85.0258 92.5511 84.4994C94.2307 84.2437 95.9436 83.983 97.6795 83.6903C102.924 82.8061 108.283 81.6405 113.094 79.4339C117.452 77.4349 121.376 74.8002 125.041 72.1407C126.189 71.3069 127.306 70.476 128.401 69.6608C130.836 67.8493 133.165 66.1155 135.512 64.6011C138.894 62.4189 142.171 60.7907 145.571 60.1623C148.936 59.5402 152.497 59.8844 156.485 61.7759C159.172 63.0497 160.833 64.664 161.76 66.4725C162.692 68.2874 162.949 70.4244 162.6 72.8515C161.895 77.7615 158.745 83.5918 154.32 89.516C145.511 101.307 132.134 112.838 125.354 117.125C101.115 130.093 86.6108 129.992 78.2965 125.227C69.9697 120.455 67.2716 110.666 67.4581 102.886Z" fill="#C4C4C4" stroke="#C4C4C4" stroke-width="2.5"/>
<path d="M137.991 156.383L137.991 156.383C144.238 153.207 159.58 150.664 177.791 155.845C184.199 158.781 190.757 164.461 189.88 173.447L189.875 173.498L189.875 173.549C189.828 176.52 188.788 181.089 185.535 185.011C182.315 188.891 176.832 192.256 167.661 192.72L167.576 192.725L167.492 192.74C160.006 194.156 152.058 193.324 149.388 192.747L149.258 192.719H149.124C142.22 192.719 137.633 190.519 134.522 187.872C131.384 185.202 129.676 182.016 128.647 179.918C125.738 173.989 126.712 168.858 129.076 164.817C131.475 160.714 135.312 157.745 137.991 156.383Z" fill="#FDF0DF" stroke="#C4C4C4" stroke-width="2.5"/>
<path d="M203.991 156.984L203.991 156.984C210.238 153.808 225.58 151.266 243.791 156.446C250.199 159.383 256.757 165.062 255.88 174.049L255.875 174.1L255.875 174.151C255.828 177.122 254.788 181.691 251.535 185.612C248.315 189.493 242.832 192.857 233.661 193.322L233.576 193.326L233.492 193.342C226.006 194.757 218.058 193.925 215.388 193.348L215.258 193.32H215.124C208.22 193.32 203.633 191.12 200.522 188.474C197.384 185.804 195.676 182.617 194.647 180.52C191.738 174.59 192.712 169.46 195.076 165.418C197.475 161.315 201.312 158.347 203.991 156.984Z" fill="#FDF0DF" stroke="#C4C4C4" stroke-width="2.5"/>
<path d="M211.4 87.4297C212.6 88.5297 216.08 90.9097 220.4 91.6297" stroke="#525252" stroke-width="2" stroke-linecap="round"/>
<path d="M169.4 87.4297C168.2 88.5297 164.72 90.9097 160.4 91.6297" stroke="#525252" stroke-width="2" stroke-linecap="round"/>
<path d="M153.2 9.42891C153.2 12.0799 151.051 14.2289 148.4 14.2289C145.749 14.2289 143.6 12.0799 143.6 9.42891C143.6 6.77794 145.749 4.62891 148.4 4.62891C151.051 4.62891 153.2 6.77794 153.2 9.42891Z" fill="#E0E0E0"/>
<circle cx="191.601" cy="9.42891" r="4.8" fill="#E0E0E0"/>
<circle cx="234.8" cy="9.42891" r="4.8" fill="#E0E0E0"/>
<path d="M106.178 249.797C106.178 250.923 106.148 251.923 106.09 252.795C106.038 253.661 105.904 254.647 105.689 255.754H108.209V257.277H101.119V264.68H99.2441V257.277H92.252V255.754H103.814C104.049 254.654 104.195 253.667 104.254 252.795C104.312 251.916 104.342 250.917 104.342 249.797V249.777H94.2051V248.254H106.178V249.797ZM124.596 264.66H122.818V255.539H120.65V263.801H118.893V247.492H120.65V254.016H122.818V247.16H124.596V264.66ZM116.92 260.051H110.123V249.133H116.92V260.051ZM111.881 258.566H115.182V250.598H111.881V258.566ZM147.721 262.473H131.705V260.93H135.533V256.359C134.804 255.956 134.238 255.445 133.834 254.826C133.43 254.208 133.229 253.514 133.229 252.746C133.229 251.841 133.502 251.044 134.049 250.354C134.602 249.663 135.367 249.13 136.344 248.752C137.32 248.368 138.43 248.176 139.674 248.176C140.924 248.176 142.037 248.368 143.014 248.752C143.997 249.13 144.762 249.663 145.309 250.354C145.862 251.044 146.139 251.841 146.139 252.746C146.139 253.508 145.943 254.195 145.553 254.807C145.162 255.412 144.609 255.917 143.893 256.32V260.93H147.721V262.473ZM139.674 249.66C138.762 249.66 137.955 249.787 137.252 250.041C136.549 250.288 136.002 250.646 135.611 251.115C135.221 251.577 135.025 252.121 135.025 252.746C135.025 253.365 135.221 253.908 135.611 254.377C136.002 254.846 136.549 255.21 137.252 255.471C137.955 255.725 138.762 255.852 139.674 255.852C140.579 255.852 141.383 255.725 142.086 255.471C142.796 255.21 143.349 254.846 143.746 254.377C144.143 253.908 144.342 253.365 144.342 252.746C144.342 252.128 144.143 251.584 143.746 251.115C143.355 250.646 142.805 250.288 142.096 250.041C141.393 249.787 140.585 249.66 139.674 249.66ZM142.018 260.93V257.033C141.308 257.209 140.527 257.297 139.674 257.297C138.854 257.297 138.085 257.212 137.369 257.043V260.93H142.018ZM155.123 250.891C155.123 251.574 155.302 252.232 155.66 252.863C156.018 253.495 156.526 254.051 157.184 254.533C157.841 255.015 158.606 255.376 159.479 255.617L158.6 257.062C157.597 256.776 156.721 256.337 155.973 255.744C155.224 255.145 154.648 254.439 154.244 253.625C153.86 254.543 153.29 255.34 152.535 256.018C151.786 256.688 150.898 257.186 149.869 257.512L148.99 256.086C149.863 255.806 150.621 255.402 151.266 254.875C151.917 254.341 152.415 253.732 152.76 253.049C153.111 252.359 153.287 251.639 153.287 250.891V250.676H149.479V249.191H153.287V247.082H155.143V249.191H158.932V250.676H155.123V250.891ZM163.58 257.766H161.725V253.586H158.385V252.062H161.725V247.16H163.58V257.766ZM157.721 258.156C158.938 258.156 159.99 258.283 160.875 258.537C161.767 258.791 162.451 259.159 162.926 259.641C163.401 260.122 163.639 260.702 163.639 261.379C163.639 262.062 163.398 262.648 162.916 263.137C162.441 263.625 161.757 263.996 160.865 264.25C159.98 264.504 158.932 264.628 157.721 264.621C156.503 264.628 155.449 264.504 154.557 264.25C153.665 263.996 152.981 263.625 152.506 263.137C152.031 262.648 151.796 262.062 151.803 261.379C151.796 260.702 152.031 260.122 152.506 259.641C152.981 259.159 153.661 258.791 154.547 258.537C155.439 258.283 156.497 258.156 157.721 258.156ZM157.721 259.602C156.438 259.602 155.436 259.758 154.713 260.07C153.997 260.376 153.639 260.812 153.639 261.379C153.639 261.757 153.801 262.082 154.127 262.355C154.452 262.622 154.921 262.831 155.533 262.98C156.145 263.124 156.874 263.195 157.721 263.195C158.574 263.195 159.306 263.124 159.918 262.98C160.53 262.831 160.995 262.622 161.314 262.355C161.64 262.082 161.803 261.757 161.803 261.379C161.803 260.812 161.445 260.376 160.729 260.07C160.012 259.758 159.01 259.602 157.721 259.602ZM180.025 252.805H182.564V254.348H180.025V260.266H178.17V247.18H180.025V252.805ZM176.725 250.715H166.295V249.211H170.592V247.16H172.447V249.211H176.725V250.715ZM171.51 251.555C172.343 251.555 173.079 251.691 173.717 251.965C174.361 252.238 174.859 252.626 175.211 253.127C175.569 253.622 175.748 254.198 175.748 254.855C175.748 255.513 175.569 256.089 175.211 256.584C174.859 257.079 174.361 257.463 173.717 257.736C173.079 258.003 172.343 258.137 171.51 258.137C170.67 258.137 169.928 258.003 169.283 257.736C168.639 257.463 168.137 257.079 167.779 256.584C167.428 256.089 167.252 255.513 167.252 254.855C167.252 254.198 167.428 253.622 167.779 253.127C168.137 252.626 168.639 252.238 169.283 251.965C169.928 251.691 170.67 251.555 171.51 251.555ZM171.51 252.98C171.015 252.98 170.579 253.059 170.201 253.215C169.83 253.365 169.544 253.583 169.342 253.869C169.14 254.149 169.042 254.478 169.049 254.855C169.042 255.227 169.14 255.552 169.342 255.832C169.544 256.105 169.83 256.317 170.201 256.467C170.579 256.617 171.015 256.691 171.51 256.691C172.005 256.691 172.438 256.617 172.809 256.467C173.186 256.317 173.479 256.105 173.688 255.832C173.896 255.552 174.003 255.227 174.01 254.855C174.003 254.478 173.896 254.149 173.688 253.869C173.479 253.583 173.186 253.365 172.809 253.215C172.438 253.059 172.005 252.98 171.51 252.98ZM180.768 264.289H168.932V259.23H170.787V262.785H180.768V264.289ZM203.424 264.66H201.646V255.695H199.4V263.762H197.662V247.512H199.4V254.172H201.646V247.16H203.424V264.66ZM191.119 258.576C193.001 258.557 194.791 258.378 196.49 258.039L196.686 259.66C195.559 259.862 194.485 260.005 193.463 260.09C192.447 260.168 191.425 260.207 190.396 260.207H189.264V249.23H191.119V258.576ZM220.318 264.66H218.463V259.855H208.463V258.391H220.318V264.66ZM220.318 257.473H218.463V255.07H214.146C213.73 255.552 213.209 255.926 212.584 256.193C211.959 256.46 211.275 256.594 210.533 256.594C209.667 256.594 208.889 256.415 208.199 256.057C207.509 255.692 206.965 255.188 206.568 254.543C206.178 253.898 205.982 253.169 205.982 252.355C205.982 251.555 206.178 250.835 206.568 250.197C206.965 249.553 207.509 249.048 208.199 248.684C208.896 248.319 209.674 248.137 210.533 248.137C211.275 248.137 211.959 248.27 212.584 248.537C213.209 248.804 213.73 249.178 214.146 249.66H218.463V247.16H220.318V257.473ZM210.572 249.699C210.032 249.699 209.547 249.813 209.117 250.041C208.694 250.262 208.362 250.575 208.121 250.979C207.88 251.382 207.76 251.841 207.76 252.355C207.76 252.883 207.88 253.348 208.121 253.752C208.362 254.156 208.694 254.471 209.117 254.699C209.547 254.921 210.032 255.031 210.572 255.031C211.1 255.031 211.572 254.921 211.988 254.699C212.411 254.471 212.743 254.156 212.984 253.752C213.225 253.342 213.346 252.876 213.346 252.355C213.346 251.841 213.225 251.382 212.984 250.979C212.743 250.575 212.411 250.262 211.988 250.041C211.565 249.813 211.093 249.699 210.572 249.699ZM218.463 253.547V251.184H214.957C215.068 251.568 215.123 251.958 215.123 252.355C215.123 252.766 215.068 253.163 214.957 253.547H218.463ZM237.506 264.699H235.65V247.16H237.506V264.699ZM228.15 248.469C229.016 248.469 229.791 248.723 230.475 249.23C231.158 249.732 231.692 250.448 232.076 251.379C232.467 252.303 232.662 253.378 232.662 254.602C232.662 255.832 232.467 256.913 232.076 257.844C231.692 258.775 231.158 259.494 230.475 260.002C229.791 260.503 229.016 260.754 228.15 260.754C227.271 260.754 226.49 260.503 225.807 260.002C225.123 259.494 224.586 258.778 224.195 257.854C223.811 256.923 223.619 255.839 223.619 254.602C223.619 253.371 223.811 252.294 224.195 251.369C224.586 250.438 225.123 249.722 225.807 249.221C226.49 248.719 227.271 248.469 228.15 248.469ZM228.15 250.129C227.61 250.129 227.132 250.311 226.715 250.676C226.305 251.04 225.986 251.561 225.758 252.238C225.53 252.909 225.416 253.697 225.416 254.602C225.416 255.513 225.53 256.307 225.758 256.984C225.986 257.661 226.305 258.182 226.715 258.547C227.132 258.911 227.61 259.094 228.15 259.094C228.684 259.094 229.156 258.911 229.566 258.547C229.977 258.182 230.296 257.661 230.523 256.984C230.751 256.307 230.865 255.513 230.865 254.602C230.865 253.697 230.751 252.909 230.523 252.238C230.296 251.561 229.977 251.04 229.566 250.676C229.156 250.311 228.684 250.129 228.15 250.129ZM248.912 259.445H251.646V257.414H253.365V264.445H247.174V257.414H248.912V259.445ZM251.646 263V260.852H248.912V263H251.646ZM258.443 258.723C258.443 259.354 258.561 259.963 258.795 260.549C259.029 261.135 259.384 261.659 259.859 262.121C260.341 262.577 260.93 262.928 261.627 263.176L260.67 264.582C259.902 264.289 259.254 263.872 258.727 263.332C258.206 262.798 257.802 262.17 257.516 261.447C257.216 262.15 256.803 262.772 256.275 263.312C255.755 263.853 255.13 264.276 254.4 264.582L253.463 263.176C254.14 262.896 254.713 262.521 255.182 262.053C255.657 261.577 256.012 261.053 256.246 260.48C256.487 259.901 256.607 259.315 256.607 258.723V257.297H258.443V258.723ZM250.025 247.902C250.787 247.902 251.484 248.039 252.115 248.312C252.747 248.579 253.268 248.96 253.678 249.455C254.094 249.95 254.368 250.52 254.498 251.164H257.916V247.16H259.771V256.438H257.916V252.688H254.508C254.384 253.352 254.114 253.934 253.697 254.436C253.287 254.937 252.763 255.324 252.125 255.598C251.493 255.871 250.794 256.008 250.025 256.008C249.14 256.008 248.349 255.839 247.652 255.5C246.956 255.155 246.412 254.676 246.021 254.064C245.631 253.446 245.436 252.74 245.436 251.945C245.436 251.164 245.631 250.467 246.021 249.855C246.412 249.237 246.956 248.758 247.652 248.42C248.349 248.075 249.14 247.902 250.025 247.902ZM250.025 249.445C249.479 249.445 248.99 249.553 248.561 249.768C248.137 249.976 247.805 250.269 247.564 250.646C247.33 251.024 247.213 251.457 247.213 251.945C247.213 252.44 247.33 252.88 247.564 253.264C247.805 253.648 248.137 253.951 248.561 254.172C248.99 254.387 249.479 254.497 250.025 254.504C250.559 254.497 251.035 254.387 251.451 254.172C251.874 253.951 252.203 253.648 252.438 253.264C252.678 252.88 252.799 252.44 252.799 251.945C252.799 251.457 252.678 251.024 252.438 250.646C252.203 250.269 251.874 249.976 251.451 249.768C251.035 249.553 250.559 249.445 250.025 249.445ZM267.213 248.469C268.001 248.469 268.71 248.684 269.342 249.113C269.973 249.536 270.484 250.145 270.875 250.939C271.272 251.727 271.516 252.655 271.607 253.723H275.221V247.16H277.057V264.699H275.221V255.227H271.627C271.562 256.346 271.334 257.323 270.943 258.156C270.553 258.99 270.035 259.631 269.391 260.08C268.746 260.529 268.02 260.754 267.213 260.754C266.34 260.754 265.569 260.503 264.898 260.002C264.228 259.494 263.704 258.778 263.326 257.854C262.955 256.923 262.773 255.839 262.779 254.602C262.773 253.371 262.955 252.294 263.326 251.369C263.704 250.438 264.228 249.722 264.898 249.221C265.576 248.719 266.347 248.469 267.213 248.469ZM267.213 250.129C266.686 250.129 266.22 250.311 265.816 250.676C265.413 251.04 265.097 251.561 264.869 252.238C264.648 252.909 264.537 253.697 264.537 254.602C264.537 255.513 264.648 256.307 264.869 256.984C265.097 257.661 265.413 258.182 265.816 258.547C266.22 258.911 266.686 259.094 267.213 259.094C267.74 259.094 268.206 258.911 268.609 258.547C269.013 258.182 269.326 257.661 269.547 256.984C269.775 256.307 269.889 255.513 269.889 254.602C269.889 253.697 269.775 252.909 269.547 252.238C269.326 251.561 269.013 251.04 268.609 250.676C268.206 250.311 267.74 250.129 267.213 250.129ZM295.768 262.473H279.752V260.93H283.58V256.359C282.851 255.956 282.285 255.445 281.881 254.826C281.477 254.208 281.275 253.514 281.275 252.746C281.275 251.841 281.549 251.044 282.096 250.354C282.649 249.663 283.414 249.13 284.391 248.752C285.367 248.368 286.477 248.176 287.721 248.176C288.971 248.176 290.084 248.368 291.061 248.752C292.044 249.13 292.809 249.663 293.355 250.354C293.909 251.044 294.186 251.841 294.186 252.746C294.186 253.508 293.99 254.195 293.6 254.807C293.209 255.412 292.656 255.917 291.939 256.32V260.93H295.768V262.473ZM287.721 249.66C286.809 249.66 286.002 249.787 285.299 250.041C284.596 250.288 284.049 250.646 283.658 251.115C283.268 251.577 283.072 252.121 283.072 252.746C283.072 253.365 283.268 253.908 283.658 254.377C284.049 254.846 284.596 255.21 285.299 255.471C286.002 255.725 286.809 255.852 287.721 255.852C288.626 255.852 289.43 255.725 290.133 255.471C290.842 255.21 291.396 254.846 291.793 254.377C292.19 253.908 292.389 253.365 292.389 252.746C292.389 252.128 292.19 251.584 291.793 251.115C291.402 250.646 290.852 250.288 290.143 250.041C289.439 249.787 288.632 249.66 287.721 249.66ZM290.064 260.93V257.033C289.355 257.209 288.574 257.297 287.721 257.297C286.9 257.297 286.132 257.212 285.416 257.043V260.93H290.064ZM6.68555 281.953C6.68555 282.721 6.85482 283.457 7.19336 284.16C7.53841 284.863 8.02669 285.485 8.6582 286.025C9.29622 286.559 10.0449 286.966 10.9043 287.246L9.9082 288.711C8.96419 288.379 8.13737 287.887 7.42773 287.236C6.72461 286.579 6.18099 285.814 5.79688 284.941C5.41276 285.938 4.85286 286.803 4.11719 287.539C3.38802 288.268 2.51888 288.822 1.50977 289.199L0.513672 287.715C1.41211 287.396 2.18359 286.94 2.82812 286.348C3.47917 285.749 3.97721 285.059 4.32227 284.277C4.66732 283.496 4.8431 282.669 4.84961 281.797V280.078H6.68555V281.953ZM14.4004 283.555H16.9395V285.117H14.4004V289.727H12.5449V279.16H14.4004V283.555ZM8.75586 290.137C9.94727 290.137 10.9792 290.267 11.8516 290.527C12.724 290.781 13.3913 291.152 13.8535 291.641C14.3223 292.122 14.5566 292.702 14.5566 293.379C14.5566 294.062 14.3223 294.648 13.8535 295.137C13.3913 295.625 12.724 295.996 11.8516 296.25C10.9792 296.504 9.94727 296.628 8.75586 296.621C7.55143 296.628 6.50651 296.504 5.62109 296.25C4.73568 295.996 4.05534 295.625 3.58008 295.137C3.11133 294.648 2.87695 294.062 2.87695 293.379C2.87695 292.702 3.11133 292.122 3.58008 291.641C4.05534 291.152 4.73568 290.781 5.62109 290.527C6.50651 290.267 7.55143 290.137 8.75586 290.137ZM8.75586 291.602C7.91602 291.602 7.19336 291.673 6.58789 291.816C5.98242 291.953 5.52018 292.155 5.20117 292.422C4.88216 292.689 4.72591 293.008 4.73242 293.379C4.72591 293.952 5.07422 294.391 5.77734 294.697C6.48047 295.003 7.47331 295.163 8.75586 295.176C10.0254 295.163 11.0052 295.003 11.6953 294.697C12.3919 294.391 12.7402 293.952 12.7402 293.379C12.7402 292.819 12.3887 292.383 11.6855 292.07C10.9889 291.758 10.0124 291.602 8.75586 291.602ZM33.8926 289.023H26.8223V290.898H31.9395V296.445H19.8496V290.898H24.9863V289.023H17.9355V287.539H33.8926V289.023ZM32.3887 281.211H29.8496V284.551H32.3105V286.055H19.4785V284.551H21.959V281.211H19.4004V279.707H32.3887V281.211ZM21.6855 294.941H30.1426V292.363H21.6855V294.941ZM27.9941 284.551V281.211H23.7949V284.551H27.9941ZM54.6348 296.699H52.7793V279.16H54.6348V296.699ZM49.2832 287.129H42.9941V290.957C44.5306 290.951 45.9401 290.902 47.2227 290.811C48.5117 290.719 49.8496 290.56 51.2363 290.332L51.4121 291.855C49.9538 292.103 48.5378 292.272 47.1641 292.363C45.7969 292.454 44.2702 292.5 42.584 292.5H41.0996V285.645H47.3887V282.246H41.0801V280.742H49.2832V287.129ZM66.2754 281.641C66.2754 282.565 66.5716 283.464 67.1641 284.336C67.763 285.208 68.554 285.954 69.5371 286.572C70.5202 287.184 71.5684 287.591 72.6816 287.793L71.8223 289.336C70.8913 289.134 69.9993 288.802 69.1465 288.34C68.2936 287.878 67.5319 287.314 66.8613 286.65C66.1973 285.98 65.6797 285.241 65.3086 284.434C64.931 285.234 64.4102 285.97 63.7461 286.641C63.0885 287.305 62.3333 287.868 61.4805 288.33C60.6276 288.792 59.7324 289.128 58.7949 289.336L57.9746 287.793C59.0749 287.585 60.1133 287.174 61.0898 286.562C62.0664 285.944 62.8477 285.202 63.4336 284.336C64.026 283.464 64.3223 282.565 64.3223 281.641V280.312H66.2754V281.641ZM73.4043 294.355H57.3887V292.812H73.4043V294.355ZM88.873 289.961H76.6855V280.605H88.6973V282.109H78.5605V284.473H88.3262V285.938H78.5605V288.477H88.873V289.961ZM90.6895 294.453H74.6738V292.93H90.6895V294.453ZM107.955 288.613H91.9395V287.188H107.955V288.613ZM105.982 293.691H95.709V295.137H106.529V296.445H93.8535V292.461H104.146V291.172H93.834V289.844H105.982V293.691ZM105.943 283.398H95.8262V284.727H106.236V286.035H93.9902V282.168H104.088V280.918H93.9512V279.609H105.943V283.398ZM128.209 285.117H116.217V279.805H128.033V281.309H118.072V283.633H128.209V285.117ZM130.084 287.871H123.014V289.414H128.072V293.496H117.877V295.039H128.561V296.484H116.061V292.168H126.236V290.801H116.041V289.414H121.178V287.871H114.127V286.367H130.084V287.871ZM145.982 296.699H144.146V287.285H140.943V285.742H144.146V279.16H145.982V296.699ZM139.908 286.992H133.912V290.977C135.436 290.97 136.757 290.931 137.877 290.859C139.003 290.781 140.143 290.638 141.295 290.43L141.451 291.953C140.227 292.174 139.01 292.324 137.799 292.402C136.594 292.48 135.143 292.526 133.443 292.539H132.057V285.488H138.111V282.246H132.018V280.742H139.908V286.992ZM164.713 294.492H148.697V292.949H155.748V289.355H150.533V280.352H152.389V283.359H160.982V280.352H162.818V289.355H157.584V292.949H164.713V294.492ZM160.982 287.852V284.863H152.389V287.852H160.982ZM180.143 282.559C180.143 283.542 180.13 284.398 180.104 285.127C180.084 285.85 180.025 286.686 179.928 287.637C179.837 288.587 179.687 289.616 179.479 290.723L177.604 290.527C177.812 289.479 177.965 288.493 178.062 287.568C178.167 286.637 178.229 285.811 178.248 285.088C178.274 284.365 178.287 283.522 178.287 282.559V282.344H167.662V280.84H180.143V282.559ZM181.939 294.297H165.982V292.754H172.057V286.582H173.893V292.754H181.939V294.297ZM197.896 281.465V281.699C197.883 282.578 197.851 283.389 197.799 284.131C197.747 284.873 197.63 285.71 197.447 286.641L195.611 286.465C195.781 285.592 195.895 284.811 195.953 284.121C196.018 283.424 196.057 282.721 196.07 282.012H189.068V280.488H197.896V281.465ZM193.424 288.037C195.553 287.959 197.408 287.806 198.99 287.578L199.107 288.926C197.493 289.212 195.8 289.401 194.029 289.492C192.258 289.583 190.312 289.635 188.189 289.648L188.014 288.145H188.229C188.665 288.138 189.218 288.132 189.889 288.125C190.559 288.118 191.126 288.109 191.588 288.096V284.414H193.424V288.037ZM201.998 284.727H204.4V286.289H201.998V292.305H200.104V279.16H201.998V284.727ZM202.564 296.289H190.67V291.113H192.525V294.785H202.564V296.289ZM219.967 296.699H218.111V279.16H219.967V296.699ZM214.615 287.129H208.326V290.957C209.863 290.951 211.272 290.902 212.555 290.811C213.844 290.719 215.182 290.56 216.568 290.332L216.744 291.855C215.286 292.103 213.87 292.272 212.496 292.363C211.129 292.454 209.602 292.5 207.916 292.5H206.432V285.645H212.721V282.246H206.412V280.742H214.615V287.129ZM228.814 284.316C228.814 285.234 229.003 286.165 229.381 287.109C229.758 288.053 230.286 288.906 230.963 289.668C231.646 290.43 232.421 291.016 233.287 291.426L232.232 292.871C231.269 292.402 230.41 291.709 229.654 290.791C228.906 289.873 228.329 288.831 227.926 287.666C227.522 288.929 226.926 290.065 226.139 291.074C225.357 292.077 224.472 292.826 223.482 293.32L222.389 291.855C223.255 291.439 224.036 290.827 224.732 290.02C225.436 289.212 225.986 288.307 226.383 287.305C226.78 286.296 226.979 285.299 226.979 284.316V282.461H223.033V280.918H232.623V282.461H228.814V284.316ZM236.354 286.094H239.166V287.656H236.354V296.66H234.498V279.16H236.354V286.094ZM255.064 296.66H253.287V279.16H255.064V296.66ZM251.51 295.801H249.732V287.363H247.76C247.708 288.496 247.519 289.479 247.193 290.312C246.868 291.146 246.428 291.787 245.875 292.236C245.322 292.679 244.687 292.897 243.971 292.891C243.215 292.897 242.551 292.65 241.979 292.148C241.412 291.647 240.973 290.931 240.66 290C240.354 289.062 240.201 287.969 240.201 286.719C240.201 285.469 240.354 284.378 240.66 283.447C240.973 282.516 241.412 281.803 241.979 281.309C242.551 280.807 243.215 280.56 243.971 280.566C244.674 280.56 245.299 280.771 245.846 281.201C246.393 281.624 246.829 282.236 247.154 283.037C247.486 283.831 247.685 284.772 247.75 285.859H249.732V279.492H251.51V295.801ZM243.971 282.305C243.548 282.305 243.183 282.48 242.877 282.832C242.571 283.177 242.333 283.682 242.164 284.346C242.001 285.003 241.92 285.794 241.92 286.719C241.92 287.643 242.001 288.438 242.164 289.102C242.333 289.759 242.571 290.264 242.877 290.615C243.183 290.96 243.548 291.133 243.971 291.133C244.4 291.133 244.771 290.96 245.084 290.615C245.396 290.264 245.637 289.759 245.807 289.102C245.976 288.438 246.061 287.643 246.061 286.719C246.061 285.794 245.976 285.003 245.807 284.346C245.637 283.682 245.396 283.177 245.084 282.832C244.771 282.48 244.4 282.305 243.971 282.305ZM272.33 296.66H270.572V279.16H272.33V296.66ZM268.639 295.801H266.881V287.676H263.463C262.369 289.798 260.644 291.549 258.287 292.93L257.232 291.602C259.055 290.521 260.439 289.251 261.383 287.793C262.333 286.335 262.887 284.688 263.043 282.852H258.053V281.328H264.889C264.876 283.125 264.615 284.746 264.107 286.191H266.881V279.609H268.639V295.801ZM295.475 294.473H279.459V292.93H283.287V288.359C282.558 287.956 281.992 287.445 281.588 286.826C281.184 286.208 280.982 285.514 280.982 284.746C280.982 283.841 281.256 283.044 281.803 282.354C282.356 281.663 283.121 281.13 284.098 280.752C285.074 280.368 286.184 280.176 287.428 280.176C288.678 280.176 289.791 280.368 290.768 280.752C291.751 281.13 292.516 281.663 293.062 282.354C293.616 283.044 293.893 283.841 293.893 284.746C293.893 285.508 293.697 286.195 293.307 286.807C292.916 287.412 292.363 287.917 291.646 288.32V292.93H295.475V294.473ZM287.428 281.66C286.516 281.66 285.709 281.787 285.006 282.041C284.303 282.288 283.756 282.646 283.365 283.115C282.975 283.577 282.779 284.121 282.779 284.746C282.779 285.365 282.975 285.908 283.365 286.377C283.756 286.846 284.303 287.21 285.006 287.471C285.709 287.725 286.516 287.852 287.428 287.852C288.333 287.852 289.137 287.725 289.84 287.471C290.549 287.21 291.103 286.846 291.5 286.377C291.897 285.908 292.096 285.365 292.096 284.746C292.096 284.128 291.897 283.584 291.5 283.115C291.109 282.646 290.559 282.288 289.85 282.041C289.146 281.787 288.339 281.66 287.428 281.66ZM289.771 292.93V289.033C289.062 289.209 288.281 289.297 287.428 289.297C286.607 289.297 285.839 289.212 285.123 289.043V292.93H289.771ZM302.877 282.891C302.877 283.574 303.056 284.232 303.414 284.863C303.772 285.495 304.28 286.051 304.938 286.533C305.595 287.015 306.36 287.376 307.232 287.617L306.354 289.062C305.351 288.776 304.475 288.337 303.727 287.744C302.978 287.145 302.402 286.439 301.998 285.625C301.614 286.543 301.044 287.34 300.289 288.018C299.54 288.688 298.652 289.186 297.623 289.512L296.744 288.086C297.617 287.806 298.375 287.402 299.02 286.875C299.671 286.341 300.169 285.732 300.514 285.049C300.865 284.359 301.041 283.639 301.041 282.891V282.676H297.232V281.191H301.041V279.082H302.896V281.191H306.686V282.676H302.877V282.891ZM311.334 289.766H309.479V285.586H306.139V284.062H309.479V279.16H311.334V289.766ZM305.475 290.156C306.692 290.156 307.743 290.283 308.629 290.537C309.521 290.791 310.204 291.159 310.68 291.641C311.155 292.122 311.393 292.702 311.393 293.379C311.393 294.062 311.152 294.648 310.67 295.137C310.195 295.625 309.511 295.996 308.619 296.25C307.734 296.504 306.686 296.628 305.475 296.621C304.257 296.628 303.202 296.504 302.311 296.25C301.419 295.996 300.735 295.625 300.26 295.137C299.785 294.648 299.55 294.062 299.557 293.379C299.55 292.702 299.785 292.122 300.26 291.641C300.735 291.159 301.415 290.791 302.301 290.537C303.193 290.283 304.251 290.156 305.475 290.156ZM305.475 291.602C304.192 291.602 303.189 291.758 302.467 292.07C301.751 292.376 301.393 292.812 301.393 293.379C301.393 293.757 301.555 294.082 301.881 294.355C302.206 294.622 302.675 294.831 303.287 294.98C303.899 295.124 304.628 295.195 305.475 295.195C306.327 295.195 307.06 295.124 307.672 294.98C308.284 294.831 308.749 294.622 309.068 294.355C309.394 294.082 309.557 293.757 309.557 293.379C309.557 292.812 309.199 292.376 308.482 292.07C307.766 291.758 306.764 291.602 305.475 291.602ZM322.682 283.555H313.99V282.051H317.428V279.668H319.264V282.051H322.682V283.555ZM318.346 284.609C319.081 284.609 319.736 284.782 320.309 285.127C320.882 285.465 321.331 285.941 321.656 286.553C321.982 287.158 322.148 287.852 322.154 288.633C322.148 289.421 321.982 290.124 321.656 290.742C321.331 291.354 320.882 291.833 320.309 292.178C319.736 292.523 319.081 292.695 318.346 292.695C317.623 292.695 316.972 292.523 316.393 292.178C315.813 291.833 315.361 291.351 315.035 290.732C314.71 290.114 314.55 289.414 314.557 288.633C314.55 287.858 314.71 287.165 315.035 286.553C315.361 285.941 315.813 285.465 316.393 285.127C316.972 284.782 317.623 284.609 318.346 284.609ZM318.346 286.152C317.929 286.152 317.558 286.26 317.232 286.475C316.907 286.683 316.653 286.976 316.471 287.354C316.288 287.731 316.197 288.158 316.197 288.633C316.197 289.121 316.288 289.554 316.471 289.932C316.653 290.303 316.907 290.592 317.232 290.801C317.558 291.009 317.929 291.113 318.346 291.113C318.762 291.113 319.133 291.009 319.459 290.801C319.791 290.592 320.048 290.303 320.23 289.932C320.419 289.554 320.514 289.121 320.514 288.633C320.514 288.158 320.419 287.731 320.23 287.354C320.048 286.976 319.791 286.683 319.459 286.475C319.127 286.26 318.756 286.152 318.346 286.152ZM329.01 296.66H327.252V287.969H325.24V295.84H323.482V279.551H325.24V286.445H327.252V279.16H329.01V296.66ZM347.33 294.492H331.314V292.949H338.365V289.355H333.15V280.352H335.006V283.359H343.6V280.352H345.436V289.355H340.201V292.949H347.33V294.492ZM343.6 287.852V284.863H335.006V287.852H343.6ZM353.932 283.945C353.932 284.896 354.065 285.837 354.332 286.768C354.599 287.692 354.996 288.538 355.523 289.307C356.051 290.075 356.692 290.69 357.447 291.152L356.412 292.578C355.618 292.103 354.938 291.455 354.371 290.635C353.805 289.808 353.368 288.87 353.062 287.822C352.73 288.962 352.262 289.98 351.656 290.879C351.057 291.771 350.344 292.467 349.518 292.969L348.365 291.582C349.166 291.1 349.85 290.462 350.416 289.668C350.982 288.867 351.409 287.982 351.695 287.012C351.988 286.035 352.135 285.039 352.135 284.023V280.762H353.932V283.945ZM363.658 296.66H361.881V279.16H363.658V296.66ZM360.025 295.801H358.268V286.855H355.553V285.312H358.268V279.492H360.025V295.801ZM381.9 294.473H365.885V292.93H369.713V288.359C368.984 287.956 368.417 287.445 368.014 286.826C367.61 286.208 367.408 285.514 367.408 284.746C367.408 283.841 367.682 283.044 368.229 282.354C368.782 281.663 369.547 281.13 370.523 280.752C371.5 280.368 372.61 280.176 373.854 280.176C375.104 280.176 376.217 280.368 377.193 280.752C378.176 281.13 378.941 281.663 379.488 282.354C380.042 283.044 380.318 283.841 380.318 284.746C380.318 285.508 380.123 286.195 379.732 286.807C379.342 287.412 378.788 287.917 378.072 288.32V292.93H381.9V294.473ZM373.854 281.66C372.942 281.66 372.135 281.787 371.432 282.041C370.729 282.288 370.182 282.646 369.791 283.115C369.4 283.577 369.205 284.121 369.205 284.746C369.205 285.365 369.4 285.908 369.791 286.377C370.182 286.846 370.729 287.21 371.432 287.471C372.135 287.725 372.942 287.852 373.854 287.852C374.758 287.852 375.562 287.725 376.266 287.471C376.975 287.21 377.529 286.846 377.926 286.377C378.323 285.908 378.521 285.365 378.521 284.746C378.521 284.128 378.323 283.584 377.926 283.115C377.535 282.646 376.985 282.288 376.275 282.041C375.572 281.787 374.765 281.66 373.854 281.66ZM376.197 292.93V289.033C375.488 289.209 374.706 289.297 373.854 289.297C373.033 289.297 372.265 289.212 371.549 289.043V292.93H376.197ZM386.217 290.918H384.283L384.107 280.859H386.393L386.217 290.918ZM385.26 295.137C385.012 295.137 384.778 295.075 384.557 294.951C384.342 294.827 384.173 294.658 384.049 294.443C383.925 294.229 383.867 293.997 383.873 293.75C383.867 293.503 383.925 293.271 384.049 293.057C384.173 292.842 384.342 292.673 384.557 292.549C384.778 292.425 385.012 292.363 385.26 292.363C385.501 292.363 385.729 292.425 385.943 292.549C386.158 292.673 386.327 292.842 386.451 293.057C386.581 293.271 386.646 293.503 386.646 293.75C386.646 293.997 386.581 294.229 386.451 294.443C386.327 294.658 386.158 294.827 385.943 294.951C385.729 295.075 385.501 295.137 385.26 295.137Z" fill="#ABABAB"/>
</svg>
