<svg width="327" height="202" viewBox="0 0 327 202" fill="none" xmlns="http://www.w3.org/2000/svg">
<path d="M75.1797 118.315H251.82" stroke="#6B6B6B" stroke-width="1.5" stroke-linecap="round"/>
<path d="M204.606 83.3627C204.606 94.3234 199.813 102.374 192.053 107.712C184.261 113.073 173.434 115.724 161.388 115.724C149.342 115.724 138.515 113.073 130.723 107.712C122.963 102.374 118.17 94.3234 118.17 83.3627C118.17 61.3999 137.462 43.4961 161.388 43.4961C185.314 43.4961 204.606 61.3999 204.606 83.3627Z" fill="#FDF0DF" stroke="#C4C4C4" stroke-width="1.5"/>
<ellipse cx="147.179" cy="66.9375" rx="4.032" ry="5.376" fill="#525252"/>
<ellipse cx="175.212" cy="66.9375" rx="4.032" ry="5.376" fill="#525252"/>
<ellipse cx="161.196" cy="79.0329" rx="3.072" ry="2.112" fill="#FEE8B0"/>
<path d="M156.1 89.2129C158.027 87.5816 162.524 85.8644 167.236 89.2129" stroke="#525252" stroke-width="1.5" stroke-linecap="round"/>
<path d="M192.126 36.6713C196.285 37.1969 198.829 39.1246 201.429 41.3791C201.696 41.611 201.965 41.8468 202.236 42.085C204.596 44.1592 207.159 46.411 211.041 47.7848C213.651 48.7085 216.647 49.0713 219.688 49.2469C221.212 49.3349 222.761 49.3763 224.29 49.4147C224.379 49.4169 224.468 49.4192 224.557 49.4214C225.998 49.4574 227.417 49.4929 228.796 49.5639C231.734 49.7151 234.414 50.0252 236.606 50.8069C238.771 51.5786 240.412 52.7918 241.373 54.7373C242.951 58.5392 242.603 64.9491 238.348 69.7619C234.123 74.5408 225.893 77.8953 211.427 75.2302C196.595 72.4976 187.722 62.1597 184.659 52.8069C183.123 48.1153 183.078 43.7669 184.364 40.7774C185.002 39.2949 185.96 38.1583 187.22 37.447C188.48 36.7357 190.102 36.4155 192.126 36.6713Z" fill="#C4C4C4" stroke="#C4C4C4" stroke-width="1.5"/>
<path d="M82.4637 66.8451L82.4639 66.8361V66.8271C82.4639 63.2584 83.5166 60.9643 85.189 59.3862C86.8933 57.778 89.3269 56.83 92.2509 56.1495C94.2278 55.6895 96.3539 55.3658 98.5682 55.0288C99.6427 54.8652 100.738 54.6985 101.847 54.5115C105.202 53.9457 108.627 53.2006 111.7 51.7912C114.484 50.514 116.993 48.8301 119.337 47.1286C120.071 46.5958 120.785 46.0645 121.486 45.543C123.045 44.3831 124.538 43.2718 126.041 42.3017C128.208 40.9036 130.312 39.8576 132.497 39.4537C134.661 39.0536 136.951 39.2754 139.513 40.4904C141.24 41.3093 142.312 42.3494 142.912 43.5186C143.513 44.6915 143.679 46.0702 143.454 47.631C143.001 50.7862 140.979 54.5259 138.145 58.3192C132.503 65.8715 123.936 73.2563 119.593 76.0019C104.074 84.3048 94.77 84.2509 89.4254 81.1878C84.0734 78.1204 82.3442 71.8327 82.4637 66.8451Z" fill="#C4C4C4" stroke="#C4C4C4" stroke-width="1.5"/>
<path d="M127.632 101.04L127.632 101.04C131.643 99.0001 141.478 97.3737 153.144 100.693C157.253 102.575 161.478 106.225 160.913 112.011L160.91 112.041L160.91 112.072C160.88 113.982 160.211 116.918 158.121 119.438C156.05 121.934 152.527 124.093 146.646 124.39L146.594 124.393L146.544 124.402C141.745 125.31 136.651 124.777 134.938 124.406L134.86 124.389H134.779C130.349 124.389 127.401 122.977 125.401 121.276C123.385 119.56 122.288 117.513 121.629 116.169C119.759 112.357 120.386 109.056 121.905 106.457C123.447 103.821 125.91 101.915 127.632 101.04Z" fill="#FDF0DF" stroke="#C4C4C4" stroke-width="1.5"/>
<path d="M169.872 101.426L169.872 101.426C173.884 99.3858 183.718 97.7595 195.384 101.079C199.493 102.961 203.718 106.611 203.153 112.396L203.15 112.427L203.15 112.457C203.12 114.368 202.451 117.304 200.361 119.824C198.291 122.32 194.768 124.478 188.886 124.776L188.835 124.779L188.784 124.788C183.986 125.695 178.892 125.162 177.178 124.792L177.1 124.775H177.02C172.589 124.775 169.642 123.363 167.642 121.661C165.626 119.946 164.528 117.899 163.869 116.555C161.999 112.743 162.626 109.441 164.146 106.843C165.687 104.207 168.15 102.301 169.872 101.426Z" fill="#FDF0DF" stroke="#C4C4C4" stroke-width="1.5"/>
<path d="M174.636 56.9541C175.404 57.6581 177.631 59.1813 180.396 59.6421" stroke="#525252" stroke-width="1.5" stroke-linecap="round"/>
<path d="M147.756 56.9541C146.988 57.6581 144.761 59.1813 141.996 59.6421" stroke="#525252" stroke-width="1.5" stroke-linecap="round"/>
<path d="M137.388 7.03391C137.388 8.73053 136.013 10.1059 134.316 10.1059C132.62 10.1059 131.244 8.73053 131.244 7.03391C131.244 5.3373 132.62 3.96191 134.316 3.96191C136.013 3.96191 137.388 5.3373 137.388 7.03391Z" fill="#E0E0E0"/>
<circle cx="161.964" cy="7.03391" r="3.072" fill="#E0E0E0"/>
<circle cx="189.612" cy="7.03391" r="3.072" fill="#E0E0E0"/>
<path d="M115.833 160.678V161.758C115.833 162.92 115.833 164.178 115.491 165.928H117.255V166.994H112.292V172.176H110.979V166.994H106.085V165.928H114.179C114.548 164.185 114.548 162.899 114.548 161.758V161.744H107.452V160.678H115.833ZM128.726 159.912V172.162H127.481V165.777H125.964V171.561H124.733V160.145H125.964V164.711H127.481V159.912H128.726ZM123.353 161.293V168.936H118.595V161.293H123.353ZM119.825 162.318V167.896H122.136V162.318H119.825ZM139.909 159.926V163.863H141.687V164.943H139.909V169.086H138.61V159.926H139.909ZM137.599 161.348V162.4H130.298V161.348H133.306V159.912H134.604V161.348H137.599ZM133.948 162.988C135.712 162.988 136.915 163.904 136.915 165.299C136.915 166.693 135.712 167.596 133.948 167.596C132.171 167.596 130.968 166.693 130.968 165.299C130.968 163.904 132.171 162.988 133.948 162.988ZM133.948 163.986C132.909 163.986 132.212 164.492 132.226 165.299C132.212 166.092 132.909 166.584 133.948 166.584C134.987 166.584 135.685 166.092 135.698 165.299C135.685 164.492 134.987 163.986 133.948 163.986ZM140.429 170.85V171.902H132.144V168.361H133.442V170.85H140.429ZM156.288 159.912V172.162H155.044V165.887H153.472V171.533H152.255V160.158H153.472V164.82H155.044V159.912H156.288ZM147.675 161.361V167.896C148.81 167.89 150.047 167.801 151.435 167.527L151.571 168.662C149.89 168.963 148.481 169.045 147.169 169.045H146.376V161.361H147.675ZM168.114 167.773V172.162H166.815V168.799H159.815V167.773H168.114ZM168.114 159.912V167.131H166.815V165.449H163.794C163.227 166.119 162.331 166.522 161.292 166.516C159.446 166.529 158.079 165.299 158.079 163.549C158.079 161.826 159.446 160.582 161.292 160.596C162.331 160.589 163.22 160.992 163.794 161.662H166.815V159.912H168.114ZM161.292 161.689C160.144 161.689 159.323 162.455 159.323 163.549C159.323 164.67 160.144 165.422 161.292 165.422C162.399 165.422 163.233 164.67 163.233 163.549C163.233 162.455 162.399 161.689 161.292 161.689ZM164.368 164.383H166.815V162.729H164.368C164.437 162.988 164.478 163.262 164.478 163.549C164.478 163.843 164.437 164.123 164.368 164.383ZM180.146 159.912V172.189H178.847V159.912H180.146ZM173.597 160.828C175.415 160.828 176.755 162.496 176.755 165.121C176.755 167.76 175.415 169.428 173.597 169.428C171.751 169.428 170.425 167.76 170.425 165.121C170.425 162.496 171.751 160.828 173.597 160.828ZM173.597 161.99C172.462 161.99 171.683 163.193 171.683 165.121C171.683 167.062 172.462 168.266 173.597 168.266C174.718 168.266 175.497 167.062 175.497 165.121C175.497 163.193 174.718 161.99 173.597 161.99ZM188.13 167.09V168.512H190.044V167.09H191.247V172.012H186.913V167.09H188.13ZM188.13 171H190.044V169.496H188.13V171ZM194.802 168.006C194.802 169.291 195.513 170.59 197.03 171.123L196.36 172.107C195.253 171.684 194.535 170.884 194.159 169.906C193.749 170.863 193.024 171.67 191.972 172.107L191.315 171.123C192.792 170.521 193.517 169.223 193.517 168.006V167.008H194.802V168.006ZM188.909 160.432C190.522 160.432 191.767 161.348 192.04 162.715H194.433V159.912H195.731V166.406H194.433V163.781H192.054C191.787 165.189 190.536 166.105 188.909 166.105C187.036 166.105 185.696 164.957 185.696 163.262C185.696 161.594 187.036 160.432 188.909 160.432ZM188.909 161.512C187.747 161.512 186.94 162.223 186.94 163.262C186.94 164.314 187.747 165.039 188.909 165.053C190.044 165.039 190.851 164.314 190.851 163.262C190.851 162.223 190.044 161.512 188.909 161.512ZM200.94 160.828C202.602 160.828 203.818 162.236 204.017 164.506H206.546V159.912H207.831V172.189H206.546V165.559H204.03C203.887 167.944 202.643 169.428 200.94 169.428C199.108 169.428 197.823 167.76 197.837 165.121C197.823 162.496 199.108 160.828 200.94 160.828ZM200.94 161.99C199.833 161.99 199.067 163.193 199.067 165.121C199.067 167.062 199.833 168.266 200.94 168.266C202.048 168.266 202.813 167.062 202.813 165.121C202.813 163.193 202.048 161.99 200.94 161.99ZM220.929 169.551V170.631H209.718V169.551H212.397V166.352C211.393 165.798 210.784 164.916 210.784 163.822C210.784 161.895 212.671 160.623 215.296 160.623C217.935 160.623 219.821 161.895 219.821 163.822C219.821 164.902 219.233 165.771 218.249 166.324V169.551H220.929ZM215.296 161.662C213.368 161.662 212.042 162.496 212.042 163.822C212.042 165.135 213.368 165.996 215.296 165.996C217.21 165.996 218.563 165.135 218.563 163.822C218.563 162.496 217.21 161.662 215.296 161.662ZM213.683 169.551H216.937V166.816C216.438 166.946 215.884 167.008 215.296 167.008C214.722 167.008 214.175 166.946 213.683 166.83V169.551ZM56.0527 184.678V185.758C56.0527 186.92 56.0527 188.178 55.7109 189.928H57.4746V190.994H52.5117V196.176H51.1992V190.994H46.3047V189.928H54.3984C54.7676 188.185 54.7676 186.899 54.7676 185.758V185.744H47.6719V184.678H56.0527ZM68.9453 183.912V196.162H67.7012V189.777H66.1836V195.561H64.9531V184.145H66.1836V188.711H67.7012V183.912H68.9453ZM63.5723 185.293V192.936H58.8145V185.293H63.5723ZM60.0449 186.318V191.896H62.3555V186.318H60.0449ZM85.1328 193.551V194.631H73.9219V193.551H76.6016V190.352C75.5967 189.798 74.9883 188.916 74.9883 187.822C74.9883 185.895 76.875 184.623 79.5 184.623C82.1387 184.623 84.0254 185.895 84.0254 187.822C84.0254 188.902 83.4375 189.771 82.4531 190.324V193.551H85.1328ZM79.5 185.662C77.5723 185.662 76.2461 186.496 76.2461 187.822C76.2461 189.135 77.5723 189.996 79.5 189.996C81.4141 189.996 82.7676 189.135 82.7676 187.822C82.7676 186.496 81.4141 185.662 79.5 185.662ZM77.8867 193.551H81.1406V190.816C80.6416 190.946 80.0879 191.008 79.5 191.008C78.9258 191.008 78.3789 190.946 77.8867 190.83V193.551ZM90.3145 186.523C90.3145 187.959 91.5039 189.312 93.3633 189.832L92.748 190.844C91.333 190.44 90.2598 189.565 89.6992 188.438C89.166 189.702 88.0996 190.7 86.6367 191.158L86.0215 190.16C87.8809 189.559 89.0293 188.096 89.0293 186.523V186.373H86.3633V185.334H89.0293V183.857H90.3281V185.334H92.9805V186.373H90.3145V186.523ZM96.2344 183.912V191.336H94.9355V188.41H92.5977V187.344H94.9355V183.912H96.2344ZM92.1328 191.609C94.6895 191.609 96.2754 192.43 96.2754 193.865C96.2754 195.314 94.6895 196.148 92.1328 196.135C89.5625 196.148 87.9766 195.314 87.9902 193.865C87.9766 192.43 89.5625 191.609 92.1328 191.609ZM92.1328 192.621C90.3418 192.621 89.2754 193.072 89.2754 193.865C89.2754 194.658 90.3418 195.137 92.1328 195.137C93.9375 195.137 94.9902 194.658 94.9902 193.865C94.9902 193.072 93.9375 192.621 92.1328 192.621ZM103.699 184.117C106.461 184.117 108.074 184.855 108.074 186.223C108.074 187.59 106.461 188.342 103.699 188.342C100.938 188.342 99.3242 187.59 99.3242 186.223C99.3242 184.855 100.938 184.117 103.699 184.117ZM103.699 185.074C101.744 185.074 100.664 185.498 100.678 186.223C100.664 186.975 101.744 187.371 103.699 187.371C105.654 187.371 106.734 186.975 106.734 186.223C106.734 185.498 105.654 185.074 103.699 185.074ZM109.291 189.094V190.133H98.1211V189.094H109.291ZM107.883 191.076V193.947H100.746V195.041H108.225V196.039H99.4746V193.004H106.598V192.047H99.4609V191.076H107.883ZM119.887 184.623C119.887 186.086 121.855 187.494 124.18 187.781L123.701 188.807C121.746 188.52 120.017 187.562 119.23 186.236C118.444 187.569 116.722 188.52 114.76 188.807L114.254 187.781C116.605 187.494 118.561 186.113 118.561 184.623V184.117H119.887V184.623ZM124.809 189.695V190.734H113.639V189.695H124.809ZM119.217 191.773C121.855 191.773 123.441 192.553 123.441 193.961C123.441 195.369 121.855 196.148 119.217 196.162C116.551 196.148 114.965 195.369 114.965 193.961C114.965 192.553 116.551 191.773 119.217 191.773ZM119.217 192.771C117.344 192.771 116.277 193.195 116.277 193.961C116.277 194.74 117.344 195.15 119.217 195.137C121.062 195.15 122.143 194.74 122.143 193.961C122.143 193.195 121.062 192.771 119.217 192.771ZM135.896 183.926V192.826H134.598V183.926H135.896ZM136.266 194.85V195.902H127.885V191.924H129.197V194.85H136.266ZM129.252 184.746C131.098 184.746 132.506 186.004 132.506 187.781C132.506 189.586 131.098 190.83 129.252 190.83C127.406 190.83 125.984 189.586 125.984 187.781C125.984 186.004 127.406 184.746 129.252 184.746ZM129.252 185.881C128.104 185.881 127.256 186.66 127.256 187.781C127.256 188.93 128.104 189.695 129.252 189.695C130.373 189.695 131.234 188.93 131.234 187.781C131.234 186.66 130.373 185.881 129.252 185.881ZM147.381 183.912V188.875H149.35V189.955H147.381V196.162H146.096V183.912H147.381ZM145.029 185.826V186.893H137.77V185.826H140.791V184.076H142.09V185.826H145.029ZM141.447 187.795C143.197 187.795 144.482 188.971 144.496 190.639C144.482 192.32 143.197 193.482 141.447 193.496C139.684 193.482 138.398 192.32 138.398 190.639C138.398 188.971 139.684 187.795 141.447 187.795ZM141.447 188.861C140.408 188.861 139.629 189.586 139.643 190.639C139.629 191.705 140.408 192.416 141.447 192.402C142.486 192.416 143.252 191.705 143.252 190.639C143.252 189.586 142.486 188.861 141.447 188.861ZM159.85 185.088V186.291C159.85 187.809 159.85 189.504 159.385 192.006L158.072 191.869C158.551 189.504 158.551 187.768 158.551 186.291V186.141H151.113V185.088H159.85ZM161.107 193.428V194.508H149.938V193.428H154.189V189.107H155.475V193.428H161.107ZM169.68 185.867C169.68 187.48 170.801 188.971 172.633 189.572L171.936 190.598C170.596 190.126 169.591 189.169 169.064 187.959C168.524 189.333 167.485 190.406 166.057 190.939L165.359 189.9C167.273 189.217 168.381 187.59 168.395 185.758V184.555H169.68V185.867ZM175.08 183.912V186.988H176.857V188.082H175.08V191.309H173.781V183.912H175.08ZM171.129 191.596C173.645 191.596 175.189 192.43 175.189 193.865C175.189 195.314 173.645 196.148 171.129 196.135C168.586 196.148 167.014 195.314 167.014 193.865C167.014 192.43 168.586 191.596 171.129 191.596ZM171.129 192.621C169.352 192.621 168.299 193.086 168.312 193.865C168.299 194.672 169.352 195.109 171.129 195.123C172.893 195.109 173.918 194.672 173.918 193.865C173.918 193.086 172.893 192.621 171.129 192.621ZM188.725 189.777V190.816H183.775V192.129H187.357V196.012H178.895V192.129H182.49V190.816H177.555V189.777H188.725ZM187.672 184.295V185.348H185.895V187.686H187.617V188.738H178.635V187.686H180.371V185.348H178.58V184.295H187.672ZM180.18 193.154V194.959H186.1V193.154H180.18ZM181.656 187.686H184.596V185.348H181.656V187.686ZM195.232 184.117C197.994 184.117 199.607 184.855 199.607 186.223C199.607 187.59 197.994 188.342 195.232 188.342C192.471 188.342 190.857 187.59 190.857 186.223C190.857 184.855 192.471 184.117 195.232 184.117ZM195.232 185.074C193.277 185.074 192.197 185.498 192.211 186.223C192.197 186.975 193.277 187.371 195.232 187.371C197.188 187.371 198.268 186.975 198.268 186.223C198.268 185.498 197.188 185.074 195.232 185.074ZM200.824 189.094V190.133H189.654V189.094H200.824ZM199.416 191.076V193.947H192.279V195.041H199.758V196.039H191.008V193.004H198.131V192.047H190.994V191.076H199.416ZM216.342 190.816V191.869H211.365V196.148H210.094V191.869H205.172V190.816H216.342ZM215.289 184.637V185.676H211.502C211.522 187.193 213.409 188.547 215.727 188.861L215.248 189.887C213.238 189.572 211.502 188.581 210.764 187.18C210.005 188.581 208.275 189.572 206.293 189.887L205.801 188.861C208.091 188.547 209.978 187.193 210.025 185.676H206.211V184.637H215.289ZM228.469 190.105V191.158H223.602V193.537H222.316V191.158H217.258V190.105H228.469ZM227.02 184.486V188.834H218.693V184.486H227.02ZM219.965 185.512V187.809H225.734V185.512H219.965ZM227.225 194.85V195.902H218.652V192.375H219.951V194.85H227.225ZM235.428 185.936V186.988H229.344V185.936H231.75V184.268H233.035V185.936H235.428ZM232.393 187.727C233.951 187.727 235.045 188.889 235.059 190.543C235.045 192.211 233.951 193.387 232.393 193.387C230.861 193.387 229.727 192.211 229.74 190.543C229.727 188.889 230.861 187.727 232.393 187.727ZM232.393 188.807C231.504 188.807 230.889 189.531 230.889 190.543C230.889 191.582 231.504 192.279 232.393 192.279C233.268 192.279 233.91 191.582 233.91 190.543C233.91 189.531 233.268 188.807 232.393 188.807ZM239.857 183.912V196.162H238.627V190.078H237.219V195.588H235.988V184.186H237.219V189.012H238.627V183.912H239.857ZM252.682 193.564V194.645H241.471V193.564H246.406V191.049H242.756V184.746H244.055V186.852H250.07V184.746H251.355V191.049H247.691V193.564H252.682ZM244.055 189.996H250.07V187.904H244.055V189.996ZM257.303 187.262C257.303 189.217 258.123 191.309 259.764 192.307L259.039 193.305C257.891 192.614 257.111 191.391 256.701 189.969C256.243 191.527 255.402 192.854 254.213 193.578L253.406 192.607C255.143 191.568 256.045 189.408 256.045 187.316V185.033H257.303V187.262ZM264.111 183.912V196.162H262.867V183.912H264.111ZM261.568 184.145V195.561H260.338V189.299H258.438V188.219H260.338V184.145H261.568ZM276.881 193.551V194.631H265.67V193.551H268.35V190.352C267.345 189.798 266.736 188.916 266.736 187.822C266.736 185.895 268.623 184.623 271.248 184.623C273.887 184.623 275.773 185.895 275.773 187.822C275.773 188.902 275.186 189.771 274.201 190.324V193.551H276.881ZM271.248 185.662C269.32 185.662 267.994 186.496 267.994 187.822C267.994 189.135 269.32 189.996 271.248 189.996C273.162 189.996 274.516 189.135 274.516 187.822C274.516 186.496 273.162 185.662 271.248 185.662ZM269.635 193.551H272.889V190.816C272.39 190.946 271.836 191.008 271.248 191.008C270.674 191.008 270.127 190.946 269.635 190.83V193.551ZM280.025 185.102L279.902 192.143H278.549L278.426 185.102H280.025ZM279.232 195.096C278.699 195.096 278.248 194.658 278.262 194.125C278.248 193.592 278.699 193.154 279.232 193.154C279.752 193.154 280.203 193.592 280.203 194.125C280.203 194.658 279.752 195.096 279.232 195.096Z" fill="#ABABAB"/>
</svg>
