<svg width="388" height="304" viewBox="0 0 388 304" fill="none" xmlns="http://www.w3.org/2000/svg">
<path d="M56 185.43H332" stroke="#6B6B6B" stroke-width="2.5" stroke-linecap="round"/>
<path d="M258.15 128.694C258.15 145.793 250.675 158.348 238.57 166.676C226.412 175.04 209.512 179.18 190.7 179.18C171.888 179.18 154.988 175.04 142.83 166.676C130.725 158.348 123.25 145.793 123.25 128.694C123.25 94.4259 153.353 66.4805 190.7 66.4805C228.047 66.4805 258.15 94.4259 258.15 128.694Z" fill="#FDF0DF" stroke="#C4C4C4" stroke-width="2.5"/>
<ellipse cx="168.5" cy="103.029" rx="6.3" ry="8.4" fill="#525252"/>
<ellipse cx="212.3" cy="103.029" rx="6.3" ry="8.4" fill="#525252"/>
<ellipse cx="190.4" cy="121.929" rx="4.8" ry="3.3" fill="#FEE8B0"/>
<path d="M183 137.83C186.012 135.281 193.038 132.598 200.4 137.83" stroke="#525252" stroke-width="2" stroke-linecap="round"/>
<path d="M238.719 55.8154C245.194 56.6337 249.155 59.633 253.214 63.1529C253.632 63.515 254.051 63.8835 254.474 64.2558C258.162 67.4963 262.177 71.0247 268.258 73.1765C272.347 74.6235 277.036 75.1909 281.79 75.4654C284.173 75.6029 286.595 75.6677 288.984 75.7277C289.123 75.7312 289.262 75.7346 289.4 75.7381C291.652 75.7944 293.869 75.8499 296.022 75.9607C300.611 76.1969 304.789 76.681 308.203 77.8984C311.571 79.0992 314.117 80.983 315.606 83.9985C318.061 89.9125 317.52 99.8945 310.893 107.39C304.316 114.83 291.489 120.071 268.902 115.909C245.757 111.645 231.914 95.5151 227.136 80.9256C224.739 73.6054 224.674 66.8321 226.673 62.1847C227.664 59.8813 229.151 58.1197 231.102 57.018C233.053 55.9163 235.57 55.4175 238.719 55.8154Z" fill="#C4C4C4" stroke="#C4C4C4" stroke-width="2.5"/>
<path d="M67.4591 102.886L67.4594 102.871V102.856C67.4594 97.2975 69.0984 93.7351 71.6929 91.2869C74.3406 88.7884 78.1266 87.311 82.6912 86.2488C85.7771 85.5306 89.094 85.0258 92.552 84.4994C94.2317 84.2437 95.9446 83.983 97.6804 83.6903C102.925 82.8061 108.284 81.6405 113.095 79.4339C117.453 77.4349 121.377 74.8002 125.042 72.1407C126.19 71.3069 127.307 70.476 128.402 69.6608C130.836 67.8493 133.166 66.1155 135.513 64.6011C138.895 62.4189 142.172 60.7907 145.572 60.1623C148.937 59.5402 152.498 59.8844 156.486 61.7759C159.173 63.0497 160.834 64.664 161.761 66.4725C162.693 68.2874 162.95 70.4244 162.601 72.8515C161.896 77.7615 158.746 83.5918 154.321 89.516C145.512 101.307 132.135 112.838 125.355 117.125C101.116 130.093 86.6118 129.992 78.2975 125.227C69.9707 120.455 67.2726 110.666 67.4591 102.886Z" fill="#C4C4C4" stroke="#C4C4C4" stroke-width="2.5"/>
<path d="M137.991 156.383L137.991 156.383C144.238 153.207 159.58 150.664 177.791 155.845C184.199 158.781 190.757 164.461 189.88 173.447L189.875 173.498L189.875 173.549C189.828 176.52 188.788 181.089 185.535 185.011C182.315 188.891 176.832 192.256 167.661 192.72L167.576 192.725L167.492 192.74C160.006 194.156 152.058 193.324 149.388 192.747L149.258 192.719H149.124C142.22 192.719 137.633 190.519 134.522 187.872C131.384 185.202 129.676 182.016 128.647 179.918C125.738 173.989 126.712 168.858 129.076 164.817C131.475 160.714 135.312 157.745 137.991 156.383Z" fill="#FDF0DF" stroke="#C4C4C4" stroke-width="2.5"/>
<path d="M203.991 156.984L203.991 156.984C210.238 153.808 225.58 151.266 243.791 156.446C250.199 159.383 256.757 165.062 255.88 174.049L255.875 174.1L255.875 174.151C255.828 177.122 254.788 181.691 251.535 185.612C248.315 189.493 242.832 192.857 233.661 193.322L233.576 193.326L233.492 193.342C226.006 194.757 218.058 193.925 215.388 193.348L215.258 193.32H215.124C208.22 193.32 203.633 191.12 200.522 188.474C197.384 185.804 195.676 182.617 194.647 180.52C191.738 174.59 192.712 169.46 195.076 165.418C197.475 161.315 201.312 158.347 203.991 156.984Z" fill="#FDF0DF" stroke="#C4C4C4" stroke-width="2.5"/>
<path d="M211.4 87.4297C212.6 88.5297 216.08 90.9097 220.4 91.6297" stroke="#525252" stroke-width="2" stroke-linecap="round"/>
<path d="M169.4 87.4297C168.2 88.5297 164.72 90.9097 160.4 91.6297" stroke="#525252" stroke-width="2" stroke-linecap="round"/>
<path d="M153.2 9.42891C153.2 12.0799 151.051 14.2289 148.4 14.2289C145.749 14.2289 143.6 12.0799 143.6 9.42891C143.6 6.77794 145.749 4.62891 148.4 4.62891C151.051 4.62891 153.2 6.77794 153.2 9.42891Z" fill="#E0E0E0"/>
<circle cx="191.6" cy="9.42891" r="4.8" fill="#E0E0E0"/>
<circle cx="234.8" cy="9.42891" r="4.8" fill="#E0E0E0"/>
<path d="M125.904 248.254V249.797C125.904 251.457 125.904 253.254 125.416 255.754H127.936V257.277H120.846V264.68H118.971V257.277H111.979V255.754H123.541C124.068 253.264 124.068 251.428 124.068 249.797V249.777H113.932V248.254H125.904ZM144.322 247.16V264.66H142.545V255.539H140.377V263.801H138.619V247.492H140.377V254.016H142.545V247.16H144.322ZM136.646 249.133V260.051H129.85V249.133H136.646ZM131.607 250.598V258.566H134.908V250.598H131.607ZM160.299 247.18V252.805H162.838V254.348H160.299V260.266H158.443V247.18H160.299ZM156.998 249.211V250.715H146.568V249.211H150.865V247.16H152.721V249.211H156.998ZM151.783 251.555C154.303 251.555 156.021 252.863 156.021 254.855C156.021 256.848 154.303 258.137 151.783 258.137C149.244 258.137 147.525 256.848 147.525 254.855C147.525 252.863 149.244 251.555 151.783 251.555ZM151.783 252.98C150.299 252.98 149.303 253.703 149.322 254.855C149.303 255.988 150.299 256.691 151.783 256.691C153.268 256.691 154.264 255.988 154.283 254.855C154.264 253.703 153.268 252.98 151.783 252.98ZM161.041 262.785V264.289H149.205V259.23H151.061V262.785H161.041ZM183.697 247.16V264.66H181.92V255.695H179.674V263.762H177.936V247.512H179.674V254.172H181.92V247.16H183.697ZM171.393 249.23V258.566C173.014 258.557 174.781 258.43 176.764 258.039L176.959 259.66C174.557 260.09 172.545 260.207 170.67 260.207H169.537V249.23H171.393ZM200.592 258.391V264.66H198.736V259.855H188.736V258.391H200.592ZM200.592 247.16V257.473H198.736V255.07H194.42C193.609 256.027 192.33 256.604 190.846 256.594C188.209 256.613 186.256 254.855 186.256 252.355C186.256 249.895 188.209 248.117 190.846 248.137C192.33 248.127 193.6 248.703 194.42 249.66H198.736V247.16H200.592ZM190.846 249.699C189.205 249.699 188.033 250.793 188.033 252.355C188.033 253.957 189.205 255.031 190.846 255.031C192.428 255.031 193.619 253.957 193.619 252.355C193.619 250.793 192.428 249.699 190.846 249.699ZM195.24 253.547H198.736V251.184H195.24C195.338 251.555 195.396 251.945 195.396 252.355C195.396 252.775 195.338 253.176 195.24 253.547ZM217.779 247.16V264.699H215.924V247.16H217.779ZM208.424 248.469C211.021 248.469 212.936 250.852 212.936 254.602C212.936 258.371 211.021 260.754 208.424 260.754C205.787 260.754 203.893 258.371 203.893 254.602C203.893 250.852 205.787 248.469 208.424 248.469ZM208.424 250.129C206.803 250.129 205.689 251.848 205.689 254.602C205.689 257.375 206.803 259.094 208.424 259.094C210.025 259.094 211.139 257.375 211.139 254.602C211.139 251.848 210.025 250.129 208.424 250.129ZM229.186 257.414V259.445H231.92V257.414H233.639V264.445H227.447V257.414H229.186ZM229.186 263H231.92V260.852H229.186V263ZM238.717 258.723C238.717 260.559 239.732 262.414 241.9 263.176L240.943 264.582C239.361 263.977 238.336 262.834 237.799 261.438C237.213 262.805 236.178 263.957 234.674 264.582L233.736 263.176C235.846 262.316 236.881 260.461 236.881 258.723V257.297H238.717V258.723ZM230.299 247.902C232.604 247.902 234.381 249.211 234.771 251.164H238.189V247.16H240.045V256.438H238.189V252.688H234.791C234.41 254.699 232.623 256.008 230.299 256.008C227.623 256.008 225.709 254.367 225.709 251.945C225.709 249.562 227.623 247.902 230.299 247.902ZM230.299 249.445C228.639 249.445 227.486 250.461 227.486 251.945C227.486 253.449 228.639 254.484 230.299 254.504C231.92 254.484 233.072 253.449 233.072 251.945C233.072 250.461 231.92 249.445 230.299 249.445ZM247.486 248.469C249.859 248.469 251.598 250.48 251.881 253.723H255.494V247.16H257.33V264.699H255.494V255.227H251.9C251.695 258.635 249.918 260.754 247.486 260.754C244.869 260.754 243.033 258.371 243.053 254.602C243.033 250.852 244.869 248.469 247.486 248.469ZM247.486 250.129C245.904 250.129 244.811 251.848 244.811 254.602C244.811 257.375 245.904 259.094 247.486 259.094C249.068 259.094 250.162 257.375 250.162 254.602C250.162 251.848 249.068 250.129 247.486 250.129ZM276.041 260.93V262.473H260.025V260.93H263.854V256.359C262.418 255.568 261.549 254.309 261.549 252.746C261.549 249.992 264.244 248.176 267.994 248.176C271.764 248.176 274.459 249.992 274.459 252.746C274.459 254.289 273.619 255.529 272.213 256.32V260.93H276.041ZM267.994 249.66C265.24 249.66 263.346 250.852 263.346 252.746C263.346 254.621 265.24 255.852 267.994 255.852C270.729 255.852 272.662 254.621 272.662 252.746C272.662 250.852 270.729 249.66 267.994 249.66ZM265.689 260.93H270.338V257.023C269.625 257.209 268.834 257.297 267.994 257.297C267.174 257.297 266.393 257.209 265.689 257.043V260.93ZM40.5039 280.254V281.797C40.5039 283.457 40.5039 285.254 40.0156 287.754H42.5352V289.277H35.4453V296.68H33.5703V289.277H26.5781V287.754H38.1406C38.668 285.264 38.668 283.428 38.668 281.797V281.777H28.5312V280.254H40.5039ZM58.9219 279.16V296.66H57.1445V287.539H54.9766V295.801H53.2188V279.492H54.9766V286.016H57.1445V279.16H58.9219ZM51.2461 281.133V292.051H44.4492V281.133H51.2461ZM46.207 282.598V290.566H49.5078V282.598H46.207ZM82.0469 292.93V294.473H66.0312V292.93H69.8594V288.359C68.4238 287.568 67.5547 286.309 67.5547 284.746C67.5547 281.992 70.25 280.176 74 280.176C77.7695 280.176 80.4648 281.992 80.4648 284.746C80.4648 286.289 79.625 287.529 78.2188 288.32V292.93H82.0469ZM74 281.66C71.2461 281.66 69.3516 282.852 69.3516 284.746C69.3516 286.621 71.2461 287.852 74 287.852C76.7344 287.852 78.668 286.621 78.668 284.746C78.668 282.852 76.7344 281.66 74 281.66ZM71.6953 292.93H76.3438V289.023C75.6309 289.209 74.8398 289.297 74 289.297C73.1797 289.297 72.3984 289.209 71.6953 289.043V292.93ZM89.4492 282.891C89.4492 284.941 91.1484 286.875 93.8047 287.617L92.9258 289.062C90.9043 288.486 89.3711 287.236 88.5703 285.625C87.8086 287.432 86.2852 288.857 84.1953 289.512L83.3164 288.086C85.9727 287.227 87.6133 285.137 87.6133 282.891V282.676H83.8047V281.191H87.6133V279.082H89.4688V281.191H93.2578V282.676H89.4492V282.891ZM97.9062 279.16V289.766H96.0508V285.586H92.7109V284.062H96.0508V279.16H97.9062ZM92.0469 290.156C95.6992 290.156 97.9648 291.328 97.9648 293.379C97.9648 295.449 95.6992 296.641 92.0469 296.621C88.375 296.641 86.1094 295.449 86.1289 293.379C86.1094 291.328 88.375 290.156 92.0469 290.156ZM92.0469 291.602C89.4883 291.602 87.9648 292.246 87.9648 293.379C87.9648 294.512 89.4883 295.195 92.0469 295.195C94.625 295.195 96.1289 294.512 96.1289 293.379C96.1289 292.246 94.625 291.602 92.0469 291.602ZM108.57 279.453C112.516 279.453 114.82 280.508 114.82 282.461C114.82 284.414 112.516 285.488 108.57 285.488C104.625 285.488 102.32 284.414 102.32 282.461C102.32 280.508 104.625 279.453 108.57 279.453ZM108.57 280.82C105.777 280.82 104.234 281.426 104.254 282.461C104.234 283.535 105.777 284.102 108.57 284.102C111.363 284.102 112.906 283.535 112.906 282.461C112.906 281.426 111.363 280.82 108.57 280.82ZM116.559 286.562V288.047H100.602V286.562H116.559ZM114.547 289.395V293.496H104.352V295.059H115.035V296.484H102.535V292.148H112.711V290.781H102.516V289.395H114.547ZM131.695 280.176C131.695 282.266 134.508 284.277 137.828 284.688L137.145 286.152C134.352 285.742 131.881 284.375 130.758 282.48C129.635 284.385 127.174 285.742 124.371 286.152L123.648 284.688C127.008 284.277 129.801 282.305 129.801 280.176V279.453H131.695V280.176ZM138.727 287.422V288.906H122.77V287.422H138.727ZM130.738 290.391C134.508 290.391 136.773 291.504 136.773 293.516C136.773 295.527 134.508 296.641 130.738 296.66C126.93 296.641 124.664 295.527 124.664 293.516C124.664 291.504 126.93 290.391 130.738 290.391ZM130.738 291.816C128.062 291.816 126.539 292.422 126.539 293.516C126.539 294.629 128.062 295.215 130.738 295.195C133.375 295.215 134.918 294.629 134.918 293.516C134.918 292.422 133.375 291.816 130.738 291.816ZM154.566 279.18V291.895H152.711V279.18H154.566ZM155.094 294.785V296.289H143.121V290.605H144.996V294.785H155.094ZM145.074 280.352C147.711 280.352 149.723 282.148 149.723 284.688C149.723 287.266 147.711 289.043 145.074 289.043C142.438 289.043 140.406 287.266 140.406 284.688C140.406 282.148 142.438 280.352 145.074 280.352ZM145.074 281.973C143.434 281.973 142.223 283.086 142.223 284.688C142.223 286.328 143.434 287.422 145.074 287.422C146.676 287.422 147.906 286.328 147.906 284.688C147.906 283.086 146.676 281.973 145.074 281.973ZM170.973 279.16V286.25H173.785V287.793H170.973V296.66H169.137V279.16H170.973ZM167.613 281.895V283.418H157.242V281.895H161.559V279.395H163.414V281.895H167.613ZM162.496 284.707C164.996 284.707 166.832 286.387 166.852 288.77C166.832 291.172 164.996 292.832 162.496 292.852C159.977 292.832 158.141 291.172 158.141 288.77C158.141 286.387 159.977 284.707 162.496 284.707ZM162.496 286.23C161.012 286.23 159.898 287.266 159.918 288.77C159.898 290.293 161.012 291.309 162.496 291.289C163.98 291.309 165.074 290.293 165.074 288.77C165.074 287.266 163.98 286.23 162.496 286.23ZM188.785 280.84V282.559C188.785 284.727 188.785 287.148 188.121 290.723L186.246 290.527C186.93 287.148 186.93 284.668 186.93 282.559V282.344H176.305V280.84H188.785ZM190.582 292.754V294.297H174.625V292.754H180.699V286.582H182.535V292.754H190.582ZM202.828 281.953C202.828 284.258 204.43 286.387 207.047 287.246L206.051 288.711C204.137 288.037 202.701 286.67 201.949 284.941C201.178 286.904 199.693 288.438 197.652 289.199L196.656 287.715C199.391 286.738 200.973 284.414 200.992 281.797V280.078H202.828V281.953ZM210.543 279.16V283.555H213.082V285.117H210.543V289.727H208.688V279.16H210.543ZM204.898 290.137C208.492 290.137 210.699 291.328 210.699 293.379C210.699 295.449 208.492 296.641 204.898 296.621C201.266 296.641 199.02 295.449 199.02 293.379C199.02 291.328 201.266 290.137 204.898 290.137ZM204.898 291.602C202.359 291.602 200.855 292.266 200.875 293.379C200.855 294.531 202.359 295.156 204.898 295.176C207.418 295.156 208.883 294.531 208.883 293.379C208.883 292.266 207.418 291.602 204.898 291.602ZM230.035 287.539V289.023H222.965V290.898H228.082V296.445H215.992V290.898H221.129V289.023H214.078V287.539H230.035ZM228.531 279.707V281.211H225.992V284.551H228.453V286.055H215.621V284.551H218.102V281.211H215.543V279.707H228.531ZM217.828 292.363V294.941H226.285V292.363H217.828ZM219.938 284.551H224.137V281.211H219.938V284.551ZM239.332 279.453C243.277 279.453 245.582 280.508 245.582 282.461C245.582 284.414 243.277 285.488 239.332 285.488C235.387 285.488 233.082 284.414 233.082 282.461C233.082 280.508 235.387 279.453 239.332 279.453ZM239.332 280.82C236.539 280.82 234.996 281.426 235.016 282.461C234.996 283.535 236.539 284.102 239.332 284.102C242.125 284.102 243.668 283.535 243.668 282.461C243.668 281.426 242.125 280.82 239.332 280.82ZM247.32 286.562V288.047H231.363V286.562H247.32ZM245.309 289.395V293.496H235.113V295.059H245.797V296.484H233.297V292.148H243.473V290.781H233.277V289.395H245.309ZM269.488 289.023V290.527H262.379V296.641H260.562V290.527H253.531V289.023H269.488ZM267.984 280.195V281.68H262.574C262.604 283.848 265.299 285.781 268.609 286.23L267.926 287.695C265.055 287.246 262.574 285.83 261.52 283.828C260.436 285.83 257.965 287.246 255.133 287.695L254.43 286.23C257.701 285.781 260.396 283.848 260.465 281.68H255.016V280.195H267.984ZM286.812 288.008V289.512H279.859V292.91H278.023V289.512H270.797V288.008H286.812ZM284.742 279.98V286.191H272.848V279.98H284.742ZM274.664 281.445V284.727H282.906V281.445H274.664ZM285.035 294.785V296.289H272.789V291.25H274.645V294.785H285.035ZM296.754 282.051V283.555H288.062V282.051H291.5V279.668H293.336V282.051H296.754ZM292.418 284.609C294.645 284.609 296.207 286.27 296.227 288.633C296.207 291.016 294.645 292.695 292.418 292.695C290.23 292.695 288.609 291.016 288.629 288.633C288.609 286.27 290.23 284.609 292.418 284.609ZM292.418 286.152C291.148 286.152 290.27 287.188 290.27 288.633C290.27 290.117 291.148 291.113 292.418 291.113C293.668 291.113 294.586 290.117 294.586 288.633C294.586 287.188 293.668 286.152 292.418 286.152ZM303.082 279.16V296.66H301.324V287.969H299.312V295.84H297.555V279.551H299.312V286.445H301.324V279.16H303.082ZM321.402 292.949V294.492H305.387V292.949H312.438V289.355H307.223V280.352H309.078V283.359H317.672V280.352H319.508V289.355H314.273V292.949H321.402ZM309.078 287.852H317.672V284.863H309.078V287.852ZM328.004 283.945C328.004 286.738 329.176 289.727 331.52 291.152L330.484 292.578C328.844 291.592 327.73 289.844 327.145 287.812C326.49 290.039 325.289 291.934 323.59 292.969L322.438 291.582C324.918 290.098 326.207 287.012 326.207 284.023V280.762H328.004V283.945ZM337.73 279.16V296.66H335.953V279.16H337.73ZM334.098 279.492V295.801H332.34V286.855H329.625V285.312H332.34V279.492H334.098ZM355.973 292.93V294.473H339.957V292.93H343.785V288.359C342.35 287.568 341.48 286.309 341.48 284.746C341.48 281.992 344.176 280.176 347.926 280.176C351.695 280.176 354.391 281.992 354.391 284.746C354.391 286.289 353.551 287.529 352.145 288.32V292.93H355.973ZM347.926 281.66C345.172 281.66 343.277 282.852 343.277 284.746C343.277 286.621 345.172 287.852 347.926 287.852C350.66 287.852 352.594 286.621 352.594 284.746C352.594 282.852 350.66 281.66 347.926 281.66ZM345.621 292.93H350.27V289.023C349.557 289.209 348.766 289.297 347.926 289.297C347.105 289.297 346.324 289.209 345.621 289.043V292.93ZM360.465 280.859L360.289 290.918H358.355L358.18 280.859H360.465ZM359.332 295.137C358.57 295.137 357.926 294.512 357.945 293.75C357.926 292.988 358.57 292.363 359.332 292.363C360.074 292.363 360.719 292.988 360.719 293.75C360.719 294.512 360.074 295.137 359.332 295.137Z" fill="#ABABAB"/>
</svg>
