<svg width="375" height="318" viewBox="0 0 375 318" fill="none" xmlns="http://www.w3.org/2000/svg">
<mask id="path-1-outside-1_1_10911" maskUnits="userSpaceOnUse" x="156.52" y="2.69922" width="62" height="67" fill="black">
<rect fill="white" x="156.52" y="2.69922" width="62" height="67"/>
<path fill-rule="evenodd" clip-rule="evenodd" d="M190.288 62.5268C204.985 61.1235 216.48 48.7437 216.48 33.6792C216.48 17.674 203.505 4.69922 187.5 4.69922C171.494 4.69922 158.52 17.674 158.52 33.6792C158.52 48.6906 169.933 61.0362 184.555 62.5115L187.053 67.2999C187.21 67.6009 187.641 67.6009 187.798 67.2999L190.288 62.5268Z"/>
</mask>
<path fill-rule="evenodd" clip-rule="evenodd" d="M190.288 62.5268C204.985 61.1235 216.48 48.7437 216.48 33.6792C216.48 17.674 203.505 4.69922 187.5 4.69922C171.494 4.69922 158.52 17.674 158.52 33.6792C158.52 48.6906 169.933 61.0362 184.555 62.5115L187.053 67.2999C187.21 67.6009 187.641 67.6009 187.798 67.2999L190.288 62.5268Z" fill="#FDF0DF"/>
<path d="M190.288 62.5268L190.129 60.8544L189.221 60.9411L188.799 61.7496L190.288 62.5268ZM184.555 62.5115L186.045 61.7345L185.626 60.931L184.724 60.84L184.555 62.5115ZM187.053 67.2999L188.543 66.5229H188.543L187.053 67.2999ZM187.798 67.2999L186.309 66.5228L186.309 66.5228L187.798 67.2999ZM214.8 33.6792C214.8 47.8694 203.972 59.5326 190.129 60.8544L190.448 64.1992C205.999 62.7143 218.16 49.6179 218.16 33.6792H214.8ZM187.5 6.37922C202.577 6.37922 214.8 18.6018 214.8 33.6792H218.16C218.16 16.7462 204.433 3.01922 187.5 3.01922V6.37922ZM160.2 33.6792C160.2 18.6018 172.422 6.37922 187.5 6.37922V3.01922C170.566 3.01922 156.84 16.7462 156.84 33.6792H160.2ZM184.724 60.84C170.951 59.4504 160.2 47.8193 160.2 33.6792H156.84C156.84 49.5618 168.915 62.622 184.387 64.183L184.724 60.84ZM188.543 66.5229L186.045 61.7345L183.066 63.2885L185.564 68.0769L188.543 66.5229ZM186.309 66.5228C186.78 65.6199 188.072 65.6199 188.543 66.5229L185.564 68.0769C186.349 69.5818 188.502 69.5819 189.288 68.077L186.309 66.5228ZM188.799 61.7496L186.309 66.5228L189.288 68.077L191.778 63.3039L188.799 61.7496Z" fill="#FEE2CE" mask="url(#path-1-outside-1_1_10911)"/>
<path d="M170.279 25.6992L171.512 26.9321C172.272 27.692 173.447 27.8493 174.38 27.3161L174.694 27.1365C175.329 26.7739 176.118 26.8231 176.702 27.2616V27.2616C177.155 27.6008 177.738 27.7122 178.284 27.5634L181.24 26.7573C181.744 26.6197 182.284 26.7228 182.702 27.0366L182.833 27.1348C183.358 27.5285 184.08 27.5285 184.605 27.1348V27.1348C185.085 26.7747 185.736 26.7411 186.251 27.05L186.799 27.3792C187.223 27.6332 187.758 27.6056 188.152 27.3094L188.487 27.0582C188.863 26.7764 189.399 26.8681 189.659 27.2589V27.2589C189.87 27.5754 190.271 27.7048 190.627 27.5712L192.188 26.9861C192.948 26.7011 193.792 26.7454 194.518 27.1084L194.772 27.2357C195.482 27.5905 196.317 27.5905 197.026 27.2357L197.571 26.9635C198.091 26.7035 198.713 26.7596 199.178 27.1084V27.1084C199.724 27.5178 200.475 27.5178 201.02 27.1084V27.1084C201.485 26.7596 202.108 26.7035 202.628 26.9635L204.299 27.7992" stroke="#FCC49C" stroke-width="1.26"/>
<path d="M170.279 32.4199L171.512 33.6528C172.272 34.4127 173.447 34.57 174.38 34.0368L174.694 33.8572C175.329 33.4947 176.118 33.5438 176.702 33.9823V33.9823C177.155 34.3215 177.738 34.4329 178.284 34.2841L181.24 33.478C181.744 33.3404 182.284 33.4435 182.702 33.7573L182.833 33.8556C183.358 34.2493 184.08 34.2493 184.605 33.8556V33.8556C185.085 33.4954 185.736 33.4618 186.251 33.7707L186.799 34.0999C187.223 34.3539 187.758 34.3263 188.152 34.0301L188.487 33.7789C188.863 33.4971 189.399 33.5888 189.659 33.9796V33.9796C189.87 34.2961 190.271 34.4255 190.627 34.2919L193.379 33.2599" stroke="#FCC49C" stroke-width="1.26"/>
<path d="M170.279 39.1387L171.512 40.3716C172.272 41.1315 173.447 41.2888 174.38 40.7556L174.694 40.576C175.329 40.2134 176.118 40.2625 176.702 40.701V40.701C177.155 41.0402 177.738 41.1517 178.284 41.0029L181.24 40.1968C181.744 40.0592 182.284 40.1622 182.702 40.476L182.833 40.5743C183.358 40.968 184.08 40.968 184.605 40.5743V40.5743C185.085 40.2141 185.736 40.1806 186.251 40.4894L186.799 40.8186C187.223 41.0726 187.758 41.045 188.152 40.7488L188.487 40.4977C188.863 40.2158 189.399 40.3075 189.659 40.6984V40.6984C189.87 41.0148 190.271 41.1442 190.627 41.0107L192.188 40.4255C192.948 40.1406 193.792 40.1849 194.518 40.5478L194.772 40.6752C195.482 41.0299 196.317 41.0299 197.026 40.6752V40.6752C197.88 40.2483 198.902 40.3404 199.665 40.9131L200.099 41.2387" stroke="#FCC49C" stroke-width="1.26"/>
<path d="M233.912 124.967C233.912 136.962 228.85 145.762 220.671 151.592C212.458 157.446 201.045 160.343 188.342 160.343C175.638 160.343 164.225 157.446 156.012 151.592C147.834 145.762 142.772 136.962 142.772 124.967C142.772 100.931 163.139 81.383 188.342 81.383C213.544 81.383 233.912 100.931 233.912 124.967Z" fill="#FDF0DF" stroke="#C4C4C4" stroke-width="1.68"/>
<ellipse cx="171.961" cy="106.9" rx="4.41" ry="5.88" fill="#525252"/>
<ellipse cx="202.621" cy="106.9" rx="4.41" ry="5.88" fill="#525252"/>
<ellipse cx="185.19" cy="118.451" rx="3.36" ry="2.31" fill="#FEE8B0"/>
<ellipse cx="185.186" cy="130.839" rx="3.36" ry="4.2" fill="#525252"/>
<mask id="mask0_1_10911" style="mask-type:alpha" maskUnits="userSpaceOnUse" x="181" y="126" width="8" height="10">
<ellipse cx="185.186" cy="130.839" rx="3.36" ry="4.2" fill="#525252"/>
</mask>
<g mask="url(#mask0_1_10911)">
<ellipse cx="185.186" cy="135.639" rx="3.36" ry="4.2" fill="#FFBDE8"/>
</g>
<path d="M219.019 78.9587C223.562 79.5329 226.341 81.6381 229.184 84.1032C229.476 84.3568 229.77 84.6148 230.066 84.8754C232.648 87.1439 235.453 89.6093 239.703 91.1132C242.561 92.1244 245.839 92.5214 249.166 92.7135C250.833 92.8097 252.529 92.8551 254.2 92.897C254.298 92.8995 254.395 92.9019 254.492 92.9043C256.068 92.9438 257.621 92.9826 259.128 93.0602C262.341 93.2255 265.27 93.5646 267.665 94.4186C270.029 95.2614 271.82 96.5854 272.867 98.7071C274.591 102.859 274.211 109.861 269.562 115.119C264.947 120.339 255.954 124.008 240.136 121.094C223.92 118.106 214.221 106.805 210.873 96.5815C209.194 91.4526 209.146 86.7019 210.55 83.4381C211.246 81.8199 212.292 80.5803 213.665 79.8048C215.039 79.0292 216.808 78.6794 219.019 78.9587Z" fill="#C4C4C4" stroke="#C4C4C4" stroke-width="1.68"/>
<path d="M118.835 98.6117L118.836 98.6016V98.5915C118.836 95.4545 119.762 93.4624 121.213 92.0968C122.701 90.6971 124.837 89.8619 127.437 89.2585C129.195 88.8506 131.082 88.5643 133.054 88.265C134.014 88.1193 134.995 87.9705 135.991 87.803C138.989 87.299 142.063 86.6331 144.826 85.3694C147.327 84.2258 149.577 82.7196 151.672 81.2035C152.331 80.7266 152.97 80.2522 153.596 79.7874C154.985 78.7571 156.31 77.7738 157.647 76.9137C159.572 75.6748 161.428 74.7572 163.347 74.4036C165.243 74.0542 167.25 74.2463 169.505 75.3127C171.02 76.0289 171.945 76.9307 172.46 77.9305C172.976 78.9345 173.123 80.1228 172.927 81.4854C172.528 84.2484 170.746 87.5472 168.221 90.9166C163.201 97.617 155.576 104.171 151.715 106.606C137.884 113.983 129.652 113.9 124.962 111.22C120.264 108.535 118.729 103.019 118.835 98.6117Z" fill="#C4C4C4" stroke="#C4C4C4" stroke-width="1.68"/>
<path d="M204.512 96.4005C203.882 95.882 202.16 95.0671 200.312 95.9561" stroke="#525252" stroke-width="1.26" stroke-linecap="round"/>
<path d="M169.65 96.4005C170.28 95.882 172.002 95.0671 173.85 95.9561" stroke="#525252" stroke-width="1.26" stroke-linecap="round"/>
<path d="M155.23 147.278C154.67 151.655 152.352 155.418 149.188 157.661C146.037 159.894 142.052 160.623 138.056 158.972C127.472 154.6 119.169 147.817 113.185 141.225C107.421 134.874 110.309 125.282 118.225 121.253L118.897 120.911C126.475 117.055 134.282 118.181 140.844 123.659C144.225 126.481 148.14 130.138 151.065 134.153C154.004 138.187 155.848 142.452 155.326 146.53L155.23 147.278Z" fill="#FDF0DF" stroke="#C4C4C4" stroke-width="1.68"/>
<path d="M102.633 118.57L108.312 117.048L113.992 115.527L124.428 154.473C121.447 157.427 117.127 158.585 113.068 157.516L102.633 118.57Z" fill="#F97B22"/>
<path d="M111.873 153.055C115.869 153.121 119.804 152.066 123.232 150.011L123.834 152.258C120.455 154.425 116.485 155.489 112.475 155.302L111.873 153.055Z" fill="#FEF3EB"/>
<path d="M113.992 115.527L102.633 118.571L105.728 110.063C105.928 109.515 106.611 109.332 107.058 109.707L113.992 115.527Z" fill="#FEE2CE"/>
<path d="M109.442 111.528L104.574 112.833L105.626 109.723C105.818 109.155 106.526 108.965 106.976 109.361L109.442 111.528Z" fill="black"/>
<path d="M121.013 143.537C119.98 144.062 119.589 145.339 120.151 146.352L151.806 203.367C152.339 204.328 153.538 204.695 154.518 204.197L196.768 182.751C197.797 182.228 198.19 180.957 197.634 179.945L166.267 122.785C165.737 121.817 164.534 121.446 163.55 121.945L121.013 143.537Z" fill="#ABABAB" stroke="#C4C4C4" stroke-width="1.4"/>
<path d="M120.763 146.012C120.393 145.346 120.65 144.506 121.33 144.162L161.803 123.617C162.449 123.289 163.239 123.532 163.588 124.167L195.07 181.269C195.437 181.935 195.179 182.773 194.501 183.117L154.201 203.573C153.557 203.9 152.769 203.659 152.418 203.027L120.763 146.012Z" fill="#C4C4C4"/>
<path d="M120.761 146.012C120.392 145.346 120.65 144.507 121.328 144.162L159.739 124.665C160.384 124.338 161.173 124.579 161.523 125.212L193.118 182.257C193.487 182.923 193.23 183.762 192.551 184.106L154.14 203.604C153.495 203.931 152.707 203.689 152.356 203.057L120.761 146.012Z" fill="#E0E0E0"/>
<path d="M133.806 131.75C131.977 132.678 131.386 135.006 132.551 136.694L134.71 139.826C135.673 141.222 137.52 141.691 139.033 140.923L152.306 134.185C154.142 133.253 154.729 130.913 153.551 129.225L151.372 126.103C150.405 124.719 148.567 124.257 147.061 125.022L133.806 131.75Z" fill="white" stroke="#C4C4C4" stroke-width="1.4"/>
<path d="M224.109 154.855C223.549 150.478 221.231 146.714 218.067 144.472C214.916 142.239 210.931 141.51 206.935 143.161C196.351 147.533 188.048 154.316 182.064 160.908C176.3 167.258 179.187 176.851 187.104 180.879L187.776 181.222C195.354 185.078 203.16 183.952 209.723 178.473C213.104 175.651 217.019 171.995 219.944 167.979C222.882 163.946 224.727 159.68 224.205 155.603L224.109 154.855Z" fill="#FDF0DF" stroke="#C4C4C4" stroke-width="1.68"/>
<path d="M125.799 239.834C128.189 239.834 129.912 242.014 129.93 245.441C129.912 248.896 128.189 251.066 125.799 251.066C123.382 251.066 121.659 248.896 121.668 245.441C121.659 242.014 123.382 239.834 125.799 239.834ZM123.549 245.441C123.54 247.885 124.463 249.3 125.799 249.309C127.144 249.3 128.04 247.885 128.049 245.441C128.04 243.016 127.144 241.592 125.799 241.592C124.463 241.592 123.54 243.016 123.549 245.441ZM132.021 254.564V238.674H133.973V244.773H136.416V246.426H133.973V254.564H132.021ZM143.113 241.434C143.113 243.394 144.467 245.354 146.998 246.145L145.996 247.656C144.194 247.076 142.885 245.881 142.155 244.369C141.443 246.013 140.09 247.322 138.209 247.955L137.207 246.443C139.765 245.582 141.127 243.517 141.145 241.434V241.24H137.717V239.676H146.453V241.24H143.113V241.434ZM139.475 250.574V248.992H150.32V254.564H148.352V250.574H139.475ZM148.352 248.254V238.674H150.32V248.254H148.352ZM170.148 238.674V254.564H168.197V238.674H170.148ZM156.982 250.152C158.248 250.144 159.681 250.144 161.184 250.1V248.641C159.399 248.359 158.23 247.27 158.23 245.758C158.23 243.965 159.821 242.778 162.133 242.77C164.471 242.778 166.088 243.965 166.088 245.758C166.088 247.261 164.919 248.342 163.135 248.632V250.029C164.532 249.968 165.938 249.854 167.266 249.678L167.406 251.137C163.917 251.726 160.12 251.77 157.264 251.77L156.982 250.152ZM157.316 242.049V240.502H161.184V238.727H163.135V240.502H166.984V242.049H157.316ZM160.094 245.758C160.076 246.672 160.929 247.208 162.133 247.199C163.372 247.208 164.216 246.672 164.207 245.758C164.216 244.835 163.372 244.272 162.133 244.264C160.929 244.272 160.076 244.835 160.094 245.758ZM185.793 238.691V250.715H183.824V249.326H180.713V247.955H183.824V238.691H185.793ZM172.398 245.828C175.325 245.811 179.271 245.784 182.646 245.354L182.752 246.76C181.442 246.979 180.089 247.12 178.744 247.217V250.275H176.793V247.322C175.308 247.384 173.893 247.393 172.645 247.393L172.398 245.828ZM173.611 242.084C173.611 240.405 175.229 239.263 177.584 239.271C179.896 239.263 181.521 240.405 181.539 242.084C181.521 243.789 179.896 244.87 177.584 244.879C175.229 244.87 173.611 243.789 173.611 242.084ZM174.508 254.248V249.555H176.459V252.666H186.162V254.248H174.508ZM175.457 242.084C175.457 242.945 176.31 243.446 177.584 243.455C178.797 243.446 179.667 242.945 179.676 242.084C179.667 241.223 178.797 240.704 177.584 240.713C176.31 240.704 175.457 241.223 175.457 242.084ZM201.244 238.674V254.582H199.275V238.674H201.244ZM188.535 245.441C188.526 242.014 190.275 239.834 192.684 239.834C195.065 239.834 196.823 242.014 196.832 245.441C196.823 248.896 195.065 251.066 192.684 251.066C190.275 251.066 188.526 248.896 188.535 245.441ZM190.416 245.441C190.416 247.885 191.339 249.3 192.684 249.309C194.02 249.3 194.934 247.885 194.934 245.441C194.934 243.016 194.02 241.592 192.684 241.592C191.339 241.592 190.416 243.016 190.416 245.441ZM211.457 247.973V249.678H213.549V247.973H215.359V253.018C217.231 252.227 218.084 250.636 218.084 249.115V247.85H220.035V249.115C220.026 250.759 220.888 252.367 222.848 253.035L221.846 254.494C220.439 253.984 219.543 253.026 219.042 251.822C218.515 252.991 217.609 253.967 216.291 254.494L215.359 253.114V254.371H209.629V247.973H211.457ZM208.064 243.016C208.064 240.845 209.831 239.315 212.266 239.324C214.313 239.315 215.931 240.467 216.335 242.189H219.209V238.674H221.16V247.094H219.209V243.807H216.344C215.957 245.573 214.331 246.742 212.266 246.742C209.831 246.742 208.064 245.222 208.064 243.016ZM209.928 243.016C209.928 244.299 210.895 245.143 212.266 245.143C213.602 245.143 214.56 244.299 214.568 243.016C214.56 241.759 213.602 240.933 212.266 240.941C210.895 240.933 209.928 241.759 209.928 243.016ZM211.457 252.877H213.549V251.137H211.457V252.877ZM227.752 239.834C229.896 239.834 231.487 241.627 231.769 244.527H234.801V238.674H236.734V254.582H234.801V246.109H231.786C231.575 249.177 229.958 251.066 227.752 251.066C225.361 251.066 223.665 248.896 223.674 245.441C223.665 242.014 225.361 239.834 227.752 239.834ZM225.555 245.441C225.546 247.885 226.442 249.3 227.752 249.309C229.07 249.3 229.958 247.885 229.967 245.441C229.958 243.016 229.07 241.592 227.752 241.592C226.442 241.592 225.546 243.016 225.555 245.441ZM253.486 251.031V252.631H238.967V251.031H242.324V247.015C241.059 246.285 240.294 245.143 240.303 243.736C240.294 241.205 242.772 239.535 246.191 239.535C249.628 239.535 252.124 241.205 252.115 243.736C252.124 245.125 251.377 246.241 250.146 246.971V251.031H253.486ZM242.219 243.736C242.21 245.362 243.818 246.399 246.191 246.391C248.556 246.399 250.199 245.362 250.199 243.736C250.199 242.084 248.556 241.073 246.191 241.082C243.818 241.073 242.21 242.084 242.219 243.736ZM244.258 251.031H248.16V247.718C247.554 247.85 246.895 247.92 246.191 247.92C245.506 247.92 244.855 247.85 244.258 247.727V251.031Z" fill="#999999"/>
<path d="M119.852 279.084H121.629V280.191H119.852V283.295H118.553V275.912H119.852V279.084ZM119.852 288.012H112.031V283.938H119.852V288.012ZM113.303 286.959H118.566V284.963H113.303V286.959ZM117.541 278.195H110.24V277.156H113.248V275.816H114.547V277.156H117.541V278.195ZM113.891 278.729C114.474 278.729 114.989 278.82 115.436 279.002C115.887 279.184 116.235 279.442 116.481 279.774C116.732 280.103 116.857 280.483 116.857 280.916C116.857 281.354 116.732 281.739 116.481 282.071C116.235 282.399 115.887 282.655 115.436 282.837C114.989 283.019 114.474 283.113 113.891 283.117C113.298 283.113 112.776 283.019 112.325 282.837C111.874 282.655 111.525 282.399 111.279 282.071C111.033 281.739 110.91 281.354 110.91 280.916C110.91 280.483 111.033 280.103 111.279 279.774C111.53 279.442 111.879 279.184 112.325 279.002C112.776 278.82 113.298 278.729 113.891 278.729ZM113.891 279.727C113.544 279.722 113.241 279.768 112.981 279.863C112.722 279.959 112.519 280.098 112.373 280.28C112.232 280.463 112.163 280.674 112.168 280.916C112.163 281.294 112.316 281.593 112.626 281.812C112.94 282.026 113.362 282.133 113.891 282.133C114.415 282.133 114.836 282.026 115.155 281.812C115.474 281.593 115.636 281.294 115.641 280.916C115.636 280.674 115.561 280.463 115.415 280.28C115.269 280.098 115.064 279.959 114.8 279.863C114.535 279.768 114.232 279.722 113.891 279.727ZM125.361 277.361C125.357 278.391 125.298 279.355 125.184 280.253C125.07 281.146 124.862 282.028 124.562 282.898C124.261 283.769 123.839 284.585 123.297 285.346L122.285 284.771C122.955 283.874 123.434 282.91 123.721 281.88C124.012 280.845 124.183 279.695 124.233 278.428H122.572V277.361H125.361ZM128.082 277.361C128.082 277.981 128.071 278.558 128.048 279.091C128.03 279.619 127.989 280.141 127.925 280.656H129.367V276.227H130.598V287.561H129.367V281.709H127.774C127.465 283.427 126.888 284.885 126.045 286.084L125.033 285.496C125.53 284.831 125.917 284.111 126.195 283.336C126.473 282.557 126.665 281.773 126.77 280.984C126.874 280.196 126.938 279.344 126.961 278.428H125.73V277.361H128.082ZM132.922 288.162H131.678V275.912H132.922V288.162ZM147.988 288.189H146.689V275.912H147.988V288.189ZM141.439 276.828C142.046 276.828 142.588 277.006 143.066 277.361C143.545 277.712 143.919 278.214 144.188 278.865C144.461 279.512 144.598 280.264 144.598 281.121C144.598 281.982 144.461 282.739 144.188 283.391C143.919 284.042 143.545 284.546 143.066 284.901C142.588 285.252 142.046 285.428 141.439 285.428C140.824 285.428 140.277 285.252 139.799 284.901C139.32 284.546 138.944 284.045 138.671 283.397C138.402 282.746 138.268 281.987 138.268 281.121C138.268 280.26 138.402 279.506 138.671 278.858C138.944 278.207 139.32 277.705 139.799 277.354C140.277 277.004 140.824 276.828 141.439 276.828ZM141.439 277.99C141.061 277.99 140.726 278.118 140.435 278.373C140.147 278.628 139.924 278.993 139.765 279.467C139.605 279.936 139.525 280.488 139.525 281.121C139.525 281.759 139.605 282.315 139.765 282.789C139.924 283.263 140.147 283.628 140.435 283.883C140.726 284.138 141.061 284.266 141.439 284.266C141.813 284.266 142.144 284.138 142.431 283.883C142.718 283.628 142.941 283.263 143.101 282.789C143.26 282.315 143.34 281.759 143.34 281.121C143.34 280.488 143.26 279.936 143.101 279.467C142.941 278.993 142.718 278.628 142.431 278.373C142.144 278.118 141.813 277.99 141.439 277.99ZM161.113 282.939H149.943V281.887H152.623V280.239C152.145 280.043 151.778 279.793 151.522 279.487C151.272 279.177 151.146 278.824 151.146 278.428C151.146 277.949 151.322 277.539 151.673 277.197C152.028 276.851 152.534 276.587 153.19 276.404C153.851 276.222 154.628 276.131 155.521 276.131C156.415 276.131 157.189 276.222 157.846 276.404C158.502 276.587 159.008 276.851 159.363 277.197C159.719 277.539 159.896 277.949 159.896 278.428C159.896 278.829 159.767 279.184 159.507 279.494C159.252 279.799 158.885 280.048 158.406 280.239V281.887H161.113V282.939ZM155.521 283.773C156.401 283.773 157.155 283.858 157.784 284.026C158.418 284.195 158.903 284.443 159.24 284.771C159.577 285.095 159.746 285.487 159.746 285.947C159.746 286.417 159.577 286.813 159.24 287.137C158.908 287.465 158.424 287.713 157.791 287.882C157.158 288.05 156.401 288.135 155.521 288.135C154.633 288.135 153.869 288.05 153.231 287.882C152.598 287.713 152.113 287.465 151.775 287.137C151.438 286.813 151.27 286.417 151.27 285.947C151.27 285.487 151.438 285.095 151.775 284.771C152.113 284.443 152.598 284.195 153.231 284.026C153.869 283.858 154.633 283.773 155.521 283.773ZM155.521 284.771C154.583 284.771 153.858 284.874 153.348 285.079C152.837 285.284 152.582 285.574 152.582 285.947C152.582 286.33 152.837 286.626 153.348 286.836C153.863 287.041 154.587 287.141 155.521 287.137C156.447 287.146 157.164 287.046 157.675 286.836C158.19 286.626 158.447 286.33 158.447 285.947C158.447 285.574 158.19 285.284 157.675 285.079C157.164 284.874 156.447 284.771 155.521 284.771ZM155.521 277.129C154.893 277.129 154.348 277.181 153.888 277.286C153.432 277.386 153.083 277.535 152.842 277.73C152.6 277.926 152.482 278.159 152.486 278.428C152.482 278.697 152.6 278.929 152.842 279.125C153.083 279.316 153.432 279.462 153.888 279.562C154.343 279.663 154.888 279.713 155.521 279.713C156.474 279.713 157.217 279.601 157.75 279.378C158.288 279.155 158.557 278.838 158.557 278.428C158.557 278.154 158.436 277.922 158.194 277.73C157.953 277.535 157.604 277.386 157.148 277.286C156.693 277.181 156.15 277.129 155.521 277.129ZM157.121 281.887V280.581C156.629 280.659 156.096 280.697 155.521 280.697C154.975 280.697 154.446 280.661 153.936 280.588V281.887H157.121ZM171.668 278.742H173.459V279.809H171.668V282.611H170.369V275.871H171.668V278.742ZM171.668 286.029H165.051V287.055H172.092V288.039H163.779V285.113H170.383V284.156H163.752V283.186H171.668V286.029ZM169.357 277.977H162.057V276.951H165.064V275.803H166.363V276.951H169.357V277.977ZM165.707 278.441C166.299 278.441 166.819 278.523 167.266 278.688C167.717 278.847 168.063 279.079 168.305 279.385C168.551 279.686 168.674 280.041 168.674 280.451C168.674 280.861 168.551 281.217 168.305 281.518C168.063 281.818 167.719 282.049 167.272 282.208C166.826 282.368 166.304 282.447 165.707 282.447C165.105 282.447 164.579 282.368 164.128 282.208C163.681 282.049 163.335 281.818 163.089 281.518C162.847 281.217 162.727 280.861 162.727 280.451C162.727 280.041 162.85 279.686 163.096 279.385C163.342 279.079 163.688 278.847 164.135 278.688C164.586 278.523 165.11 278.441 165.707 278.441ZM165.707 279.371C165.361 279.371 165.055 279.417 164.791 279.508C164.531 279.594 164.331 279.72 164.189 279.884C164.048 280.043 163.98 280.232 163.984 280.451C163.98 280.775 164.132 281.032 164.442 281.224C164.757 281.41 165.178 281.504 165.707 281.504C166.236 281.504 166.657 281.41 166.972 281.224C167.291 281.037 167.452 280.779 167.457 280.451C167.452 280.232 167.377 280.043 167.231 279.884C167.086 279.72 166.881 279.594 166.616 279.508C166.356 279.417 166.053 279.371 165.707 279.371ZM187.691 288.162H186.393V275.912H187.691V288.162ZM177.629 284.826C179.101 284.817 180.222 284.801 180.992 284.778V283.555C180.514 283.495 180.097 283.366 179.741 283.165C179.386 282.965 179.112 282.707 178.921 282.393C178.729 282.078 178.636 281.723 178.641 281.326C178.636 280.87 178.757 280.469 179.003 280.123C179.249 279.777 179.598 279.508 180.049 279.316C180.5 279.125 181.02 279.029 181.607 279.029C182.2 279.029 182.724 279.125 183.18 279.316C183.64 279.508 183.995 279.777 184.246 280.123C184.501 280.469 184.629 280.87 184.629 281.326C184.629 281.718 184.531 282.071 184.335 282.386C184.144 282.696 183.87 282.951 183.515 283.151C183.164 283.352 182.751 283.484 182.277 283.548V284.73C183.48 284.68 184.602 284.589 185.641 284.457L185.736 285.428C184.529 285.628 183.285 285.758 182.004 285.817C180.723 285.877 179.324 285.906 177.807 285.906L177.629 284.826ZM185.367 278.414H177.889V277.375H180.992V275.939H182.291V277.375H185.367V278.414ZM181.607 280.041C181.266 280.041 180.963 280.096 180.698 280.205C180.434 280.31 180.229 280.46 180.083 280.656C179.937 280.848 179.867 281.071 179.871 281.326C179.867 281.581 179.937 281.805 180.083 281.996C180.229 282.183 180.434 282.329 180.698 282.434C180.963 282.534 181.266 282.584 181.607 282.584C181.958 282.584 182.268 282.534 182.537 282.434C182.806 282.329 183.013 282.183 183.159 281.996C183.31 281.805 183.385 281.581 183.385 281.326C183.385 281.071 183.31 280.848 183.159 280.656C183.009 280.46 182.799 280.31 182.53 280.205C182.261 280.096 181.954 280.041 181.607 280.041ZM199.846 285.209H198.547V284.033H196.086V283.117H198.547V275.926H199.846V285.209ZM200.146 287.902H191.301V284.307H192.586V286.85H200.146V287.902ZM189.605 281.518C191.201 281.508 192.632 281.481 193.898 281.436C195.17 281.39 196.382 281.294 197.535 281.148L197.617 282.078C196.61 282.242 195.535 282.361 194.391 282.434V284.826H193.092V282.509C192.212 282.541 191.314 282.557 190.398 282.557H189.77L189.605 281.518ZM193.611 276.391C194.204 276.391 194.73 276.482 195.19 276.664C195.651 276.842 196.008 277.095 196.264 277.423C196.519 277.746 196.646 278.122 196.646 278.551C196.646 278.979 196.519 279.355 196.264 279.679C196.008 279.998 195.651 280.246 195.19 280.424C194.73 280.597 194.204 280.684 193.611 280.684C193.01 280.684 192.479 280.597 192.019 280.424C191.558 280.246 191.201 279.998 190.945 279.679C190.69 279.355 190.562 278.979 190.562 278.551C190.562 278.122 190.69 277.746 190.945 277.423C191.201 277.095 191.558 276.842 192.019 276.664C192.479 276.482 193.01 276.391 193.611 276.391ZM193.611 277.361C193.251 277.357 192.932 277.402 192.654 277.498C192.376 277.594 192.162 277.733 192.012 277.915C191.861 278.097 191.788 278.309 191.793 278.551C191.788 278.788 191.861 278.995 192.012 279.173C192.162 279.351 192.374 279.487 192.647 279.583C192.925 279.679 193.247 279.727 193.611 279.727C193.962 279.727 194.272 279.679 194.541 279.583C194.814 279.487 195.026 279.351 195.177 279.173C195.332 278.995 195.411 278.788 195.416 278.551C195.411 278.309 195.332 278.097 195.177 277.915C195.026 277.733 194.814 277.594 194.541 277.498C194.272 277.402 193.962 277.357 193.611 277.361ZM207.338 276.117C208.258 276.117 209.045 276.199 209.696 276.363C210.353 276.523 210.852 276.76 211.193 277.074C211.54 277.389 211.713 277.771 211.713 278.223C211.713 278.674 211.54 279.059 211.193 279.378C210.852 279.692 210.353 279.932 209.696 280.096C209.045 280.26 208.258 280.342 207.338 280.342C206.417 280.342 205.629 280.26 204.973 280.096C204.321 279.932 203.822 279.692 203.476 279.378C203.134 279.059 202.963 278.674 202.963 278.223C202.963 277.771 203.134 277.389 203.476 277.074C203.822 276.76 204.321 276.523 204.973 276.363C205.629 276.199 206.417 276.117 207.338 276.117ZM207.338 277.074C206.363 277.074 205.613 277.174 205.089 277.375C204.565 277.576 204.307 277.858 204.316 278.223C204.312 278.596 204.567 278.881 205.082 279.077C205.602 279.273 206.354 279.371 207.338 279.371C208.318 279.371 209.067 279.273 209.587 279.077C210.111 278.881 210.373 278.596 210.373 278.223C210.373 277.858 210.109 277.576 209.58 277.375C209.056 277.174 208.309 277.074 207.338 277.074ZM212.93 282.133H201.76V281.094H212.93V282.133ZM211.521 285.947H204.385V287.041H211.863V288.039H203.113V285.004H210.236V284.047H203.1V283.076H211.521V285.947ZM228.488 286.658H217.277V285.592H222.227V282.926H223.512V285.592H228.488V286.658ZM227.449 278.824H223.525C223.544 279.389 223.742 279.918 224.12 280.41C224.498 280.898 225.018 281.31 225.679 281.647C226.34 281.985 227.085 282.215 227.914 282.338L227.422 283.35C226.387 283.186 225.467 282.869 224.66 282.399C223.858 281.925 223.259 281.335 222.862 280.629C222.47 281.335 221.873 281.925 221.071 282.399C220.274 282.869 219.355 283.186 218.316 283.35L217.824 282.338C218.654 282.215 219.396 281.985 220.053 281.647C220.714 281.31 221.233 280.898 221.611 280.41C221.99 279.918 222.19 279.389 222.213 278.824H218.289V277.771H222.227V276.131H223.512V277.771H227.449V278.824ZM239.891 288.162H238.646V281.832H237.061V287.533H235.871V276.158H237.061V280.766H238.646V275.912H239.891V288.162ZM234.381 278.441H231.086V284.115C231.888 284.106 232.59 284.079 233.191 284.033C233.798 283.988 234.413 283.906 235.037 283.787L235.133 284.854C234.445 284.995 233.766 285.09 233.096 285.141C232.426 285.186 231.596 285.214 230.607 285.223H229.787V277.389H234.381V278.441ZM251.02 280.875H252.988V281.955H251.02V288.162H249.734V275.912H251.02V280.875ZM248.668 278.893H241.408V277.826H244.43V276.076H245.729V277.826H248.668V278.893ZM245.086 279.795C245.665 279.795 246.184 279.916 246.645 280.157C247.105 280.399 247.467 280.736 247.731 281.169C247.996 281.602 248.13 282.092 248.135 282.639C248.13 283.19 247.996 283.682 247.731 284.115C247.467 284.548 247.105 284.885 246.645 285.127C246.184 285.368 245.665 285.492 245.086 285.496C244.503 285.492 243.979 285.368 243.514 285.127C243.053 284.885 242.691 284.548 242.427 284.115C242.167 283.682 242.037 283.19 242.037 282.639C242.037 282.092 242.167 281.602 242.427 281.169C242.691 280.736 243.053 280.399 243.514 280.157C243.979 279.916 244.503 279.795 245.086 279.795ZM245.086 280.861C244.744 280.861 244.434 280.937 244.156 281.087C243.878 281.237 243.662 281.447 243.507 281.716C243.352 281.985 243.277 282.292 243.281 282.639C243.277 282.99 243.352 283.299 243.507 283.568C243.662 283.837 243.876 284.045 244.149 284.19C244.427 284.336 244.74 284.407 245.086 284.402C245.428 284.407 245.735 284.336 246.009 284.19C246.287 284.045 246.503 283.837 246.658 283.568C246.813 283.299 246.891 282.99 246.891 282.639C246.891 282.292 246.813 281.985 246.658 281.716C246.503 281.447 246.287 281.237 246.009 281.087C245.735 280.937 245.428 280.861 245.086 280.861ZM263.488 278.291C263.488 278.979 263.479 279.578 263.461 280.089C263.447 280.595 263.406 281.18 263.338 281.846C263.274 282.511 263.169 283.231 263.023 284.006L261.711 283.869C261.857 283.135 261.964 282.445 262.032 281.798C262.105 281.146 262.148 280.567 262.162 280.062C262.18 279.556 262.189 278.965 262.189 278.291V278.141H254.752V277.088H263.488V278.291ZM264.746 286.508H253.576V285.428H257.828V281.107H259.113V285.428H264.746V286.508ZM119.852 303.535H121.629V304.615H119.852V308.812H118.539V299.912H119.852V303.535ZM116.529 300.842C116.529 301.899 116.299 302.863 115.839 303.733C115.379 304.604 114.715 305.356 113.85 305.989C112.988 306.618 111.958 307.113 110.76 307.473L110.213 306.434C111.165 306.146 111.993 305.78 112.694 305.333C113.401 304.886 113.959 304.374 114.369 303.795C114.784 303.216 115.032 302.592 115.114 301.922H110.732V300.842H116.529ZM120.357 311.902H112.072V307.896H113.385V310.85H120.357V311.902ZM126.783 301.676C126.779 302.241 126.897 302.781 127.139 303.296C127.385 303.806 127.738 304.257 128.198 304.649C128.659 305.041 129.199 305.34 129.818 305.545L129.162 306.57C128.46 306.324 127.847 305.962 127.323 305.483C126.804 305 126.405 304.438 126.127 303.795C125.849 304.492 125.446 305.101 124.917 305.62C124.393 306.135 123.771 306.52 123.051 306.775L122.395 305.764C123.019 305.54 123.561 305.219 124.021 304.8C124.486 304.381 124.842 303.902 125.088 303.364C125.334 302.822 125.457 302.259 125.457 301.676V300.5H126.783V301.676ZM132.484 312.162H131.186V308.908H124.186V307.855H132.484V312.162ZM132.484 307.268H131.186V299.912H132.484V307.268ZM147.592 301.758C147.592 302.546 147.571 303.246 147.53 303.856C147.494 304.463 147.4 305.153 147.25 305.928H149.014V306.994H144.051V312.176H142.738V306.994H137.844V305.928H145.938C146.102 305.158 146.204 304.467 146.245 303.856C146.286 303.241 146.307 302.542 146.307 301.758V301.744H139.211V300.678H147.592V301.758ZM160.484 312.162H159.24V305.777H157.723V311.561H156.492V300.145H157.723V304.711H159.24V299.912H160.484V312.162ZM155.111 308.936H150.354V301.293H155.111V308.936ZM151.584 307.896H153.895V302.318H151.584V307.896ZM173.24 306.529H162.029V305.531H173.24V306.529ZM171.859 310.084H164.668V311.096H172.242V312.012H163.369V309.223H170.574V308.32H163.355V307.391H171.859V310.084ZM171.832 302.879H164.75V303.809H172.037V304.725H163.465V302.018H170.533V301.143H163.438V300.227H171.832V302.879ZM188.73 307.377H177.533V306.352H182.482V305.285H178.996V300.24H187.363V301.266H180.309V302.264H187.049V303.234H180.309V304.273H187.445V305.285H183.781V306.352H188.73V307.377ZM183.139 308.184C184.032 308.179 184.793 308.254 185.422 308.409C186.055 308.56 186.536 308.783 186.864 309.079C187.197 309.375 187.363 309.738 187.363 310.166C187.363 310.813 186.996 311.305 186.263 311.643C185.534 311.98 184.492 312.144 183.139 312.135C181.771 312.144 180.721 311.98 179.987 311.643C179.254 311.305 178.887 310.813 178.887 310.166C178.887 309.738 179.051 309.375 179.379 309.079C179.712 308.783 180.195 308.56 180.828 308.409C181.466 308.254 182.236 308.179 183.139 308.184ZM183.139 309.154C182.173 309.154 181.437 309.241 180.931 309.414C180.429 309.587 180.181 309.838 180.186 310.166C180.181 310.494 180.429 310.743 180.931 310.911C181.437 311.08 182.173 311.16 183.139 311.15C184.091 311.16 184.816 311.08 185.312 310.911C185.814 310.743 186.064 310.494 186.064 310.166C186.064 309.838 185.814 309.587 185.312 309.414C184.811 309.241 184.087 309.154 183.139 309.154ZM199.285 302.988H201.062V304.082H199.285V307.049H197.986V299.912H199.285V302.988ZM192.736 308.744H197.986V307.555H199.285V312.012H191.451V307.555H192.736V308.744ZM197.986 310.973V309.756H192.736V310.973H197.986ZM196.975 302.154H189.674V301.115H192.682V299.803H193.98V301.115H196.975V302.154ZM193.324 302.66C193.908 302.66 194.423 302.749 194.869 302.927C195.32 303.1 195.669 303.348 195.915 303.672C196.166 303.995 196.291 304.374 196.291 304.807C196.291 305.235 196.166 305.613 195.915 305.941C195.669 306.265 195.32 306.516 194.869 306.693C194.423 306.871 193.908 306.958 193.324 306.953C192.732 306.958 192.21 306.871 191.759 306.693C191.312 306.516 190.964 306.265 190.713 305.941C190.467 305.613 190.344 305.235 190.344 304.807C190.344 304.374 190.467 303.995 190.713 303.672C190.959 303.348 191.308 303.1 191.759 302.927C192.21 302.749 192.732 302.66 193.324 302.66ZM193.324 303.631C192.982 303.626 192.679 303.674 192.415 303.774C192.155 303.87 191.952 304.009 191.807 304.191C191.665 304.369 191.597 304.574 191.602 304.807C191.597 305.044 191.665 305.253 191.807 305.436C191.952 305.613 192.155 305.752 192.415 305.853C192.675 305.948 192.978 305.996 193.324 305.996C193.666 305.996 193.969 305.948 194.233 305.853C194.498 305.752 194.703 305.613 194.849 305.436C194.994 305.253 195.07 305.044 195.074 304.807C195.07 304.57 194.994 304.362 194.849 304.185C194.703 304.007 194.498 303.87 194.233 303.774C193.969 303.674 193.666 303.626 193.324 303.631ZM212 301.525V301.689C211.991 302.305 211.968 302.872 211.932 303.392C211.895 303.911 211.813 304.497 211.686 305.148L210.4 305.025C210.519 304.415 210.599 303.868 210.64 303.385C210.685 302.897 210.713 302.405 210.722 301.908H205.82V300.842H212V301.525ZM208.869 306.126C210.359 306.071 211.658 305.964 212.766 305.805L212.848 306.748C211.717 306.949 210.533 307.081 209.293 307.145C208.053 307.208 206.691 307.245 205.205 307.254L205.082 306.201H205.232C205.538 306.197 205.925 306.192 206.395 306.188C206.864 306.183 207.26 306.176 207.584 306.167V303.59H208.869V306.126ZM214.871 303.809H216.553V304.902H214.871V309.113H213.545V299.912H214.871V303.809ZM215.268 311.902H206.941V308.279H208.24V310.85H215.268V311.902ZM227.449 312.189H226.15V299.912H227.449V312.189ZM223.703 305.49H219.301V308.17C220.376 308.165 221.363 308.131 222.261 308.067C223.163 308.004 224.1 307.892 225.07 307.732L225.193 308.799C224.173 308.972 223.181 309.09 222.22 309.154C221.263 309.218 220.194 309.25 219.014 309.25H217.975V304.451H222.377V302.072H217.961V301.02H223.703V305.49ZM238.92 304.875H240.889V305.955H238.92V312.162H237.635V299.912H238.92V304.875ZM236.568 302.893H229.309V301.826H232.33V300.076H233.629V301.826H236.568V302.893ZM232.986 303.795C233.565 303.795 234.085 303.916 234.545 304.157C235.005 304.399 235.368 304.736 235.632 305.169C235.896 305.602 236.031 306.092 236.035 306.639C236.031 307.19 235.896 307.682 235.632 308.115C235.368 308.548 235.005 308.885 234.545 309.127C234.085 309.368 233.565 309.492 232.986 309.496C232.403 309.492 231.879 309.368 231.414 309.127C230.954 308.885 230.591 308.548 230.327 308.115C230.067 307.682 229.938 307.19 229.938 306.639C229.938 306.092 230.067 305.602 230.327 305.169C230.591 304.736 230.954 304.399 231.414 304.157C231.879 303.916 232.403 303.795 232.986 303.795ZM232.986 304.861C232.645 304.861 232.335 304.937 232.057 305.087C231.779 305.237 231.562 305.447 231.407 305.716C231.252 305.985 231.177 306.292 231.182 306.639C231.177 306.99 231.252 307.299 231.407 307.568C231.562 307.837 231.776 308.045 232.05 308.19C232.328 308.336 232.64 308.407 232.986 308.402C233.328 308.407 233.636 308.336 233.909 308.19C234.187 308.045 234.404 307.837 234.559 307.568C234.714 307.299 234.791 306.99 234.791 306.639C234.791 306.292 234.714 305.985 234.559 305.716C234.404 305.447 234.187 305.237 233.909 305.087C233.636 304.937 233.328 304.861 232.986 304.861ZM245.209 303.262C245.209 303.927 245.302 304.586 245.489 305.237C245.676 305.884 245.954 306.477 246.323 307.015C246.692 307.552 247.141 307.983 247.67 308.307L246.945 309.305C246.389 308.972 245.913 308.519 245.517 307.944C245.12 307.366 244.815 306.709 244.601 305.976C244.368 306.773 244.04 307.486 243.616 308.115C243.197 308.74 242.698 309.227 242.119 309.578L241.312 308.607C241.873 308.27 242.352 307.824 242.748 307.268C243.145 306.707 243.443 306.087 243.644 305.408C243.849 304.725 243.951 304.027 243.951 303.316V301.033H245.209V303.262ZM252.018 312.162H250.773V299.912H252.018V312.162ZM249.475 311.561H248.244V305.299H246.344V304.219H248.244V300.145H249.475V311.561ZM264.787 310.631H253.576V309.551H256.256V306.352C255.745 306.069 255.349 305.711 255.066 305.278C254.784 304.845 254.643 304.36 254.643 303.822C254.643 303.189 254.834 302.631 255.217 302.147C255.604 301.664 256.14 301.291 256.823 301.026C257.507 300.757 258.284 300.623 259.154 300.623C260.029 300.623 260.809 300.757 261.492 301.026C262.18 301.291 262.716 301.664 263.099 302.147C263.486 302.631 263.68 303.189 263.68 303.822C263.68 304.355 263.543 304.836 263.27 305.265C262.996 305.688 262.609 306.042 262.107 306.324V309.551H264.787V310.631ZM259.154 301.662C258.516 301.662 257.951 301.751 257.459 301.929C256.967 302.102 256.584 302.353 256.311 302.681C256.037 303.004 255.9 303.385 255.9 303.822C255.9 304.255 256.037 304.636 256.311 304.964C256.584 305.292 256.967 305.547 257.459 305.729C257.951 305.907 258.516 305.996 259.154 305.996C259.788 305.996 260.351 305.907 260.843 305.729C261.34 305.547 261.727 305.292 262.005 304.964C262.283 304.636 262.422 304.255 262.422 303.822C262.422 303.389 262.283 303.009 262.005 302.681C261.731 302.353 261.346 302.102 260.85 301.929C260.357 301.751 259.792 301.662 259.154 301.662ZM260.795 309.551V306.823C260.298 306.946 259.751 307.008 259.154 307.008C258.58 307.008 258.042 306.949 257.541 306.83V309.551H260.795Z" fill="#ABABAB"/>
</svg>
