<svg width="388" height="450" viewBox="0 0 388 450" fill="none" xmlns="http://www.w3.org/2000/svg">
<mask id="path-1-outside-1_1_10870" maskUnits="userSpaceOnUse" x="149.6" y="-0.287109" width="89" height="96" fill="black">
<rect fill="white" x="149.6" y="-0.287109" width="89" height="96"/>
<path fill-rule="evenodd" clip-rule="evenodd" d="M197.985 85.3236C218.98 83.3185 235.4 65.6332 235.4 44.1129C235.4 21.2483 216.864 2.71289 194 2.71289C171.135 2.71289 152.6 21.2483 152.6 44.1129C152.6 65.558 168.905 83.1948 189.795 85.302L193.363 92.1424C193.587 92.5724 194.203 92.5724 194.427 92.1425L197.985 85.3236Z"/>
</mask>
<path fill-rule="evenodd" clip-rule="evenodd" d="M197.985 85.3236C218.98 83.3185 235.4 65.6332 235.4 44.1129C235.4 21.2483 216.864 2.71289 194 2.71289C171.135 2.71289 152.6 21.2483 152.6 44.1129C152.6 65.558 168.905 83.1948 189.795 85.302L193.363 92.1424C193.587 92.5724 194.203 92.5724 194.427 92.1425L197.985 85.3236Z" fill="#FDF0DF"/>
<path d="M197.985 85.3236L197.756 82.9344L196.459 83.0583L195.857 84.2134L197.985 85.3236ZM189.795 85.302L191.922 84.1919L191.324 83.044L190.035 82.9141L189.795 85.302ZM193.363 92.1424L191.235 93.2525L191.235 93.2525L193.363 92.1424ZM194.427 92.1425L196.555 93.2526H196.555L194.427 92.1425ZM233 44.1129C233 64.3843 217.532 81.0458 197.756 82.9344L198.213 87.7127C220.427 85.5911 237.8 66.8822 237.8 44.1129H233ZM194 5.11289C215.539 5.11289 233 22.5738 233 44.1129H237.8C237.8 19.9228 218.19 0.312891 194 0.312891V5.11289ZM155 44.1129C155 22.5738 172.461 5.11289 194 5.11289V0.312891C169.81 0.312891 150.2 19.9228 150.2 44.1129H155ZM190.035 82.9141C170.359 80.9293 155 64.3133 155 44.1129H150.2C150.2 66.8027 167.451 85.4602 189.554 87.6898L190.035 82.9141ZM195.491 91.0324L191.922 84.1919L187.667 86.412L191.235 93.2525L195.491 91.0324ZM192.299 91.0323C192.972 89.7424 194.818 89.7425 195.491 91.0324L191.235 93.2525C192.357 95.4023 195.433 95.4024 196.555 93.2526L192.299 91.0323ZM195.857 84.2134L192.299 91.0323L196.555 93.2526L200.112 86.4337L195.857 84.2134Z" fill="#FEE2CE" mask="url(#path-1-outside-1_1_10870)"/>
<path d="M169.4 32.7129L171.162 34.4742C172.247 35.5598 173.925 35.7845 175.258 35.0227L175.707 34.7662C176.614 34.2482 177.741 34.3184 178.576 34.9448V34.9448C179.222 35.4294 180.056 35.5886 180.835 35.3761L185.058 34.2245C185.779 34.0279 186.55 34.1751 187.148 34.6234L187.335 34.7638C188.085 35.3262 189.116 35.3262 189.866 34.7638V34.7638C190.552 34.2493 191.481 34.2013 192.216 34.6425L193 35.1128C193.605 35.4757 194.369 35.4362 194.933 35.0131L195.412 34.6543C195.949 34.2517 196.714 34.3827 197.086 34.9411V34.9411C197.387 35.3931 197.96 35.5779 198.469 35.3872L200.698 34.5512C201.784 34.1442 202.99 34.2075 204.027 34.7259L204.39 34.9079C205.404 35.4147 206.597 35.4147 207.61 34.9079L208.388 34.519C209.131 34.1475 210.02 34.2277 210.685 34.7261V34.7261C211.464 35.3109 212.536 35.3109 213.316 34.7261V34.7261C213.981 34.2277 214.87 34.1475 215.613 34.519L218 35.7129" stroke="#FCC49C" stroke-width="1.8"/>
<path d="M169.4 42.3125L171.162 44.0738C172.247 45.1594 173.925 45.3841 175.258 44.6224L175.707 44.3658C176.614 43.8478 177.741 43.918 178.576 44.5444V44.5444C179.222 45.029 180.056 45.1882 180.835 44.9757L185.058 43.8241C185.779 43.6275 186.55 43.7747 187.148 44.223L187.335 44.3634C188.085 44.9258 189.116 44.9258 189.866 44.3634V44.3634C190.552 43.8489 191.481 43.8009 192.216 44.2421L193 44.7124C193.605 45.0753 194.369 45.0358 194.933 44.6127L195.412 44.2539C195.949 43.8513 196.714 43.9823 197.086 44.5407V44.5407C197.387 44.9927 197.96 45.1776 198.469 44.9868L202.4 43.5125" stroke="#FCC49C" stroke-width="1.8"/>
<path d="M169.4 51.9121L171.162 53.6734C172.247 54.759 173.925 54.9837 175.258 54.222L175.707 53.9654C176.614 53.4474 177.741 53.5176 178.576 54.144V54.144C179.222 54.6286 180.056 54.7878 180.835 54.5753L185.058 53.4237C185.779 53.2271 186.55 53.3743 187.148 53.8226L187.335 53.963C188.085 54.5254 189.116 54.5254 189.866 53.963V53.963C190.552 53.4485 191.481 53.4006 192.216 53.8417L193 54.312C193.605 54.6749 194.369 54.6355 194.933 54.2123L195.412 53.8535C195.949 53.4509 196.714 53.5819 197.086 54.1403V54.1403C197.387 54.5923 197.96 54.7772 198.469 54.5864L200.698 53.7505C201.784 53.3434 202.99 53.4067 204.027 53.9252L204.39 54.1071C205.404 54.6139 206.597 54.6139 207.61 54.1071V54.1071C208.83 53.4973 210.289 53.6289 211.38 54.4471L212 54.9121" stroke="#FCC49C" stroke-width="1.8"/>
<path d="M260.3 174.528C260.3 191.663 253.069 204.234 241.385 212.563C229.653 220.926 213.348 225.064 195.2 225.064C177.052 225.064 160.748 220.926 149.016 212.563C137.332 204.234 130.1 191.663 130.1 174.528C130.1 140.19 159.197 112.264 195.2 112.264C231.204 112.264 260.3 140.19 260.3 174.528Z" fill="#FDF0DF" stroke="#C4C4C4" stroke-width="2.4"/>
<ellipse cx="171.8" cy="148.714" rx="6.3" ry="8.4" fill="#525252"/>
<ellipse cx="215.601" cy="148.714" rx="6.3" ry="8.4" fill="#525252"/>
<ellipse cx="190.7" cy="165.216" rx="4.8" ry="3.3" fill="#FEE8B0"/>
<ellipse cx="190.698" cy="182.914" rx="4.8" ry="6" fill="#525252"/>
<mask id="mask0_1_10870" style="mask-type:alpha" maskUnits="userSpaceOnUse" x="185" y="176" width="11" height="13">
<ellipse cx="190.698" cy="182.914" rx="4.8" ry="6" fill="#525252"/>
</mask>
<g mask="url(#mask0_1_10870)">
<ellipse cx="190.698" cy="189.771" rx="4.8" ry="6" fill="#FFBDE8"/>
</g>
<path d="M239.026 108.801C245.517 109.621 249.486 112.629 253.547 116.15C253.965 116.513 254.385 116.881 254.808 117.253C258.496 120.494 262.504 124.016 268.576 126.164C272.658 127.609 277.341 128.176 282.094 128.451C284.476 128.588 286.897 128.653 289.286 128.713C289.425 128.716 289.564 128.72 289.703 128.723C291.954 128.78 294.172 128.835 296.326 128.946C300.915 129.182 305.099 129.666 308.521 130.886C311.898 132.09 314.456 133.982 315.953 137.013C318.415 142.944 317.872 152.947 311.231 160.459C304.638 167.916 291.791 173.157 269.193 168.994C246.029 164.726 232.172 148.581 227.39 133.976C224.99 126.649 224.922 119.863 226.928 115.2C227.923 112.888 229.416 111.118 231.378 110.01C233.34 108.902 235.868 108.402 239.026 108.801Z" fill="#C4C4C4" stroke="#C4C4C4" stroke-width="2.4"/>
<path d="M95.9064 136.876L95.9067 136.861V136.847C95.9067 132.366 97.2297 129.52 99.3033 127.569C101.428 125.569 104.48 124.376 108.195 123.514C110.706 122.931 113.401 122.522 116.219 122.095C117.591 121.887 118.992 121.674 120.415 121.435C124.698 120.715 129.089 119.764 133.037 117.958C136.609 116.325 139.823 114.173 142.815 112.007C143.757 111.326 144.67 110.648 145.565 109.984C147.549 108.512 149.442 107.107 151.351 105.879C154.102 104.109 156.753 102.798 159.495 102.293C162.203 101.794 165.071 102.068 168.292 103.591C170.456 104.615 171.778 105.903 172.513 107.331C173.251 108.766 173.46 110.463 173.18 112.41C172.611 116.357 170.064 121.069 166.458 125.883C159.286 135.455 148.393 144.818 142.878 148.296C123.119 158.835 111.359 158.717 104.658 154.887C97.9469 151.052 95.7551 143.172 95.9064 136.876Z" fill="#C4C4C4" stroke="#C4C4C4" stroke-width="2.4"/>
<path d="M218.301 133.716C217.401 132.975 214.941 131.811 212.301 133.081" stroke="#525252" stroke-width="1.8" stroke-linecap="round"/>
<path d="M168.5 133.716C169.4 132.975 171.86 131.811 174.5 133.081" stroke="#525252" stroke-width="1.8" stroke-linecap="round"/>
<path d="M147.899 206.399C147.098 212.652 143.787 218.028 139.267 221.232C134.766 224.422 129.073 225.463 123.364 223.105C108.243 216.858 96.3827 207.169 87.8339 197.751C79.5992 188.68 83.7245 174.976 95.0332 169.221L95.9937 168.732C106.819 163.222 117.972 164.831 127.347 172.658C132.176 176.689 137.769 181.913 141.948 187.65C146.146 193.412 148.781 199.505 148.035 205.33L147.899 206.399Z" fill="#FDF0DF" stroke="#C4C4C4" stroke-width="2.4"/>
<path d="M72.7617 165.387L80.8755 163.213L88.9893 161.039L103.897 216.676C99.6394 220.896 93.4672 222.55 87.6697 221.024L72.7617 165.387Z" fill="#F97B22"/>
<path d="M85.9609 214.648C91.67 214.743 97.2914 213.236 102.188 210.3L103.049 213.51C98.2209 216.607 92.5501 218.126 86.821 217.858L85.9609 214.648Z" fill="#FEF3EB"/>
<path d="M88.9896 161.038L72.7621 165.386L77.1839 153.232C77.4687 152.449 78.445 152.187 79.0831 152.723L88.9896 161.038Z" fill="#FEE2CE"/>
<path d="M82.489 155.325L75.5343 157.189L77.0372 152.746C77.3116 151.935 78.3229 151.664 78.9661 152.229L82.489 155.325Z" fill="black"/>
<path d="M99.0156 201.054C97.5397 201.803 96.9809 203.628 97.7844 205.075L143.006 286.524C143.768 287.897 145.48 288.422 146.88 287.711L207.237 257.074C208.708 256.327 209.268 254.511 208.475 253.065L163.665 171.407C162.907 170.025 161.189 169.495 159.783 170.208L99.0156 201.054Z" fill="#ABABAB" stroke="#C4C4C4" stroke-width="2"/>
<path d="M98.6586 204.59C98.1304 203.638 98.4978 202.438 99.4682 201.946L157.287 172.597C158.21 172.128 159.338 172.475 159.838 173.382L204.811 254.957C205.335 255.908 204.967 257.104 203.999 257.596L146.427 286.819C145.507 287.286 144.381 286.942 143.88 286.039L98.6586 204.59Z" fill="#C4C4C4"/>
<path d="M98.6559 204.589C98.1289 203.638 98.4966 202.439 99.4664 201.947L154.339 174.093C155.26 173.626 156.387 173.971 156.887 174.875L202.023 256.367C202.55 257.319 202.183 258.518 201.213 259.01L146.341 286.863C145.419 287.331 144.293 286.985 143.792 286.081L98.6559 204.589Z" fill="#E0E0E0"/>
<path d="M117.291 184.216C114.678 185.542 113.833 188.867 115.497 191.28L118.582 195.753C119.958 197.747 122.597 198.417 124.757 197.321L143.72 187.695C146.342 186.364 147.181 183.021 145.498 180.609L142.385 176.15C141.004 174.171 138.377 173.512 136.226 174.604L117.291 184.216Z" fill="white" stroke="#C4C4C4" stroke-width="2"/>
<path d="M246.299 217.222C245.499 210.969 242.187 205.593 237.667 202.389C233.166 199.199 227.473 198.158 221.765 200.516C206.644 206.763 194.783 216.452 186.234 225.87C178 234.942 182.125 248.645 193.434 254.4L194.394 254.889C205.22 260.399 216.372 258.79 225.747 250.963C230.576 246.932 236.17 241.708 240.348 235.972C244.546 230.209 247.181 224.116 246.436 218.291L246.299 217.222Z" fill="#FDF0DF" stroke="#C4C4C4" stroke-width="2.4"/>
<path d="M111.398 337.445C114.586 337.445 116.883 340.352 116.906 344.922C116.883 349.527 114.586 352.422 111.398 352.422C108.176 352.422 105.879 349.527 105.891 344.922C105.879 340.352 108.176 337.445 111.398 337.445ZM108.398 344.922C108.387 348.18 109.617 350.066 111.398 350.078C113.191 350.066 114.387 348.18 114.398 344.922C114.387 341.688 113.191 339.789 111.398 339.789C109.617 339.789 108.387 341.688 108.398 344.922ZM119.695 357.086V335.898H122.297V344.031H125.555V346.234H122.297V357.086H119.695ZM134.484 339.578C134.484 342.191 136.289 344.805 139.664 345.859L138.328 347.875C135.926 347.102 134.18 345.508 133.207 343.492C132.258 345.684 130.453 347.43 127.945 348.273L126.609 346.258C130.02 345.109 131.836 342.355 131.859 339.578V339.32H127.289V337.234H138.938V339.32H134.484V339.578ZM129.633 351.766V349.656H144.094V357.086H141.469V351.766H129.633ZM141.469 348.672V335.898H144.094V348.672H141.469ZM170.531 335.898V357.086H167.93V335.898H170.531ZM152.977 351.203C154.664 351.191 156.574 351.191 158.578 351.133V349.188C156.199 348.812 154.641 347.359 154.641 345.344C154.641 342.953 156.762 341.371 159.844 341.359C162.961 341.371 165.117 342.953 165.117 345.344C165.117 347.348 163.559 348.789 161.18 349.176V351.039C163.043 350.957 164.918 350.805 166.688 350.57L166.875 352.516C162.223 353.301 157.16 353.359 153.352 353.359L152.977 351.203ZM153.422 340.398V338.336H158.578V335.969H161.18V338.336H166.312V340.398H153.422ZM157.125 345.344C157.102 346.562 158.238 347.277 159.844 347.266C161.496 347.277 162.621 346.562 162.609 345.344C162.621 344.113 161.496 343.363 159.844 343.352C158.238 343.363 157.102 344.113 157.125 345.344ZM191.391 335.922V351.953H188.766V350.102H184.617V348.273H188.766V335.922H191.391ZM173.531 345.438C177.434 345.414 182.695 345.379 187.195 344.805L187.336 346.68C185.59 346.973 183.785 347.16 181.992 347.289V351.367H179.391V347.43C177.41 347.512 175.523 347.523 173.859 347.523L173.531 345.438ZM175.148 340.445C175.148 338.207 177.305 336.684 180.445 336.695C183.527 336.684 185.695 338.207 185.719 340.445C185.695 342.719 183.527 344.16 180.445 344.172C177.305 344.16 175.148 342.719 175.148 340.445ZM176.344 356.664V350.406H178.945V354.555H191.883V356.664H176.344ZM177.609 340.445C177.609 341.594 178.746 342.262 180.445 342.273C182.062 342.262 183.223 341.594 183.234 340.445C183.223 339.297 182.062 338.605 180.445 338.617C178.746 338.605 177.609 339.297 177.609 340.445ZM211.992 335.898V357.109H209.367V335.898H211.992ZM195.047 344.922C195.035 340.352 197.367 337.445 200.578 337.445C203.754 337.445 206.098 340.352 206.109 344.922C206.098 349.527 203.754 352.422 200.578 352.422C197.367 352.422 195.035 349.527 195.047 344.922ZM197.555 344.922C197.555 348.18 198.785 350.066 200.578 350.078C202.359 350.066 203.578 348.18 203.578 344.922C203.578 341.688 202.359 339.789 200.578 339.789C198.785 339.789 197.555 341.688 197.555 344.922ZM225.609 348.297V350.57H228.398V348.297H230.812V355.023C233.309 353.969 234.445 351.848 234.445 349.82V348.133H237.047V349.82C237.035 352.012 238.184 354.156 240.797 355.047L239.461 356.992C237.586 356.312 236.391 355.035 235.723 353.43C235.02 354.988 233.812 356.289 232.055 356.992L230.812 355.152V356.828H223.172V348.297H225.609ZM221.086 341.688C221.086 338.793 223.441 336.754 226.688 336.766C229.418 336.754 231.574 338.289 232.113 340.586H235.945V335.898H238.547V347.125H235.945V342.742H232.125C231.609 345.098 229.441 346.656 226.688 346.656C223.441 346.656 221.086 344.629 221.086 341.688ZM223.57 341.688C223.57 343.398 224.859 344.523 226.688 344.523C228.469 344.523 229.746 343.398 229.758 341.688C229.746 340.012 228.469 338.91 226.688 338.922C224.859 338.91 223.57 340.012 223.57 341.688ZM225.609 354.836H228.398V352.516H225.609V354.836ZM247.336 337.445C250.195 337.445 252.316 339.836 252.691 343.703H256.734V335.898H259.312V357.109H256.734V345.812H252.715C252.434 349.902 250.277 352.422 247.336 352.422C244.148 352.422 241.887 349.527 241.898 344.922C241.887 340.352 244.148 337.445 247.336 337.445ZM244.406 344.922C244.395 348.18 245.59 350.066 247.336 350.078C249.094 350.066 250.277 348.18 250.289 344.922C250.277 341.688 249.094 339.789 247.336 339.789C245.59 339.789 244.395 341.688 244.406 344.922ZM281.648 352.375V354.508H262.289V352.375H266.766V347.02C265.078 346.047 264.059 344.523 264.07 342.648C264.059 339.273 267.363 337.047 271.922 337.047C276.504 337.047 279.832 339.273 279.82 342.648C279.832 344.5 278.836 345.988 277.195 346.961V352.375H281.648ZM266.625 342.648C266.613 344.816 268.758 346.199 271.922 346.188C275.074 346.199 277.266 344.816 277.266 342.648C277.266 340.445 275.074 339.098 271.922 339.109C268.758 339.098 266.613 340.445 266.625 342.648ZM269.344 352.375H274.547V347.957C273.738 348.133 272.859 348.227 271.922 348.227C271.008 348.227 270.141 348.133 269.344 347.969V352.375Z" fill="#999999"/>
<path d="M97.3594 397.691H99.8984V399.273H97.3594V403.707H95.5039V393.16H97.3594V397.691ZM97.3594 410.445H86.1875V404.625H97.3594V410.445ZM88.0039 408.941H95.5234V406.09H88.0039V408.941ZM94.0586 396.422H83.6289V394.938H87.9258V393.023H89.7812V394.938H94.0586V396.422ZM88.8438 397.184C89.6771 397.184 90.4128 397.314 91.0508 397.574C91.6953 397.835 92.1934 398.202 92.5449 398.678C92.903 399.146 93.082 399.69 93.082 400.309C93.082 400.934 92.903 401.484 92.5449 401.959C92.1934 402.428 91.6953 402.792 91.0508 403.053C90.4128 403.313 89.6771 403.447 88.8438 403.453C87.9974 403.447 87.252 403.313 86.6074 403.053C85.9629 402.792 85.4648 402.428 85.1133 401.959C84.7617 401.484 84.5859 400.934 84.5859 400.309C84.5859 399.69 84.7617 399.146 85.1133 398.678C85.4714 398.202 85.9694 397.835 86.6074 397.574C87.252 397.314 87.9974 397.184 88.8438 397.184ZM88.8438 398.609C88.349 398.603 87.916 398.668 87.5449 398.805C87.1738 398.941 86.8841 399.14 86.6758 399.4C86.474 399.661 86.3763 399.964 86.3828 400.309C86.3763 400.849 86.5944 401.275 87.0371 401.588C87.4863 401.894 88.0885 402.047 88.8438 402.047C89.5924 402.047 90.1947 401.894 90.6504 401.588C91.1061 401.275 91.3372 400.849 91.3438 400.309C91.3372 399.964 91.2298 399.661 91.0215 399.4C90.8132 399.14 90.5202 398.941 90.1426 398.805C89.765 398.668 89.332 398.603 88.8438 398.609ZM105.23 395.23C105.224 396.702 105.139 398.079 104.977 399.361C104.814 400.637 104.518 401.897 104.088 403.141C103.658 404.384 103.056 405.549 102.281 406.637L100.836 405.816C101.793 404.534 102.477 403.157 102.887 401.686C103.303 400.208 103.548 398.564 103.619 396.754H101.246V395.23H105.23ZM109.117 395.23C109.117 396.116 109.101 396.939 109.068 397.701C109.042 398.456 108.984 399.202 108.893 399.938H110.953V393.609H112.711V409.801H110.953V401.441H108.678C108.235 403.896 107.411 405.979 106.207 407.691L104.762 406.852C105.471 405.901 106.025 404.872 106.422 403.766C106.819 402.652 107.092 401.533 107.242 400.406C107.392 399.28 107.483 398.062 107.516 396.754H105.758V395.23H109.117ZM116.031 410.66H114.254V393.16H116.031V410.66ZM137.555 410.699H135.699V393.16H137.555V410.699ZM128.199 394.469C129.065 394.469 129.84 394.723 130.523 395.23C131.207 395.732 131.741 396.448 132.125 397.379C132.516 398.303 132.711 399.378 132.711 400.602C132.711 401.832 132.516 402.913 132.125 403.844C131.741 404.775 131.207 405.494 130.523 406.002C129.84 406.503 129.065 406.754 128.199 406.754C127.32 406.754 126.539 406.503 125.855 406.002C125.172 405.494 124.635 404.778 124.244 403.854C123.86 402.923 123.668 401.839 123.668 400.602C123.668 399.371 123.86 398.294 124.244 397.369C124.635 396.438 125.172 395.722 125.855 395.221C126.539 394.719 127.32 394.469 128.199 394.469ZM128.199 396.129C127.659 396.129 127.18 396.311 126.764 396.676C126.354 397.04 126.035 397.561 125.807 398.238C125.579 398.909 125.465 399.697 125.465 400.602C125.465 401.513 125.579 402.307 125.807 402.984C126.035 403.661 126.354 404.182 126.764 404.547C127.18 404.911 127.659 405.094 128.199 405.094C128.733 405.094 129.205 404.911 129.615 404.547C130.025 404.182 130.344 403.661 130.572 402.984C130.8 402.307 130.914 401.513 130.914 400.602C130.914 399.697 130.8 398.909 130.572 398.238C130.344 397.561 130.025 397.04 129.615 396.676C129.205 396.311 128.733 396.129 128.199 396.129ZM156.305 403.199H140.348V401.695H144.176V399.342C143.492 399.062 142.968 398.704 142.604 398.268C142.245 397.825 142.066 397.32 142.066 396.754C142.066 396.07 142.317 395.484 142.818 394.996C143.326 394.501 144.049 394.124 144.986 393.863C145.93 393.603 147.04 393.473 148.316 393.473C149.592 393.473 150.699 393.603 151.637 393.863C152.574 394.124 153.297 394.501 153.805 394.996C154.312 395.484 154.566 396.07 154.566 396.754C154.566 397.327 154.381 397.835 154.01 398.277C153.645 398.714 153.121 399.068 152.438 399.342V401.695H156.305V403.199ZM148.316 404.391C149.573 404.391 150.65 404.511 151.549 404.752C152.454 404.993 153.147 405.348 153.629 405.816C154.111 406.279 154.352 406.839 154.352 407.496C154.352 408.167 154.111 408.733 153.629 409.195C153.154 409.664 152.464 410.019 151.559 410.26C150.654 410.501 149.573 410.621 148.316 410.621C147.047 410.621 145.956 410.501 145.045 410.26C144.14 410.019 143.447 409.664 142.965 409.195C142.483 408.733 142.242 408.167 142.242 407.496C142.242 406.839 142.483 406.279 142.965 405.816C143.447 405.348 144.14 404.993 145.045 404.752C145.956 404.511 147.047 404.391 148.316 404.391ZM148.316 405.816C146.975 405.816 145.94 405.963 145.211 406.256C144.482 406.549 144.117 406.962 144.117 407.496C144.117 408.043 144.482 408.466 145.211 408.766C145.947 409.059 146.982 409.202 148.316 409.195C149.638 409.208 150.663 409.065 151.393 408.766C152.128 408.466 152.496 408.043 152.496 407.496C152.496 406.962 152.128 406.549 151.393 406.256C150.663 405.963 149.638 405.816 148.316 405.816ZM148.316 394.898C147.418 394.898 146.64 394.973 145.982 395.123C145.331 395.266 144.833 395.478 144.488 395.758C144.143 396.038 143.974 396.37 143.98 396.754C143.974 397.138 144.143 397.47 144.488 397.75C144.833 398.023 145.331 398.232 145.982 398.375C146.633 398.518 147.411 398.59 148.316 398.59C149.677 398.59 150.738 398.43 151.5 398.111C152.268 397.792 152.652 397.34 152.652 396.754C152.652 396.363 152.48 396.031 152.135 395.758C151.79 395.478 151.292 395.266 150.641 395.123C149.99 394.973 149.215 394.898 148.316 394.898ZM150.602 401.695V399.83C149.898 399.941 149.137 399.996 148.316 399.996C147.535 399.996 146.78 399.944 146.051 399.84V401.695H150.602ZM171.383 397.203H173.941V398.727H171.383V402.73H169.527V393.102H171.383V397.203ZM171.383 407.613H161.93V409.078H171.988V410.484H160.113V406.305H169.547V404.938H160.074V403.551H171.383V407.613ZM168.082 396.109H157.652V394.645H161.949V393.004H163.805V394.645H168.082V396.109ZM162.867 396.773C163.714 396.773 164.456 396.891 165.094 397.125C165.738 397.353 166.233 397.685 166.578 398.121C166.93 398.551 167.105 399.059 167.105 399.645C167.105 400.23 166.93 400.738 166.578 401.168C166.233 401.598 165.742 401.926 165.104 402.154C164.465 402.382 163.72 402.496 162.867 402.496C162.008 402.496 161.256 402.382 160.611 402.154C159.973 401.926 159.479 401.598 159.127 401.168C158.782 400.738 158.609 400.23 158.609 399.645C158.609 399.059 158.785 398.551 159.137 398.121C159.488 397.685 159.983 397.353 160.621 397.125C161.266 396.891 162.014 396.773 162.867 396.773ZM162.867 398.102C162.372 398.102 161.936 398.167 161.559 398.297C161.188 398.421 160.901 398.6 160.699 398.834C160.497 399.062 160.4 399.332 160.406 399.645C160.4 400.107 160.618 400.475 161.061 400.748C161.51 401.015 162.112 401.148 162.867 401.148C163.622 401.148 164.225 401.015 164.674 400.748C165.13 400.481 165.361 400.113 165.367 399.645C165.361 399.332 165.253 399.062 165.045 398.834C164.837 398.6 164.544 398.421 164.166 398.297C163.795 398.167 163.362 398.102 162.867 398.102ZM194.273 410.66H192.418V393.16H194.273V410.66ZM179.898 405.895C182.001 405.882 183.603 405.859 184.703 405.826V404.078C184.02 403.993 183.424 403.808 182.916 403.521C182.408 403.235 182.018 402.867 181.744 402.418C181.471 401.969 181.337 401.461 181.344 400.895C181.337 400.243 181.51 399.671 181.861 399.176C182.213 398.681 182.711 398.297 183.355 398.023C184 397.75 184.742 397.613 185.582 397.613C186.428 397.613 187.177 397.75 187.828 398.023C188.486 398.297 188.993 398.681 189.352 399.176C189.716 399.671 189.898 400.243 189.898 400.895C189.898 401.454 189.758 401.959 189.479 402.408C189.205 402.851 188.814 403.215 188.307 403.502C187.805 403.788 187.216 403.977 186.539 404.068V405.758C188.258 405.686 189.859 405.556 191.344 405.367L191.48 406.754C189.755 407.04 187.978 407.226 186.148 407.311C184.319 407.395 182.32 407.438 180.152 407.438L179.898 405.895ZM190.953 396.734H180.27V395.25H184.703V393.199H186.559V395.25H190.953V396.734ZM185.582 399.059C185.094 399.059 184.661 399.137 184.283 399.293C183.906 399.443 183.613 399.658 183.404 399.938C183.196 400.211 183.095 400.53 183.102 400.895C183.095 401.259 183.196 401.578 183.404 401.852C183.613 402.118 183.906 402.327 184.283 402.477C184.661 402.62 185.094 402.691 185.582 402.691C186.083 402.691 186.526 402.62 186.91 402.477C187.294 402.327 187.59 402.118 187.799 401.852C188.014 401.578 188.121 401.259 188.121 400.895C188.121 400.53 188.014 400.211 187.799 399.938C187.584 399.658 187.285 399.443 186.9 399.293C186.516 399.137 186.077 399.059 185.582 399.059ZM211.637 406.441H209.781V404.762H206.266V403.453H209.781V393.18H211.637V406.441ZM212.066 410.289H199.43V405.152H201.266V408.785H212.066V410.289ZM197.008 401.168C199.286 401.155 201.331 401.116 203.141 401.051C204.957 400.986 206.689 400.849 208.336 400.641L208.453 401.969C207.014 402.203 205.478 402.372 203.844 402.477V405.895H201.988V402.584C200.732 402.63 199.449 402.652 198.141 402.652H197.242L197.008 401.168ZM202.73 393.844C203.577 393.844 204.329 393.974 204.986 394.234C205.644 394.488 206.155 394.85 206.52 395.318C206.884 395.781 207.066 396.318 207.066 396.93C207.066 397.542 206.884 398.079 206.52 398.541C206.155 398.997 205.644 399.352 204.986 399.605C204.329 399.853 203.577 399.977 202.73 399.977C201.871 399.977 201.113 399.853 200.455 399.605C199.798 399.352 199.286 398.997 198.922 398.541C198.557 398.079 198.375 397.542 198.375 396.93C198.375 396.318 198.557 395.781 198.922 395.318C199.286 394.85 199.798 394.488 200.455 394.234C201.113 393.974 201.871 393.844 202.73 393.844ZM202.73 395.23C202.216 395.224 201.76 395.289 201.363 395.426C200.966 395.562 200.66 395.761 200.445 396.021C200.23 396.282 200.126 396.585 200.133 396.93C200.126 397.268 200.23 397.564 200.445 397.818C200.66 398.072 200.963 398.268 201.354 398.404C201.751 398.541 202.21 398.609 202.73 398.609C203.232 398.609 203.674 398.541 204.059 398.404C204.449 398.268 204.752 398.072 204.967 397.818C205.188 397.564 205.302 397.268 205.309 396.93C205.302 396.585 205.188 396.282 204.967 396.021C204.752 395.761 204.449 395.562 204.059 395.426C203.674 395.289 203.232 395.224 202.73 395.23ZM222.34 393.453C223.655 393.453 224.778 393.57 225.709 393.805C226.646 394.033 227.359 394.371 227.848 394.82C228.342 395.27 228.59 395.816 228.59 396.461C228.59 397.105 228.342 397.656 227.848 398.111C227.359 398.561 226.646 398.902 225.709 399.137C224.778 399.371 223.655 399.488 222.34 399.488C221.025 399.488 219.898 399.371 218.961 399.137C218.03 398.902 217.317 398.561 216.822 398.111C216.334 397.656 216.09 397.105 216.09 396.461C216.09 395.816 216.334 395.27 216.822 394.82C217.317 394.371 218.03 394.033 218.961 393.805C219.898 393.57 221.025 393.453 222.34 393.453ZM222.34 394.82C220.947 394.82 219.876 394.964 219.127 395.25C218.378 395.536 218.01 395.94 218.023 396.461C218.017 396.995 218.382 397.402 219.117 397.682C219.859 397.962 220.934 398.102 222.34 398.102C223.74 398.102 224.811 397.962 225.553 397.682C226.301 397.402 226.676 396.995 226.676 396.461C226.676 395.94 226.298 395.536 225.543 395.25C224.794 394.964 223.727 394.82 222.34 394.82ZM230.328 402.047H214.371V400.562H230.328V402.047ZM228.316 407.496H218.121V409.059H228.805V410.484H216.305V406.148H226.48V404.781H216.285V403.395H228.316V407.496ZM252.555 408.512H236.539V406.988H243.609V403.18H245.445V406.988H252.555V408.512ZM251.07 397.32H245.465C245.491 398.128 245.774 398.883 246.314 399.586C246.855 400.283 247.597 400.872 248.541 401.354C249.485 401.835 250.549 402.164 251.734 402.34L251.031 403.785C249.553 403.551 248.238 403.098 247.086 402.428C245.94 401.751 245.084 400.908 244.518 399.898C243.958 400.908 243.105 401.751 241.959 402.428C240.82 403.098 239.508 403.551 238.023 403.785L237.32 402.34C238.505 402.164 239.566 401.835 240.504 401.354C241.448 400.872 242.19 400.283 242.73 399.586C243.271 398.883 243.557 398.128 243.59 397.32H237.984V395.816H243.609V393.473H245.445V395.816H251.07V397.32ZM268.844 410.66H267.066V401.617H264.801V409.762H263.102V393.512H264.801V400.094H267.066V393.16H268.844V410.66ZM260.973 396.773H256.266V404.879C257.411 404.866 258.414 404.827 259.273 404.762C260.139 404.697 261.018 404.579 261.91 404.41L262.047 405.934C261.064 406.135 260.094 406.272 259.137 406.344C258.18 406.409 256.995 406.448 255.582 406.461H254.41V395.27H260.973V396.773ZM284.742 400.25H287.555V401.793H284.742V410.66H282.906V393.16H284.742V400.25ZM281.383 397.418H271.012V395.895H275.328V393.395H277.184V395.895H281.383V397.418ZM276.266 398.707C277.092 398.707 277.835 398.88 278.492 399.225C279.15 399.57 279.667 400.051 280.045 400.67C280.423 401.288 280.615 401.988 280.621 402.77C280.615 403.557 280.423 404.26 280.045 404.879C279.667 405.497 279.15 405.979 278.492 406.324C277.835 406.669 277.092 406.845 276.266 406.852C275.432 406.845 274.684 406.669 274.02 406.324C273.362 405.979 272.844 405.497 272.467 404.879C272.096 404.26 271.91 403.557 271.91 402.77C271.91 401.988 272.096 401.288 272.467 400.67C272.844 400.051 273.362 399.57 274.02 399.225C274.684 398.88 275.432 398.707 276.266 398.707ZM276.266 400.23C275.777 400.23 275.335 400.338 274.938 400.553C274.54 400.768 274.231 401.067 274.01 401.451C273.788 401.835 273.681 402.275 273.688 402.77C273.681 403.271 273.788 403.714 274.01 404.098C274.231 404.482 274.537 404.778 274.928 404.986C275.325 405.195 275.771 405.296 276.266 405.289C276.754 405.296 277.193 405.195 277.584 404.986C277.981 404.778 278.29 404.482 278.512 404.098C278.733 403.714 278.844 403.271 278.844 402.77C278.844 402.275 278.733 401.835 278.512 401.451C278.29 401.067 277.981 400.768 277.584 400.553C277.193 400.338 276.754 400.23 276.266 400.23ZM302.555 396.559C302.555 397.542 302.542 398.398 302.516 399.127C302.496 399.85 302.438 400.686 302.34 401.637C302.249 402.587 302.099 403.616 301.891 404.723L300.016 404.527C300.224 403.479 300.377 402.493 300.475 401.568C300.579 400.637 300.641 399.811 300.66 399.088C300.686 398.365 300.699 397.522 300.699 396.559V396.344H290.074V394.84H302.555V396.559ZM304.352 408.297H288.395V406.754H294.469V400.582H296.305V406.754H304.352V408.297ZM97.3594 430.336H99.8984V431.879H97.3594V437.875H95.4844V425.16H97.3594V430.336ZM92.6133 426.488C92.6133 427.999 92.2845 429.376 91.627 430.619C90.9694 431.863 90.0221 432.937 88.7852 433.842C87.5547 434.74 86.0833 435.447 84.3711 435.961L83.5898 434.477C84.9505 434.066 86.1322 433.542 87.1348 432.904C88.1439 432.266 88.9414 431.534 89.5273 430.707C90.1198 429.88 90.4746 428.988 90.5918 428.031H84.332V426.488H92.6133ZM98.082 442.289H86.2461V436.566H88.1211V440.785H98.082V442.289ZM107.262 427.68C107.255 428.487 107.424 429.258 107.77 429.994C108.121 430.723 108.626 431.368 109.283 431.928C109.941 432.488 110.712 432.914 111.598 433.207L110.66 434.672C109.658 434.32 108.782 433.803 108.033 433.119C107.291 432.429 106.721 431.625 106.324 430.707C105.927 431.703 105.351 432.572 104.596 433.314C103.847 434.05 102.958 434.6 101.93 434.965L100.992 433.52C101.884 433.201 102.659 432.742 103.316 432.143C103.98 431.544 104.488 430.86 104.84 430.092C105.191 429.317 105.367 428.513 105.367 427.68V426H107.262V427.68ZM115.406 442.66H113.551V438.012H103.551V436.508H115.406V442.66ZM115.406 435.668H113.551V425.16H115.406V435.668ZM136.988 427.797C136.988 428.923 136.959 429.923 136.9 430.795C136.848 431.661 136.715 432.647 136.5 433.754H139.02V435.277H131.93V442.68H130.055V435.277H123.062V433.754H134.625C134.859 432.654 135.006 431.667 135.064 430.795C135.123 429.916 135.152 428.917 135.152 427.797V427.777H125.016V426.254H136.988V427.797ZM155.406 442.66H153.629V433.539H151.461V441.801H149.703V425.492H151.461V432.016H153.629V425.16H155.406V442.66ZM147.73 438.051H140.934V427.133H147.73V438.051ZM142.691 436.566H145.992V428.598H142.691V436.566ZM173.629 434.613H157.613V433.188H173.629V434.613ZM171.656 439.691H161.383V441.137H172.203V442.445H159.527V438.461H169.82V437.172H159.508V435.844H171.656V439.691ZM171.617 429.398H161.5V430.727H171.91V432.035H159.664V428.168H169.762V426.918H159.625V425.609H171.617V429.398ZM195.758 435.824H179.762V434.359H186.832V432.836H181.852V425.629H193.805V427.094H183.727V428.52H193.355V429.906H183.727V431.391H193.922V432.836H188.688V434.359H195.758V435.824ZM187.77 436.977C189.046 436.97 190.133 437.077 191.031 437.299C191.936 437.514 192.623 437.833 193.092 438.256C193.567 438.679 193.805 439.197 193.805 439.809C193.805 440.733 193.281 441.436 192.232 441.918C191.191 442.4 189.703 442.634 187.77 442.621C185.816 442.634 184.316 442.4 183.268 441.918C182.219 441.436 181.695 440.733 181.695 439.809C181.695 439.197 181.93 438.679 182.398 438.256C182.874 437.833 183.564 437.514 184.469 437.299C185.38 437.077 186.48 436.97 187.77 436.977ZM187.77 438.363C186.389 438.363 185.338 438.487 184.615 438.734C183.899 438.982 183.544 439.34 183.551 439.809C183.544 440.277 183.899 440.632 184.615 440.873C185.338 441.114 186.389 441.228 187.77 441.215C189.13 441.228 190.165 441.114 190.875 440.873C191.591 440.632 191.949 440.277 191.949 439.809C191.949 439.34 191.591 438.982 190.875 438.734C190.159 438.487 189.124 438.363 187.77 438.363ZM210.836 429.555H213.375V431.117H210.836V435.355H208.98V425.16H210.836V429.555ZM201.48 437.777H208.98V436.078H210.836V442.445H199.645V436.078H201.48V437.777ZM208.98 440.961V439.223H201.48V440.961H208.98ZM207.535 428.363H197.105V426.879H201.402V425.004H203.258V426.879H207.535V428.363ZM202.32 429.086C203.154 429.086 203.889 429.213 204.527 429.467C205.172 429.714 205.67 430.069 206.021 430.531C206.38 430.993 206.559 431.534 206.559 432.152C206.559 432.764 206.38 433.305 206.021 433.773C205.67 434.236 205.172 434.594 204.527 434.848C203.889 435.102 203.154 435.225 202.32 435.219C201.474 435.225 200.729 435.102 200.084 434.848C199.446 434.594 198.948 434.236 198.59 433.773C198.238 433.305 198.062 432.764 198.062 432.152C198.062 431.534 198.238 430.993 198.59 430.531C198.941 430.069 199.439 429.714 200.084 429.467C200.729 429.213 201.474 429.086 202.32 429.086ZM202.32 430.473C201.832 430.466 201.399 430.535 201.021 430.678C200.65 430.814 200.361 431.013 200.152 431.273C199.951 431.527 199.853 431.82 199.859 432.152C199.853 432.491 199.951 432.79 200.152 433.051C200.361 433.305 200.65 433.503 201.021 433.646C201.393 433.783 201.826 433.852 202.32 433.852C202.809 433.852 203.242 433.783 203.619 433.646C203.997 433.503 204.29 433.305 204.498 433.051C204.706 432.79 204.814 432.491 204.82 432.152C204.814 431.814 204.706 431.518 204.498 431.264C204.29 431.01 203.997 430.814 203.619 430.678C203.242 430.535 202.809 430.466 202.32 430.473ZM229 427.465V427.699C228.987 428.578 228.954 429.389 228.902 430.131C228.85 430.873 228.733 431.71 228.551 432.641L226.715 432.465C226.884 431.592 226.998 430.811 227.057 430.121C227.122 429.424 227.161 428.721 227.174 428.012H220.172V426.488H229V427.465ZM224.527 434.037C226.656 433.959 228.512 433.806 230.094 433.578L230.211 434.926C228.596 435.212 226.904 435.401 225.133 435.492C223.362 435.583 221.415 435.635 219.293 435.648L219.117 434.145H219.332C219.768 434.138 220.322 434.132 220.992 434.125C221.663 434.118 222.229 434.109 222.691 434.096V430.414H224.527V434.037ZM233.102 430.727H235.504V432.289H233.102V438.305H231.207V425.16H233.102V430.727ZM233.668 442.289H221.773V437.113H223.629V440.785H233.668V442.289ZM251.07 442.699H249.215V425.16H251.07V442.699ZM245.719 433.129H239.43V436.957C240.966 436.951 242.376 436.902 243.658 436.811C244.947 436.719 246.285 436.56 247.672 436.332L247.848 437.855C246.389 438.103 244.973 438.272 243.6 438.363C242.232 438.454 240.706 438.5 239.02 438.5H237.535V431.645H243.824V428.246H237.516V426.742H245.719V433.129ZM267.457 432.25H270.27V433.793H267.457V442.66H265.621V425.16H267.457V432.25ZM264.098 429.418H253.727V427.895H258.043V425.395H259.898V427.895H264.098V429.418ZM258.98 430.707C259.807 430.707 260.549 430.88 261.207 431.225C261.865 431.57 262.382 432.051 262.76 432.67C263.137 433.288 263.329 433.988 263.336 434.77C263.329 435.557 263.137 436.26 262.76 436.879C262.382 437.497 261.865 437.979 261.207 438.324C260.549 438.669 259.807 438.845 258.98 438.852C258.147 438.845 257.398 438.669 256.734 438.324C256.077 437.979 255.559 437.497 255.182 436.879C254.811 436.26 254.625 435.557 254.625 434.77C254.625 433.988 254.811 433.288 255.182 432.67C255.559 432.051 256.077 431.57 256.734 431.225C257.398 430.88 258.147 430.707 258.98 430.707ZM258.98 432.23C258.492 432.23 258.049 432.338 257.652 432.553C257.255 432.768 256.946 433.067 256.725 433.451C256.503 433.835 256.396 434.275 256.402 434.77C256.396 435.271 256.503 435.714 256.725 436.098C256.946 436.482 257.252 436.778 257.643 436.986C258.04 437.195 258.486 437.296 258.98 437.289C259.469 437.296 259.908 437.195 260.299 436.986C260.696 436.778 261.005 436.482 261.227 436.098C261.448 435.714 261.559 435.271 261.559 434.77C261.559 434.275 261.448 433.835 261.227 433.451C261.005 433.067 260.696 432.768 260.299 432.553C259.908 432.338 259.469 432.23 258.98 432.23ZM276.441 429.945C276.441 430.896 276.575 431.837 276.842 432.768C277.109 433.692 277.506 434.538 278.033 435.307C278.561 436.075 279.202 436.69 279.957 437.152L278.922 438.578C278.128 438.103 277.447 437.455 276.881 436.635C276.314 435.808 275.878 434.87 275.572 433.822C275.24 434.962 274.771 435.98 274.166 436.879C273.567 437.771 272.854 438.467 272.027 438.969L270.875 437.582C271.676 437.1 272.359 436.462 272.926 435.668C273.492 434.867 273.919 433.982 274.205 433.012C274.498 432.035 274.645 431.039 274.645 430.023V426.762H276.441V429.945ZM286.168 442.66H284.391V425.16H286.168V442.66ZM282.535 441.801H280.777V432.855H278.062V431.312H280.777V425.492H282.535V441.801ZM304.41 440.473H288.395V438.93H292.223V434.359C291.493 433.956 290.927 433.445 290.523 432.826C290.12 432.208 289.918 431.514 289.918 430.746C289.918 429.841 290.191 429.044 290.738 428.354C291.292 427.663 292.057 427.13 293.033 426.752C294.01 426.368 295.12 426.176 296.363 426.176C297.613 426.176 298.727 426.368 299.703 426.752C300.686 427.13 301.451 427.663 301.998 428.354C302.551 429.044 302.828 429.841 302.828 430.746C302.828 431.508 302.633 432.195 302.242 432.807C301.852 433.412 301.298 433.917 300.582 434.32V438.93H304.41V440.473ZM296.363 427.66C295.452 427.66 294.645 427.787 293.941 428.041C293.238 428.288 292.691 428.646 292.301 429.115C291.91 429.577 291.715 430.121 291.715 430.746C291.715 431.365 291.91 431.908 292.301 432.377C292.691 432.846 293.238 433.21 293.941 433.471C294.645 433.725 295.452 433.852 296.363 433.852C297.268 433.852 298.072 433.725 298.775 433.471C299.485 433.21 300.038 432.846 300.436 432.377C300.833 431.908 301.031 431.365 301.031 430.746C301.031 430.128 300.833 429.584 300.436 429.115C300.045 428.646 299.495 428.288 298.785 428.041C298.082 427.787 297.275 427.66 296.363 427.66ZM298.707 438.93V435.033C297.997 435.209 297.216 435.297 296.363 435.297C295.543 435.297 294.775 435.212 294.059 435.043V438.93H298.707Z" fill="#ABABAB"/>
</svg>
