<svg width="183" height="48" viewBox="0 0 183 48" fill="none" xmlns="http://www.w3.org/2000/svg">
<path d="M32.3445 44.1036C31.1925 44.9484 29.5797 45.6588 27.5061 46.2348C25.4709 46.7724 22.8213 47.0412 19.5573 47.0412C16.3317 47.0412 13.2597 46.7724 10.3413 46.2348C7.42291 45.6972 5.33011 45.102 4.06291 44.4492C2.79571 43.7964 2.16211 43.1628 2.16211 42.5484C2.16211 40.398 2.46931 38.1708 3.08371 35.8668C3.69811 33.5244 4.42771 32.3532 5.27251 32.3532C5.42611 32.3532 7.01971 32.8716 10.0533 33.9084C13.0869 34.9452 15.3717 35.4636 16.9077 35.4636C18.4437 35.4636 19.4421 35.31 19.9029 35.0028C20.3637 34.6572 20.5941 34.1772 20.5941 33.5628C20.5941 32.9484 20.1717 32.4108 19.3269 31.95C18.4821 31.4508 17.4261 31.0284 16.1589 30.6828C14.8917 30.2988 13.5093 29.7612 12.0117 29.07C10.5525 28.3788 9.18931 27.6108 7.92211 26.766C6.65491 25.9212 5.59891 24.7308 4.75411 23.1948C3.90931 21.6204 3.48691 19.8348 3.48691 17.838C3.48691 9.31318 8.57491 5.05078 18.7509 5.05078C22.5525 5.05078 25.8357 5.30038 28.6005 5.79958C31.3653 6.26038 33.3045 6.79798 34.4181 7.41238C35.5701 7.98838 36.1461 8.56438 36.1461 9.14038C36.1461 11.1372 35.6661 13.2876 34.7061 15.5916C33.7845 17.8956 32.8821 19.0476 31.9989 19.0476C31.8453 19.0476 31.3461 18.8748 30.5013 18.5292C27.9669 17.4156 25.8549 16.8588 24.1653 16.8588C22.5141 16.8588 21.3813 17.0124 20.7669 17.3196C20.1909 17.6268 19.9029 18.1068 19.9029 18.7596C19.9029 19.374 20.3253 19.8924 21.1701 20.3148C22.0149 20.6988 23.0517 21.0636 24.2805 21.4092C25.5477 21.7164 26.9109 22.2156 28.3701 22.9068C29.8677 23.5596 31.2501 24.3468 32.5173 25.2684C33.7845 26.1516 34.8405 27.4188 35.6853 29.07C36.5301 30.7212 36.9525 32.6412 36.9525 34.83C36.9525 37.134 36.3573 39.2268 35.1669 41.1084C34.4373 42.2604 33.4965 43.2588 32.3445 44.1036Z" fill="#F97B22"/>
<path d="M74.5648 27.9165V45.6573C74.5648 46.0797 73.4704 46.4253 71.2816 46.6941C69.0928 46.9245 66.8272 47.0397 64.4848 47.0397C62.1808 47.0397 60.6832 46.9437 59.992 46.7517C59.3392 46.5213 59.0128 46.1565 59.0128 45.6573V27.3405C59.0128 25.6125 58.936 24.4797 58.7824 23.9421C58.6672 23.4045 58.552 22.9245 58.4368 22.5021C58.168 21.7725 57.688 21.4077 56.9968 21.4077C55.9216 21.4077 55.384 21.9261 55.384 22.9629V45.6573C55.384 46.0797 54.2896 46.4253 52.1008 46.6941C49.9504 46.9245 47.704 47.0397 45.3616 47.0397C43.0576 47.0397 41.56 46.9437 40.8688 46.7517C40.1776 46.5213 39.832 46.1565 39.832 45.6573V17.2605C39.832 16.4541 40.9264 15.6477 43.1152 14.8413C45.3424 14.0349 47.6848 13.6317 50.1424 13.6317C52.6 13.6317 53.9824 14.3421 54.2896 15.7629L54.808 18.2973H55.2112C56.3248 16.0701 58.2448 14.5149 60.9712 13.6317C62.0848 13.2861 63.3136 13.1133 64.6576 13.1133C68.536 13.1133 71.1472 14.2845 72.4912 16.6269C73.8736 18.9309 74.5648 22.6941 74.5648 27.9165Z" fill="#F97B22"/>
<path d="M88.6793 47.0405C85.1849 47.0405 82.4393 46.2149 80.4425 44.5637C79.6361 43.8725 78.9257 42.8549 78.3113 41.5109C77.7353 40.1669 77.4473 38.5925 77.4473 36.7877C77.4473 34.9829 77.8697 33.4085 78.7145 32.0645C79.5977 30.7205 80.6537 29.6837 81.8825 28.9541C83.1113 28.2245 84.5513 27.6293 86.2025 27.1685C88.6985 26.5157 91.4441 26.1893 94.4393 26.1893H96.3401C96.3401 24.6149 95.8025 23.5013 94.7273 22.8485C94.2665 22.5797 93.5561 22.4453 92.5961 22.4453C91.6745 22.4453 90.5417 22.6949 89.1977 23.1941C87.8921 23.6933 86.7977 24.2117 85.9145 24.7493C85.0313 25.2485 84.4361 25.4981 84.1289 25.4981C83.4377 25.4981 82.4969 24.5957 81.3065 22.7909C80.1161 20.9477 79.5209 19.2773 79.5209 17.7797C79.5209 17.2805 80.2313 16.6277 81.6521 15.8213C83.0729 15.0149 85.0697 14.2853 87.6425 13.6325C90.2537 12.9413 92.7881 12.5957 95.2457 12.5957C97.7033 12.5957 99.8153 12.8069 101.582 13.2293C103.386 13.6133 104.846 14.0933 105.959 14.6693C107.111 15.2453 108.071 16.0133 108.839 16.9733C109.646 17.9333 110.241 18.7973 110.625 19.5653C111.047 20.3333 111.354 21.3317 111.546 22.5605C111.815 23.9813 111.95 25.7285 111.95 27.8021V45.1397C111.95 45.5621 110.913 45.9077 108.839 46.1765C106.804 46.4069 104.769 46.5221 102.734 46.5221C100.737 46.5221 99.4313 46.4645 98.8169 46.3493C98.2409 46.2341 97.8953 46.0997 97.7801 45.9461C97.6649 45.7925 97.5689 45.5237 97.4921 45.1397L97.0313 41.8565H96.5705C95.6105 45.3125 92.9801 47.0405 88.6793 47.0405ZM96.3977 37.4789V30.7397C95.3993 30.7397 94.5929 31.1621 93.9785 32.0069C93.3641 32.8517 93.0569 33.8117 93.0569 34.8869C93.0569 37.4213 93.6329 38.6885 94.7849 38.6885C95.2841 38.6885 95.6681 38.5733 95.9369 38.3429C96.2441 38.0741 96.3977 37.7861 96.3977 37.4789Z" fill="#F97B22"/>
<path d="M122.835 45.5429C121.913 45.1205 120.915 44.4869 119.839 43.6421C118.803 42.7973 117.939 41.7989 117.247 40.6469C115.635 37.8821 114.828 34.2725 114.828 29.8181C114.828 27.0533 115.27 24.5957 116.153 22.4453C117.036 20.2565 118.111 18.5669 119.379 17.3765C120.646 16.1861 122.105 15.2069 123.756 14.4389C126.406 13.2101 129.055 12.5957 131.705 12.5957C136.159 12.5957 139.251 12.9413 140.979 13.6325C142.745 14.3237 143.628 15.4949 143.628 17.1461C143.628 18.7973 143.321 20.5637 142.707 22.4453C142.131 24.2885 141.363 25.2101 140.403 25.2101C140.095 25.2101 139.155 24.8837 137.58 24.2309C136.044 23.5781 134.7 23.2517 133.548 23.2517C132.435 23.2517 131.571 23.7125 130.956 24.6341C130.38 25.5173 130.092 27.2645 130.092 29.8757C130.092 32.4485 130.361 34.2149 130.899 35.1749C131.436 36.0965 132.262 36.5573 133.375 36.5573C134.527 36.5573 135.948 36.1733 137.638 35.4053C139.327 34.6373 140.268 34.2533 140.46 34.2533C141.19 34.2533 141.881 35.1173 142.534 36.8453C143.225 38.5733 143.571 40.1093 143.571 41.4533C143.571 43.5269 142.495 44.9861 140.345 45.8309C138.195 46.6373 135.276 47.0405 131.59 47.0405C127.942 47.0405 125.023 46.5413 122.835 45.5429Z" fill="#F97B22"/>
<path d="M162.06 44.5065C162.06 44.9289 160.985 45.2745 158.834 45.5433C156.684 45.7737 154.437 45.8889 152.095 45.8889C149.753 45.8889 148.236 45.7929 147.545 45.6009C146.853 45.3705 146.508 45.0057 146.508 44.5065V4.64734C146.508 3.80254 147.583 2.97694 149.733 2.17054C151.922 1.36414 154.265 0.960938 156.761 0.960938C160.293 0.960938 162.06 1.84414 162.06 3.61054V25.1529H162.809C164.652 16.3593 166.015 11.9625 166.898 11.9625C169.125 11.9625 171.813 12.4809 174.962 13.5177C178.111 14.5545 179.685 15.7065 179.685 16.9737C179.685 17.8953 178.917 19.6617 177.381 22.2729C175.845 24.8841 174.252 27.0153 172.601 28.6665C178.092 35.2329 180.837 39.1305 180.837 40.3593C180.837 41.5113 179.09 42.9129 175.596 44.5641C172.101 46.2153 169.644 47.0409 168.223 47.0409C167.532 47.0409 166.802 46.2153 166.034 44.5641C165.266 42.8745 164.441 40.3593 163.557 37.0185L162.06 38.8041V44.5065Z" fill="#F97B22"/>
</svg>
