<svg width="1674" height="564" viewBox="0 0 1674 564" fill="none" xmlns="http://www.w3.org/2000/svg">
<g clip-path="url(#clip0_1_11106)">
<path d="M837 1193C1068.75 1193 1278.75 1135.1 1430.95 1041.27C1583.08 947.485 1678 817.393 1678 673C1678 528.607 1583.08 398.515 1430.95 304.728C1278.75 210.902 1068.75 153 837 153C605.249 153 395.247 210.902 243.053 304.728C90.9219 398.515 -4 528.607 -4 673C-4 817.393 90.9219 947.485 243.053 1041.27C395.247 1135.1 605.249 1193 837 1193Z" fill="#FDF0DF" stroke="#F97B22" stroke-width="8"/>
<mask id="mask0_1_11106" style="mask-type:alpha" maskUnits="userSpaceOnUse" x="0" y="157" width="1674" height="1032">
<path d="M1673.5 673C1673.5 815.252 1579.97 944.115 1428.59 1037.44C1277.21 1130.76 1068.05 1188.5 837 1188.5C605.946 1188.5 396.79 1130.76 245.414 1037.44C94.0297 944.115 0.5 815.252 0.5 673C0.5 530.748 94.0297 401.885 245.414 308.559C396.79 215.237 605.946 157.5 837 157.5C1068.05 157.5 1277.21 215.237 1428.59 308.559C1579.97 401.885 1673.5 530.748 1673.5 673Z" fill="#F97B22" stroke="#64D396"/>
</mask>
<g mask="url(#mask0_1_11106)">
<rect x="238.385" y="293.312" width="149.728" height="149.728" fill="#FDF0DF"/>
<rect x="-60.832" y="293.312" width="149.728" height="149.728" fill="#FDF0DF"/>
<rect x="1585.38" y="143.656" width="149.728" height="149.728" fill="#FDF0DF"/>
<rect x="88.6562" y="443.041" width="149.728" height="149.728" fill="#FDF0DF"/>
<rect x="1585.38" y="443.111" width="149.728" height="149.728" fill="#FDF0DF"/>
<rect x="88.6562" y="143.656" width="149.728" height="149.728" fill="#FDF0DF"/>
<rect x="388.113" y="293.312" width="149.728" height="149.728" fill="#F97B22"/>
<rect x="88.6562" y="293.312" width="149.728" height="149.728" fill="#F97B22"/>
<rect x="238.385" y="443.041" width="149.728" height="149.728" fill="#F97B22"/>
<rect x="-60.832" y="443.041" width="149.728" height="149.728" fill="#F97B22"/>
<rect x="1585.38" y="293.385" width="149.728" height="149.728" fill="#F97B22"/>
<rect x="238.385" y="143.656" width="149.728" height="149.728" fill="#F97B22"/>
<rect x="-60.832" y="143.656" width="149.728" height="149.728" fill="#F97B22"/>
<rect x="537.84" y="293.312" width="149.728" height="149.728" fill="#FDF0DF"/>
<rect x="388.113" y="443.039" width="149.728" height="149.728" fill="#FDF0DF"/>
<rect x="388.113" y="143.656" width="149.728" height="149.728" fill="#FDF0DF"/>
<rect x="687.568" y="293.312" width="149.728" height="149.728" fill="#F97B22"/>
<rect x="537.84" y="443.039" width="149.728" height="149.728" fill="#F97B22"/>
<rect x="537.84" y="143.656" width="149.728" height="149.728" fill="#F97B22"/>
<rect x="837.297" y="293.312" width="149.728" height="149.728" fill="#FDF0DF"/>
<rect x="687.568" y="443.041" width="149.728" height="149.728" fill="#FDF0DF"/>
<rect x="687.568" y="143.656" width="149.728" height="149.728" fill="#FDF0DF"/>
<rect x="987.023" y="293.312" width="149.728" height="149.728" fill="#F97B22"/>
<rect x="837.297" y="443.041" width="149.728" height="149.728" fill="#F97B22"/>
<rect x="837.297" y="143.656" width="149.728" height="149.728" fill="#F97B22"/>
<rect x="1136.75" y="293.312" width="149.728" height="149.728" fill="#FDF0DF"/>
<rect x="987.023" y="443.039" width="149.728" height="149.728" fill="#FDF0DF"/>
<rect x="987.023" y="143.656" width="149.728" height="149.728" fill="#FDF0DF"/>
<rect x="1286.48" y="293.312" width="149.728" height="149.728" fill="#F97B22"/>
<rect x="1436.21" y="443.041" width="149.728" height="149.728" fill="#F97B22"/>
<rect x="1136.75" y="443.041" width="149.728" height="149.728" fill="#F97B22"/>
<rect x="1436.21" y="143.656" width="149.728" height="149.728" fill="#F97B22"/>
<rect x="1136.75" y="143.656" width="149.728" height="149.728" fill="#F97B22"/>
<rect x="1436.21" y="293.312" width="149.728" height="149.728" fill="#FDF0DF"/>
<rect x="1286.48" y="443.041" width="149.728" height="149.728" fill="#FDF0DF"/>
<rect x="1286.48" y="143.656" width="149.728" height="149.728" fill="#FDF0DF"/>
</g>
<path d="M924.788 45.281C925.003 45.0279 925.202 44.794 925.386 44.5795L1175.52 111.603C1174.33 114.288 1172.61 118.175 1170.49 123.026C1166.24 132.792 1160.4 146.472 1154.02 162.131C1141.29 193.407 1126.38 232.739 1117.85 264.569C1109.32 296.398 1102.57 337.918 1097.96 371.37C1095.65 388.119 1093.87 402.888 1092.67 413.471C1092.07 418.728 1091.62 422.953 1091.31 425.877L841.176 358.853C841.124 358.575 841.069 358.273 841.01 357.947C840.621 355.791 840.09 352.584 839.529 348.427C838.409 340.113 837.173 328.004 836.734 312.909C835.855 282.712 838.16 240.608 850.905 193.041C863.651 145.475 882.707 107.859 898.566 82.1476C906.494 69.2944 913.619 59.4251 918.746 52.7851C921.31 49.4654 923.374 46.9538 924.788 45.281Z" fill="#FDF0DF" stroke="#F97B22" stroke-width="7.84"/>
<path d="M940.753 93.9182L1099.7 136.507C1099.7 136.507 1073.37 194.609 1062.84 233.887C1052.32 273.165 1046.07 336.646 1046.07 336.646L887.126 294.058C887.126 294.058 877.028 248.09 893.026 188.384C909.024 128.679 940.753 93.9182 940.753 93.9182Z" fill="#FEE2CE"/>
<path d="M1132.38 168.294C1146.34 141.534 1162.47 121.897 1179.74 113.813C1182.68 118.179 1185.14 124.722 1186.92 133.336C1189.01 143.453 1190.08 155.979 1190.13 170.193C1190.24 198.612 1186.27 233.371 1178.62 268.266C1170.97 303.167 1159.68 338.032 1145.2 366.715C1131.34 394.16 1114.83 415.431 1096.28 426.013C1092.95 421.353 1090.24 414.452 1088.32 405.447C1086.06 394.893 1084.97 381.884 1084.99 367.183C1085.04 337.793 1089.56 302.084 1097.76 266.654C1105.96 231.218 1117.79 196.251 1132.38 168.294Z" fill="#FDF0DF" stroke="#F97B22" stroke-width="7.84"/>
<mask id="path-42-inside-1_1_11106" fill="white">
<path d="M929.48 19.877C931.081 13.9021 937.222 10.3564 943.197 11.9574L1178.5 75.0057C1184.47 76.6066 1188.02 82.748 1186.42 88.7228L1180.98 109.007L924.045 40.1614L929.48 19.877Z"/>
</mask>
<path d="M929.48 19.877C931.081 13.9021 937.222 10.3564 943.197 11.9574L1178.5 75.0057C1184.47 76.6066 1188.02 82.748 1186.42 88.7228L1180.98 109.007L924.045 40.1614L929.48 19.877Z" fill="#FDF0DF"/>
<path d="M921.907 17.8478C924.629 7.69063 935.069 1.6629 945.226 4.38451L1180.53 67.4328C1190.68 70.1544 1196.71 80.5948 1193.99 90.752L1178.84 86.6937C1179.32 84.9012 1178.26 83.0588 1176.47 82.5785L941.168 19.5302C939.376 19.0499 937.533 20.1137 937.053 21.9061L921.907 17.8478ZM1180.98 109.007L924.045 40.1614L1180.98 109.007ZM916.472 38.1323L921.907 17.8478C924.629 7.69063 935.069 1.6629 945.226 4.38451L941.168 19.5302C939.376 19.0499 937.533 20.1137 937.053 21.9061L931.618 42.1905L916.472 38.1323ZM1180.53 67.4328C1190.68 70.1544 1196.71 80.5948 1193.99 90.752L1188.55 111.036L1173.41 106.978L1178.84 86.6937C1179.32 84.9012 1178.26 83.0588 1176.47 82.5785L1180.53 67.4328Z" fill="#F97B22" mask="url(#path-42-inside-1_1_11106)"/>
<circle cx="625" cy="290" r="145" fill="#FDF0DF" stroke="#F97B22" stroke-width="8"/>
<circle cx="624.189" cy="290.81" r="99.6033" fill="#FEE2CE"/>
<path d="M456.793 371.775C452.386 354.107 465.751 337 483.961 337H1161.23C1179.39 337 1192.74 354.013 1188.43 371.65L1104.08 716.65C1101.02 729.183 1089.78 738 1076.88 738H570C557.145 738 545.942 729.248 542.832 716.775L456.793 371.775Z" fill="#FDF0DF" stroke="#F97B22" stroke-width="8"/>
<mask id="mask1_1_11106" style="mask-type:alpha" maskUnits="userSpaceOnUse" x="451" y="333" width="743" height="409">
<path d="M456.793 371.775C452.386 354.107 465.751 337 483.961 337H1161.23C1179.39 337 1192.74 354.013 1188.43 371.65L1104.08 716.65C1101.02 729.183 1089.78 738 1076.88 738H570C557.145 738 545.942 729.248 542.832 716.775L456.793 371.775Z" fill="#FDF0DF" stroke="#64D396" stroke-width="8"/>
</mask>
<g mask="url(#mask1_1_11106)">
<path d="M404 374H1204" stroke="#F97B22" stroke-width="8"/>
<path d="M404 442H1204" stroke="#F97B22" stroke-width="8"/>
<path d="M404 510H1204" stroke="#F97B22" stroke-width="8"/>
<path d="M477 157L477 957" stroke="#F97B22" stroke-width="8"/>
<path d="M546 157L546 957" stroke="#F97B22" stroke-width="8"/>
<path d="M615 157L615 957" stroke="#F97B22" stroke-width="8"/>
<path d="M684 157L684 957" stroke="#F97B22" stroke-width="8"/>
<path d="M753 157L753 957" stroke="#F97B22" stroke-width="8"/>
<path d="M822 157L822 957" stroke="#F97B22" stroke-width="8"/>
<path d="M891 157L891 957" stroke="#F97B22" stroke-width="8"/>
<path d="M960 157L960 957" stroke="#F97B22" stroke-width="8"/>
<path d="M1029 157L1029 957" stroke="#F97B22" stroke-width="8"/>
<path d="M1098 157L1098 957" stroke="#F97B22" stroke-width="8"/>
<path d="M1167 157L1167 957" stroke="#F97B22" stroke-width="8"/>
</g>
<path d="M985.799 247.281C985.799 286.811 968.542 315.777 940.581 335.013C912.45 354.366 873.255 363.999 829.499 363.999C785.743 363.999 746.548 354.366 718.417 335.013C690.456 315.777 673.199 286.811 673.199 247.281C673.199 167.999 742.873 103.199 829.499 103.199C916.126 103.199 985.799 167.999 985.799 247.281Z" fill="#FDF0DF" stroke="#F97B22" stroke-width="8"/>
<ellipse cx="777.7" cy="201.401" rx="14.7" ry="19.6" fill="#525252"/>
<ellipse cx="879.899" cy="201.401" rx="14.7" ry="19.6" fill="#525252"/>
<ellipse cx="830" cy="225" rx="13" ry="9" fill="#64D396"/>
<path d="M826.639 269.396C825.759 274.769 825.3 274.2 814.416 272.661C804.3 270.7 803.636 270.674 804.515 265.301C805.395 259.927 808.653 249.24 817.999 250.77C827.711 252.361 827.518 264.022 826.639 269.396Z" fill="#FFBDE8"/>
<path d="M798 257.4C797.533 260.2 796.6 265.8 789.6 271.4" stroke="#525252" stroke-width="6" stroke-linecap="round"/>
<path d="M796.6 265.801C808.957 274.127 837.792 282.892 868 265.801" stroke="#525252" stroke-width="6" stroke-linecap="round"/>
<path d="M941.558 77.1177C956.703 79.0315 965.966 86.049 975.441 94.266C976.416 95.1114 977.395 95.9712 978.383 96.8397C986.988 104.401 996.341 112.62 1010.51 117.633C1020.03 121.003 1030.96 122.327 1042.05 122.967C1047.61 123.288 1053.26 123.439 1058.83 123.579C1059.16 123.587 1059.48 123.595 1059.8 123.603C1065.06 123.734 1070.23 123.864 1075.26 124.123C1085.97 124.674 1095.73 125.804 1103.71 128.651C1111.59 131.46 1117.56 135.873 1121.05 142.945C1126.8 156.784 1125.53 180.126 1110.04 197.652C1094.65 215.052 1064.68 227.282 1011.95 217.568C957.898 207.61 925.566 169.938 914.407 135.86C908.808 118.764 908.649 102.928 913.33 92.0488C915.651 86.6548 919.135 82.523 923.713 79.9378C928.291 77.3527 934.19 76.1866 941.558 77.1177Z" fill="#F97B22" stroke="#F97B22" stroke-width="5.6"/>
<path d="M541.821 187.065L541.822 187.032V186.998C541.822 174.002 545.655 165.656 551.736 159.918C557.937 154.067 566.795 150.613 577.453 148.133C584.658 146.457 592.405 145.278 600.476 144.049C604.394 143.453 608.389 142.845 612.435 142.162C624.669 140.1 637.161 137.382 648.372 132.24C658.53 127.58 667.68 121.438 676.228 115.234C678.906 113.29 681.51 111.353 684.065 109.451C689.746 105.223 695.187 101.174 700.667 97.6378C708.563 92.5426 716.225 88.7342 724.179 87.2639C732.057 85.8077 740.389 86.6146 749.718 91.0383C756.004 94.0192 759.901 97.8021 762.08 102.049C764.266 106.311 764.868 111.323 764.052 117.003C762.401 128.49 755.038 142.113 744.708 155.941C724.143 183.467 692.917 210.385 677.088 220.392C620.517 250.658 586.624 250.448 567.169 239.298C547.686 228.132 541.385 205.238 541.821 187.065Z" fill="#F97B22" stroke="#F97B22" stroke-width="5.6"/>
<path d="M707.004 312.859L707.004 312.859C721.274 305.604 756.745 299.656 799.004 311.657C813.785 318.451 828.484 331.373 826.51 351.605L826.494 351.768L826.491 351.931C826.386 358.665 824.019 369.074 816.615 378C809.318 386.796 796.82 394.529 775.689 395.599L775.416 395.612L775.148 395.663C757.849 398.934 739.451 397.005 733.336 395.684L732.918 395.593H732.491C716.637 395.593 706.182 390.551 699.12 384.543C691.972 378.461 688.065 371.189 685.682 366.332C679.078 352.87 681.287 341.284 686.646 332.119C692.121 322.757 700.901 315.963 707.004 312.859Z" fill="#FDF0DF" stroke="#F97B22" stroke-width="8"/>
<path d="M861.004 314.258L861.004 314.258C875.274 307.002 910.745 301.055 953.004 313.056C967.785 319.849 982.484 332.771 980.51 353.003L980.494 353.166L980.491 353.329C980.386 360.064 978.019 370.472 970.615 379.398C963.318 388.194 950.82 395.927 929.689 396.997L929.416 397.011L929.148 397.061C911.849 400.332 893.451 398.403 887.336 397.082L886.918 396.992H886.491C870.637 396.992 860.182 391.95 853.12 385.941C845.972 379.859 842.065 372.588 839.682 367.73C833.078 354.268 835.287 342.682 840.646 333.517C846.121 324.156 854.901 317.361 861.004 314.258Z" fill="#FDF0DF" stroke="#F97B22" stroke-width="8"/>
</g>
<defs>
<clipPath id="clip0_1_11106">
<rect width="1674" height="564" fill="white"/>
</clipPath>
</defs>
</svg>
