<svg width="401" height="102" viewBox="0 0 401 102" fill="none" xmlns="http://www.w3.org/2000/svg">
<rect width="401" height="76" rx="38" fill="#F97B22"/>
<path d="M41.3887 46.5176H50.8848V44.8926H41.3887V46.5176ZM34.7109 35.9551C39.0273 35.9678 44.6514 35.9678 49.5898 35.3457L49.7422 37.6309C47.9648 37.9355 46.1367 38.1387 44.334 38.2783V40.9824H41.3887V42.4551H50.8848V40.5H54.084V49.082H38.1895V40.5H41.1094V38.4561C38.9639 38.5322 36.9199 38.5449 35.0918 38.5449L34.7109 35.9551ZM35.5234 32.5781C39.1924 31.8291 40.8555 29.8613 40.8809 27.7539V26.8145H44.207V27.7539C44.1943 29.709 45.8828 31.5625 49.4629 32.248L48.0918 34.6855C45.4385 34.1523 43.5977 32.9209 42.5693 31.2705C41.5664 33.0859 39.7002 34.457 36.9453 35.041L35.5234 32.5781ZM50.8594 39.5605V26.2559H54.084V39.5605H50.8594ZM76.1992 28.2363V30.4199C76.1865 33.3145 76.1865 36.5645 75.2598 41.4648L72.0098 41.1348C72.8984 36.7676 72.9365 33.5176 72.9492 30.8008H59.3398V28.2363H76.1992ZM57.1562 46.5176V43.877H64.6973V35.9297H67.9219V43.877H78.2305V46.5176H57.1562ZM104.789 26.2305V34.7617H107.125V37.4531H104.789V49.3359H101.59V26.2305H104.789ZM85.7969 44.0039V28.3125H88.4629V33.6699H89.9355V28.3125H92.5762V44.0039H85.7969ZM88.4629 41.3379H89.9355V36.2344H88.4629V41.3379ZM93.5156 44.0039V28.3125H96.1309V33.6699H97.6289V28.3125H100.27V44.0039H93.5156ZM96.1309 41.3379H97.6289V36.2344H96.1309V41.3379ZM129.24 44.0547V46.6953H108.09V44.0547H129.24ZM110.502 30.3691V27.7793H126.803V35.4727H113.777V38.1133H127.336V40.6523H110.527V32.8828H123.604V30.3691H110.502ZM150.594 26.2305V49.3359H147.547V26.2305H150.594ZM130.281 42.252C134.953 39.4844 137.01 36.1201 137.454 31.5879H131.551V28.9727H140.666C140.666 31.1816 140.425 33.2383 139.866 35.1426H142.646V26.7383H145.668V48.3203H142.646V37.707H138.863C137.543 40.3477 135.397 42.6328 132.109 44.5371L130.281 42.252ZM177.635 27.5762V29.6582C177.622 31.8164 177.622 34.165 177.038 37.4023H180.098V40.0176H171.084V49.3613H167.834V40.0176H159.023V37.4023H173.75C174.347 34.4316 174.397 32.1592 174.41 30.166H161.436V27.5762H177.635ZM201.527 26.2305V49.3359H198.43V37.6816H196.348V48.2695H193.275V26.5605H196.348V35.041H198.43V26.2305H201.527ZM182.154 43.5215V28.6172H191.346V43.5215H182.154ZM185.176 40.9824H188.324V31.1816H185.176V40.9824ZM225.09 36.5898V39.002H203.939V36.5898H225.09ZM206.352 42.3789V40.1445H222.551V45.6035H209.602V46.9238H223.236V49.1328H206.377V43.5469H219.352V42.3789H206.352ZM206.529 28.8457V26.6367H222.525V32.0703H209.805V33.3145H222.932V35.498H206.58V30.0137H219.275V28.8457H206.529ZM253.578 43.9785V46.6445H232.428V43.9785H237.15V38.3164C235.36 37.2373 234.281 35.5996 234.281 33.5684C234.281 29.8232 237.938 27.3604 242.965 27.3477C247.967 27.3604 251.661 29.8232 251.674 33.5684C251.661 35.5615 250.62 37.1738 248.881 38.2529V43.9785H253.578ZM237.48 33.5684C237.48 35.8281 239.651 37.2246 242.965 37.2246C246.228 37.2246 248.462 35.8281 248.475 33.5684C248.462 31.2451 246.228 29.8994 242.965 29.9121C239.651 29.8994 237.48 31.2451 237.48 33.5684ZM240.35 43.9785H245.605V39.4844C244.78 39.6494 243.892 39.7383 242.965 39.7383C242.038 39.7383 241.162 39.6494 240.35 39.4971V43.9785ZM268.076 28.6426V31.1816H263.404C263.442 33.5557 265.169 35.9678 268.889 36.9199L267.391 39.4082C264.75 38.748 262.909 37.2881 261.855 35.4092C260.853 37.542 258.999 39.2305 256.27 40.0176L254.746 37.5039C258.44 36.4375 260.154 33.7969 260.18 31.1816H255.533V28.6426H260.18V26.1289H263.455V28.6426H268.076ZM258.529 44.918C258.529 42.1504 261.576 40.5889 266.477 40.5762C271.402 40.5889 274.437 42.1504 274.449 44.918C274.437 47.7236 271.402 49.3486 266.477 49.3359C261.576 49.3486 258.529 47.7236 258.529 44.918ZM261.754 44.918C261.754 46.1875 263.417 46.873 266.477 46.873C269.6 46.873 271.212 46.1875 271.225 44.918C271.212 43.6865 269.6 43.0645 266.477 43.0645C263.417 43.0645 261.754 43.6865 261.754 44.918ZM267.391 35.0156V32.4258H271.148V26.2305H274.373V40.1953H271.148V35.0156H267.391ZM288.516 29.7598V32.3242H277.344V29.7598H281.355V26.8652H284.555V29.7598H288.516ZM277.877 38.8496C277.877 35.6377 280.035 33.3779 282.98 33.3652C285.938 33.3779 288.046 35.6377 288.059 38.8496C288.046 42.0742 285.938 44.3594 282.98 44.3594C280.035 44.3594 277.877 42.0742 277.877 38.8496ZM280.721 38.8496C280.721 40.6143 281.635 41.6172 282.98 41.6172C284.275 41.6172 285.202 40.6143 285.215 38.8496C285.202 37.1104 284.275 36.0566 282.98 36.0566C281.635 36.0566 280.721 37.1104 280.721 38.8496ZM289.379 48.3457V26.6875H292.4V35.625H294.279V26.2305H297.352V49.3359H294.279V38.2148H292.4V48.3457H289.379ZM320.99 44.0039V46.6445H299.84V44.0039H308.752V39.7383H302.074V27.7031H305.324V31.2832H315.404V27.7031H318.629V39.7383H311.977V44.0039H320.99ZM305.324 37.1484H315.404V33.873H305.324V37.1484ZM329.725 32.0449C329.712 35.79 330.753 39.6494 333.914 41.668L332.162 44.1816C330.156 42.9756 328.899 40.9697 328.163 38.6084C327.338 41.2236 325.954 43.4199 323.859 44.6895L321.879 42.3027C325.307 40.1826 326.576 36.1074 326.576 32.1973V28.2109H329.725V32.0449ZM331.477 36.666V34.0254H334.473V26.5605H337.494V48.2695H334.473V36.666H331.477ZM339.246 49.3359V26.2305H342.344V49.3359H339.246ZM365.932 43.9785V46.6445H344.781V43.9785H349.504V38.3164C347.714 37.2373 346.635 35.5996 346.635 33.5684C346.635 29.8232 350.291 27.3604 355.318 27.3477C360.32 27.3604 364.015 29.8232 364.027 33.5684C364.015 35.5615 362.974 37.1738 361.234 38.2529V43.9785H365.932ZM349.834 33.5684C349.834 35.8281 352.005 37.2246 355.318 37.2246C358.581 37.2246 360.815 35.8281 360.828 33.5684C360.815 31.2451 358.581 29.8994 355.318 29.9121C352.005 29.8994 349.834 31.2451 349.834 33.5684ZM352.703 43.9785H357.959V39.4844C357.134 39.6494 356.245 39.7383 355.318 39.7383C354.392 39.7383 353.516 39.6494 352.703 39.4971V43.9785Z" fill="#FDF0DF"/>
<path d="M202.203 99.2321C201.423 100.501 199.578 100.501 198.797 99.2321L184.5 76L216.5 76L202.203 99.2321Z" fill="#F97B22"/>
</svg>
