<svg width="670" height="310" viewBox="0 0 670 310" fill="none" xmlns="http://www.w3.org/2000/svg">
<g clip-path="url(#clip0_1_10966)">
<path d="M335 575.598C427.755 575.598 511.806 552.429 572.72 514.886C633.609 477.358 671.6 425.303 671.6 367.526C671.6 309.749 633.609 257.694 572.72 220.167C511.806 182.623 427.755 159.455 335 159.455C242.245 159.455 158.194 182.623 97.2797 220.167C36.3914 257.694 -1.6 309.749 -1.6 367.526C-1.6 425.303 36.3914 477.358 97.2797 514.886C158.194 552.429 242.245 575.598 335 575.598Z" fill="#FDF0DF" stroke="#F97B22" stroke-width="3.2"/>
<mask id="mask0_1_10966" style="mask-type:alpha" maskUnits="userSpaceOnUse" x="0" y="161" width="670" height="413">
<path d="M669.8 367.526C669.8 424.446 632.366 476.01 571.776 513.353C511.189 550.695 427.477 573.798 335 573.798C242.523 573.798 158.811 550.695 98.2242 513.353C37.6343 476.01 0.2 424.446 0.2 367.526C0.2 310.606 37.6343 259.043 98.2242 221.699C158.811 184.357 242.523 161.255 335 161.255C427.477 161.255 511.189 184.357 571.776 221.699C632.366 259.043 669.8 310.606 669.8 367.526Z" fill="#F97B22" stroke="#64D396" stroke-width="0.4"/>
</mask>
<g mask="url(#mask0_1_10966)">
<rect x="95.4121" y="215.598" width="59.927" height="59.9119" fill="#FDF0DF"/>
<rect x="-24.3477" y="215.598" width="59.927" height="59.9119" fill="#FDF0DF"/>
<rect x="634.533" y="155.715" width="59.927" height="59.9119" fill="#FDF0DF"/>
<rect x="35.4844" y="275.51" width="59.927" height="59.9119" fill="#FDF0DF"/>
<rect x="634.533" y="275.539" width="59.927" height="59.9119" fill="#FDF0DF"/>
<rect x="35.4844" y="155.715" width="59.927" height="59.9119" fill="#FDF0DF"/>
<rect x="155.338" y="215.598" width="59.927" height="59.9119" fill="#F97B22"/>
<rect x="35.4844" y="215.598" width="59.927" height="59.9119" fill="#F97B22"/>
<rect x="95.4121" y="275.51" width="59.927" height="59.9119" fill="#F97B22"/>
<rect x="-24.3477" y="275.51" width="59.927" height="59.9119" fill="#F97B22"/>
<rect x="634.533" y="215.627" width="59.927" height="59.9119" fill="#F97B22"/>
<rect x="95.4121" y="155.715" width="59.927" height="59.9119" fill="#F97B22"/>
<rect x="-24.3477" y="155.715" width="59.927" height="59.9119" fill="#F97B22"/>
<rect x="215.266" y="215.598" width="59.927" height="59.9119" fill="#FDF0DF"/>
<rect x="155.338" y="275.51" width="59.927" height="59.9119" fill="#FDF0DF"/>
<rect x="155.338" y="155.715" width="59.927" height="59.9119" fill="#FDF0DF"/>
<rect x="275.191" y="215.598" width="59.927" height="59.9119" fill="#F97B22"/>
<rect x="215.266" y="275.51" width="59.927" height="59.9119" fill="#F97B22"/>
<rect x="215.266" y="155.715" width="59.927" height="59.9119" fill="#F97B22"/>
<rect x="335.119" y="215.598" width="59.927" height="59.9119" fill="#FDF0DF"/>
<rect x="275.191" y="275.51" width="59.927" height="59.9119" fill="#FDF0DF"/>
<rect x="275.191" y="155.715" width="59.927" height="59.9119" fill="#FDF0DF"/>
<rect x="395.047" y="215.598" width="59.927" height="59.9119" fill="#F97B22"/>
<rect x="335.119" y="275.51" width="59.927" height="59.9119" fill="#F97B22"/>
<rect x="335.119" y="155.715" width="59.927" height="59.9119" fill="#F97B22"/>
<rect x="454.973" y="215.598" width="59.927" height="59.9119" fill="#FDF0DF"/>
<rect x="395.047" y="275.51" width="59.927" height="59.9119" fill="#FDF0DF"/>
<rect x="395.047" y="155.715" width="59.927" height="59.9119" fill="#FDF0DF"/>
<rect x="514.9" y="215.598" width="59.927" height="59.9119" fill="#F97B22"/>
<rect x="574.828" y="275.51" width="59.927" height="59.9119" fill="#F97B22"/>
<rect x="454.973" y="275.51" width="59.927" height="59.9119" fill="#F97B22"/>
<rect x="574.828" y="155.715" width="59.927" height="59.9119" fill="#F97B22"/>
<rect x="454.973" y="155.715" width="59.927" height="59.9119" fill="#F97B22"/>
<rect x="574.828" y="215.598" width="59.927" height="59.9119" fill="#FDF0DF"/>
<rect x="514.9" y="275.51" width="59.927" height="59.9119" fill="#FDF0DF"/>
<rect x="514.9" y="155.715" width="59.927" height="59.9119" fill="#FDF0DF"/>
</g>
<path d="M377.484 17.7407C377.587 17.619 377.682 17.5066 377.771 17.4034L497.91 49.5865C497.335 50.8758 496.509 52.7422 495.495 55.072C493.453 59.7613 490.646 66.3299 487.585 73.849C481.47 88.8667 474.306 107.752 470.21 123.036C466.114 138.319 462.872 158.256 460.657 174.318C459.548 182.36 458.694 189.452 458.117 194.534C457.83 197.058 457.612 199.088 457.465 200.491L337.326 168.308C337.301 168.175 337.274 168.03 337.246 167.873C337.059 166.837 336.804 165.297 336.535 163.302C335.996 159.309 335.403 153.495 335.192 146.247C334.77 131.747 335.877 111.53 341.999 88.6904C348.12 65.8506 357.272 47.7885 364.889 35.4429C368.697 29.2712 372.119 24.5323 374.582 21.344C375.813 19.7499 376.804 18.5439 377.484 17.7407Z" fill="#FDF0DF" stroke="#F97B22" stroke-width="3.7632"/>
<path d="M385.152 41.095L461.49 61.5445C461.49 61.5445 448.845 89.4432 443.79 108.303C438.735 127.163 435.733 157.645 435.733 157.645L359.395 137.195C359.395 137.195 354.546 115.123 362.229 86.4545C369.913 57.7859 385.152 41.095 385.152 41.095Z" fill="#FEE2CE"/>
<path d="M477.187 76.8062C483.893 63.9567 491.638 54.5272 499.933 50.6455C501.348 52.7423 502.528 55.8842 503.383 60.0209C504.388 64.8788 504.902 70.8937 504.927 77.7189C504.977 91.3648 503.074 108.055 499.4 124.81C495.726 141.568 490.299 158.31 483.345 172.082C476.691 185.26 468.761 195.475 459.851 200.556C458.251 198.318 456.95 195.004 456.024 190.68C454.94 185.612 454.415 179.365 454.427 172.306C454.452 158.194 456.622 141.048 460.559 124.035C464.496 107.02 470.18 90.2303 477.187 76.8062Z" fill="#FDF0DF" stroke="#F97B22" stroke-width="3.7632"/>
<mask id="path-42-inside-1_1_10966" fill="white">
<path d="M379.739 5.54039C380.508 2.67252 383.456 0.970466 386.324 1.73874L499.341 32.014C502.209 32.7823 503.911 35.73 503.142 38.5978L500.531 48.3396L377.128 15.2822L379.739 5.54039Z"/>
</mask>
<path d="M379.739 5.54039C380.508 2.67252 383.456 0.970466 386.324 1.73874L499.341 32.014C502.209 32.7823 503.911 35.73 503.142 38.5978L500.531 48.3396L377.128 15.2822L379.739 5.54039Z" fill="#FDF0DF"/>
<path d="M376.104 4.56663C377.411 -0.308745 382.422 -3.20224 387.298 -1.89617L500.315 28.3791C505.191 29.6852 508.084 34.6962 506.777 39.5716L499.507 37.6241C499.738 36.7637 499.227 35.8794 498.367 35.6489L385.35 5.37365C384.489 5.14317 383.605 5.65379 383.374 6.51415L376.104 4.56663ZM500.531 48.3396L377.128 15.2822L500.531 48.3396ZM373.493 14.3084L376.104 4.56663C377.411 -0.308745 382.422 -3.20224 387.298 -1.89617L385.35 5.37365C384.489 5.14317 383.605 5.65379 383.374 6.51415L380.763 16.2559L373.493 14.3084ZM500.315 28.3791C505.191 29.6852 508.084 34.6962 506.777 39.5716L504.166 49.3134L496.896 47.3659L499.507 37.6241C499.738 36.7637 499.227 35.8794 498.367 35.6489L500.315 28.3791Z" fill="#F97B22" mask="url(#path-42-inside-1_1_10966)"/>
<path d="M303.143 135.246C303.143 173.698 271.963 204.871 233.5 204.871C195.037 204.871 163.858 173.698 163.858 135.246C163.858 96.7937 195.037 65.6212 233.5 65.6212C271.963 65.6212 303.143 96.7937 303.143 135.246Z" fill="#FDF0DF" stroke="#F97B22" stroke-width="3.84"/>
<ellipse cx="233.112" cy="135.635" rx="47.8381" ry="47.8261" fill="#FEE2CE"/>
<path d="M152.71 174.506C150.594 166.025 157.009 157.813 165.75 157.813H491.056C499.772 157.813 506.182 165.98 504.112 174.445L463.596 340.113C462.125 346.129 456.734 350.361 450.541 350.361H207.076C200.906 350.361 195.529 346.16 194.036 340.173L152.71 174.506Z" fill="#FDF0DF" stroke="#F97B22" stroke-width="3.84"/>
<mask id="mask1_1_10966" style="mask-type:alpha" maskUnits="userSpaceOnUse" x="150" y="155" width="357" height="198">
<path d="M152.71 174.506C150.594 166.025 157.009 157.813 165.75 157.813H491.056C499.772 157.813 506.182 165.98 504.112 174.445L463.596 340.113C462.125 346.129 456.734 350.361 450.541 350.361H207.076C200.906 350.361 195.529 346.16 194.036 340.173L152.71 174.506Z" fill="#FDF0DF" stroke="#64D396" stroke-width="3.84"/>
</mask>
<g mask="url(#mask1_1_10966)">
<path d="M127.355 175.58H511.585" stroke="#F97B22" stroke-width="3.84"/>
<path d="M127.355 208.23H511.585" stroke="#F97B22" stroke-width="3.84"/>
<path d="M127.355 240.883H511.585" stroke="#F97B22" stroke-width="3.84"/>
<path d="M127.355 273.533H511.585" stroke="#F97B22" stroke-width="3.84"/>
<path d="M127.355 306.184H511.585" stroke="#F97B22" stroke-width="3.84"/>
<path d="M162.416 71.3828L162.416 455.516" stroke="#F97B22" stroke-width="3.84"/>
<path d="M195.557 71.3828L195.557 455.516" stroke="#F97B22" stroke-width="3.84"/>
<path d="M228.695 71.3828L228.695 455.516" stroke="#F97B22" stroke-width="3.84"/>
<path d="M261.836 71.3828L261.836 455.516" stroke="#F97B22" stroke-width="3.84"/>
<path d="M294.975 71.3828L294.975 455.516" stroke="#F97B22" stroke-width="3.84"/>
<path d="M328.115 71.3828L328.115 455.516" stroke="#F97B22" stroke-width="3.84"/>
<path d="M361.254 71.3828L361.254 455.516" stroke="#F97B22" stroke-width="3.84"/>
<path d="M394.395 71.3828L394.395 455.516" stroke="#F97B22" stroke-width="3.84"/>
<path d="M427.535 71.3828L427.535 455.516" stroke="#F97B22" stroke-width="3.84"/>
<path d="M460.674 71.3828L460.674 455.516" stroke="#F97B22" stroke-width="3.84"/>
<path d="M493.814 71.3828L493.814 455.516" stroke="#F97B22" stroke-width="3.84"/>
</g>
<path d="M406.788 114.733C406.788 133.714 398.5 147.622 385.071 156.859C371.559 166.152 352.734 170.778 331.718 170.778C310.703 170.778 291.878 166.152 278.366 156.859C264.937 147.622 256.649 133.714 256.649 114.733C256.649 76.6644 290.112 45.5489 331.718 45.5489C373.325 45.5489 406.788 76.6644 406.788 114.733Z" fill="#FDF0DF" stroke="#F97B22" stroke-width="3.84"/>
<ellipse cx="306.84" cy="92.7023" rx="7.06022" ry="9.41126" fill="#525252"/>
<ellipse cx="355.925" cy="92.7023" rx="7.06022" ry="9.41126" fill="#525252"/>
<ellipse cx="331.959" cy="104.034" rx="6.24373" ry="4.3215" fill="#64D396"/>
<path d="M330.344 125.351C329.921 127.931 329.701 127.658 324.473 126.919C319.615 125.978 319.295 125.966 319.718 123.386C320.141 120.806 321.706 115.674 326.195 116.408C330.859 117.172 330.766 122.771 330.344 125.351Z" fill="#FFBDE8"/>
<path d="M316.589 119.592C316.365 120.936 315.917 123.625 312.555 126.314" stroke="#525252" stroke-width="2.88" stroke-linecap="round"/>
<path d="M315.918 123.625C321.853 127.623 335.702 131.832 350.21 123.625" stroke="#525252" stroke-width="2.88" stroke-linecap="round"/>
<path d="M385.539 33.0258C392.813 33.9448 397.263 37.3145 401.814 41.2601C402.282 41.666 402.752 42.0789 403.226 42.4959C407.359 46.1268 411.851 50.0728 418.655 52.4797C423.23 54.0982 428.478 54.7337 433.804 55.041C436.473 55.1951 439.187 55.2676 441.864 55.3348C442.02 55.3387 442.175 55.3426 442.331 55.3465C444.854 55.4096 447.34 55.4718 449.753 55.596C454.897 55.8606 459.586 56.4033 463.42 57.7702C467.205 59.1192 470.072 61.2385 471.75 64.6347C474.509 71.2796 473.9 82.4874 466.458 90.903C459.069 99.2582 444.671 105.13 419.347 100.466C393.386 95.6845 377.858 77.5957 372.498 61.2325C369.809 53.0234 369.732 45.4196 371.981 40.1957C373.095 37.6056 374.769 35.6215 376.968 34.3801C379.167 33.1387 382 32.5787 385.539 33.0258Z" fill="#F97B22" stroke="#F97B22" stroke-width="2.688"/>
<path d="M193.549 85.8186L193.55 85.8025V85.7864C193.55 79.5459 195.391 75.5386 198.312 72.783C201.29 69.9733 205.545 68.3152 210.663 67.1243C214.124 66.3192 217.845 65.753 221.721 65.1631C223.603 64.8767 225.522 64.5848 227.465 64.2572C233.341 63.2667 239.34 61.9617 244.725 59.4927C249.603 57.2555 253.998 54.3062 258.104 51.3272C259.39 50.394 260.64 49.4636 261.867 48.5505C264.596 46.5203 267.209 44.576 269.841 42.8782C273.634 40.4316 277.314 38.6028 281.134 37.8968C284.918 37.1975 288.92 37.585 293.401 39.7092C296.42 41.1406 298.292 42.9571 299.338 44.9966C300.389 47.0428 300.677 49.4494 300.285 52.1771C299.493 57.6927 295.956 64.2342 290.995 70.8736C281.118 84.0912 266.12 97.0161 258.517 101.821C231.347 116.354 215.068 116.253 205.724 110.899C196.366 105.538 193.34 94.5445 193.549 85.8186Z" fill="#F97B22" stroke="#F97B22" stroke-width="2.688"/>
<path d="M272.884 146.221L272.884 146.221C279.738 142.737 296.775 139.881 317.071 145.644C324.171 148.906 331.231 155.111 330.283 164.826L330.275 164.904L330.274 164.983C330.223 168.216 329.086 173.214 325.53 177.5C322.025 181.724 316.022 185.437 305.873 185.951L305.742 185.958L305.613 185.982C297.304 187.552 288.468 186.626 285.531 185.992L285.33 185.949H285.125C277.51 185.949 272.489 183.527 269.097 180.642C265.664 177.721 263.787 174.23 262.642 171.898C259.47 165.433 260.531 159.87 263.106 155.469C265.735 150.974 269.952 147.711 272.884 146.221Z" fill="#FDF0DF" stroke="#F97B22" stroke-width="3.84"/>
<path d="M346.848 146.893L346.848 146.893C353.702 143.409 370.739 140.553 391.036 146.316C398.136 149.578 405.195 155.783 404.247 165.498L404.24 165.576L404.239 165.654C404.188 168.888 403.051 173.886 399.495 178.172C395.99 182.396 389.987 186.109 379.837 186.623L379.707 186.629L379.578 186.654C371.269 188.224 362.433 187.298 359.495 186.664L359.295 186.62H359.09C351.475 186.62 346.453 184.199 343.062 181.314C339.629 178.393 337.752 174.902 336.607 172.57C333.435 166.105 334.496 160.542 337.07 156.141C339.7 151.646 343.917 148.383 346.848 146.893Z" fill="#FDF0DF" stroke="#F97B22" stroke-width="3.84"/>
</g>
<defs>
<clipPath id="clip0_1_10966">
<rect width="670" height="310" fill="white"/>
</clipPath>
</defs>
</svg>
