<svg width="100" height="100" viewBox="0 0 100 100" fill="none" xmlns="http://www.w3.org/2000/svg">
<rect x="0.5" y="0.5" width="99" height="99" rx="5.5" fill="white"/>
<rect x="0.5" y="0.5" width="99" height="99" rx="5.5" stroke="#FCC49C"/>
<path fill-rule="evenodd" clip-rule="evenodd" d="M55.3337 42.9993C54.4132 42.9993 53.667 43.7455 53.667 44.666C53.667 45.5865 54.4132 46.3327 55.3337 46.3327C56.2541 46.3327 57.0003 45.5865 57.0003 44.666C57.0003 43.7455 56.2541 42.9993 55.3337 42.9993ZM51.667 44.666C51.667 42.641 53.3086 40.9993 55.3337 40.9993C57.3587 40.9993 59.0003 42.641 59.0003 44.666C59.0003 46.6911 57.3587 48.3327 55.3337 48.3327C53.3086 48.3327 51.667 46.6911 51.667 44.666Z" fill="#E0E0E0"/>
<path fill-rule="evenodd" clip-rule="evenodd" d="M49.9238 35.666H50.0768C53.1547 35.666 55.5667 35.666 57.4487 35.919C59.375 36.178 60.8951 36.7185 62.0881 37.9115C63.2812 39.1046 63.8217 40.6246 64.0807 42.551C64.3337 44.4329 64.3337 46.845 64.3337 49.9229V50.0758C64.3337 53.1537 64.3337 55.5658 64.0807 57.4477C63.8217 59.3741 63.2812 60.8941 62.0881 62.0872C60.8951 63.2802 59.375 63.8207 57.4487 64.0797C55.5667 64.3327 53.1547 64.3327 50.0768 64.3327H49.9238C46.846 64.3327 44.4339 64.3327 42.5519 64.0797C40.6256 63.8207 39.1056 63.2802 37.9125 62.0872C36.7194 60.8941 36.179 59.3741 35.92 57.4477C35.667 55.5658 35.667 53.1537 35.667 50.0759V49.9228C35.667 46.845 35.667 44.4329 35.92 42.551C36.179 40.6246 36.7194 39.1046 37.9125 37.9115C39.1056 36.7185 40.6256 36.178 42.5519 35.919C44.4339 35.666 46.846 35.666 49.9238 35.666ZM39.3267 60.673C38.5672 59.9134 38.1313 58.8858 37.9022 57.1812C37.6975 55.6592 37.6709 53.7174 37.6675 51.1195L39.6609 49.3753C40.4798 48.6588 41.7139 48.6999 42.4832 49.4693L48.2028 55.1889C49.4628 56.4488 51.4461 56.6206 52.9039 55.5961L53.3015 55.3167C54.4457 54.5125 55.9938 54.6057 57.0333 55.5413L61.3314 59.4095C61.3781 59.4516 61.4278 59.4885 61.4796 59.5201C61.2641 59.9747 60.9986 60.3483 60.6739 60.673C59.9144 61.4325 58.8868 61.8684 57.1822 62.0975C55.4489 62.3306 53.1713 62.3327 50.0003 62.3327C46.8294 62.3327 44.5517 62.3306 42.8184 62.0975C41.1139 61.8684 40.0863 61.4325 39.3267 60.673ZM42.8184 37.9012C41.1139 38.1303 40.0863 38.5662 39.3267 39.3257C38.5672 40.0853 38.1313 41.1129 37.9022 42.8175C37.7086 44.2568 37.6744 46.0714 37.6683 48.4613L38.3439 47.8701C39.9552 46.4603 42.3835 46.5412 43.8974 48.055L49.617 53.7747C50.1897 54.3474 51.0912 54.4255 51.7539 53.9598L52.1515 53.6803C54.0585 52.3401 56.6387 52.4954 58.3712 54.0547L62.0699 57.3834C62.0798 57.3171 62.0893 57.2497 62.0985 57.1812C62.3315 55.4479 62.3337 53.1703 62.3337 49.9993C62.3337 46.8284 62.3315 44.5508 62.0985 42.8175C61.8693 41.1129 61.4335 40.0853 60.6739 39.3257C59.9144 38.5662 58.8868 38.1303 57.1822 37.9012C55.4489 37.6681 53.1713 37.666 50.0003 37.666C46.8294 37.666 44.5517 37.6681 42.8184 37.9012Z" fill="#E0E0E0"/>
</svg>
