<svg width="160" height="160" viewBox="0 0 160 160" fill="none" xmlns="http://www.w3.org/2000/svg">
<rect x="0.5" y="0.5" width="159" height="159" rx="5.5" fill="white"/>
<rect x="0.5" y="0.5" width="159" height="159" rx="5.5" stroke="#FCC49C"/>
<path fill-rule="evenodd" clip-rule="evenodd" d="M86.6663 71.2507C85.5157 71.2507 84.583 72.1834 84.583 73.334C84.583 74.4846 85.5157 75.4173 86.6663 75.4173C87.8169 75.4173 88.7497 74.4846 88.7497 73.334C88.7497 72.1834 87.8169 71.2507 86.6663 71.2507ZM82.083 73.334C82.083 70.8027 84.135 68.7507 86.6663 68.7507C89.1976 68.7507 91.2497 70.8027 91.2497 73.334C91.2497 75.8653 89.1976 77.9173 86.6663 77.9173C84.135 77.9173 82.083 75.8653 82.083 73.334Z" fill="#E0E0E0"/>
<path fill-rule="evenodd" clip-rule="evenodd" d="M79.904 62.084H80.0953C83.9426 62.084 86.9577 62.0839 89.3102 62.4002C91.7181 62.724 93.6181 63.3995 95.1094 64.8909C96.6008 66.3822 97.2764 68.2823 97.6001 70.6902C97.9164 73.0426 97.9164 76.0577 97.9163 79.905V80.0963C97.9164 83.9436 97.9164 86.9587 97.6001 89.3111C97.2764 91.719 96.6008 93.6191 95.1094 95.1104C93.6181 96.6018 91.7181 97.2773 89.3102 97.6011C86.9577 97.9174 83.9426 97.9173 80.0953 97.9173H79.9041C76.0567 97.9173 73.0417 97.9174 70.6892 97.6011C68.2813 97.2773 66.3813 96.6018 64.8899 95.1104C63.3986 93.6191 62.723 91.719 62.3993 89.3111C62.083 86.9587 62.083 83.9436 62.083 80.0963V79.905C62.083 76.0577 62.083 73.0426 62.3993 70.6902C62.723 68.2823 63.3986 66.3822 64.8899 64.8909C66.3813 63.3995 68.2813 62.724 70.6892 62.4002C73.0417 62.0839 76.0567 62.084 79.904 62.084ZM66.6577 93.3427C65.7082 92.3932 65.1634 91.1087 64.877 88.978C64.6212 87.0754 64.5879 84.6482 64.5836 81.4009L67.0754 79.2206C68.099 78.325 69.6416 78.3763 70.6033 79.338L77.7528 86.4876C79.3277 88.0625 81.8068 88.2772 83.6291 86.9966L84.1261 86.6473C85.5564 85.6421 87.4915 85.7586 88.7909 86.928L94.1635 91.7633C94.2219 91.816 94.284 91.862 94.3488 91.9016C94.0794 92.4698 93.7475 92.9368 93.3417 93.3427C92.3923 94.2921 91.1077 94.8369 88.977 95.1234C86.8104 95.4147 83.9634 95.4173 79.9997 95.4173C76.036 95.4173 73.1889 95.4147 71.0223 95.1234C68.8916 94.8369 67.6071 94.2921 66.6577 93.3427ZM71.0223 64.8779C68.8916 65.1644 67.6071 65.7092 66.6577 66.6586C65.7082 67.6081 65.1634 68.8926 64.877 71.0233C64.6351 72.8224 64.5922 75.0908 64.5846 78.0781L65.4292 77.3391C67.4432 75.5768 70.4787 75.6779 72.371 77.5703L79.5206 84.7198C80.2364 85.4357 81.3633 85.5333 82.1916 84.9512L82.6886 84.6019C85.0724 82.9266 88.2976 83.1207 90.4633 85.0698L95.0866 89.2307C95.099 89.1478 95.1109 89.0636 95.1224 88.978C95.4137 86.8114 95.4163 83.9644 95.4163 80.0007C95.4163 76.0369 95.4137 73.1899 95.1224 71.0233C94.8359 68.8926 94.2911 67.6081 93.3417 66.6586C92.3923 65.7092 91.1077 65.1644 88.977 64.8779C86.8104 64.5866 83.9634 64.584 79.9997 64.584C76.036 64.584 73.1889 64.5866 71.0223 64.8779Z" fill="#E0E0E0"/>
</svg>
