<svg width="182" height="110" viewBox="0 0 182 110" fill="none" xmlns="http://www.w3.org/2000/svg">
<path d="M1.57617 95.6934H177.597" stroke="#6B6B6B" stroke-width="2" stroke-linecap="round"/>
<path d="M138.5 57.71C138.5 69.8875 133.179 78.8228 124.561 84.7519C115.9 90.7101 103.852 93.6647 90.4287 93.6647C77.0053 93.6647 64.9575 90.7101 56.2967 84.7519C47.6784 78.8228 42.3572 69.8875 42.3572 57.71C42.3572 33.2998 63.8034 13.3789 90.4287 13.3789C117.054 13.3789 138.5 33.2998 138.5 57.71Z" fill="#FDF0DF" stroke="#C4C4C4" stroke-width="2"/>
<ellipse cx="74.5715" cy="43.6641" rx="4.5" ry="6.00001" fill="#525252"/>
<ellipse cx="105.857" cy="43.6641" rx="4.5" ry="6.00001" fill="#525252"/>
<ellipse cx="90.2145" cy="52.8786" rx="3.42857" ry="2.35715" fill="#FEE8B0"/>
<path d="M89.5531 64.4799C89.2838 66.1248 89.1433 65.9506 85.8114 65.4795C82.7147 64.8792 82.5114 64.8712 82.7806 63.2264C83.0499 61.5815 84.0474 58.3098 86.9083 58.7783C89.8814 59.2651 89.8223 62.8351 89.5531 64.4799Z" fill="#FFBDE8"/>
<path d="M80.7863 60.8066C80.6434 61.6638 80.3577 63.3781 78.2148 65.0924" stroke="#525252" stroke-width="2" stroke-linecap="round"/>
<path d="M80.3569 63.3789C84.1399 65.9278 92.9668 68.6109 102.214 63.3789" stroke="#525252" stroke-width="2" stroke-linecap="round"/>
<path d="M124.714 5.76018C129.307 6.34058 132.116 8.46541 135.011 10.9759C135.309 11.2342 135.608 11.4973 135.911 11.7633C138.544 14.0777 141.427 16.6114 145.791 18.1556C148.727 19.1943 152.088 19.6003 155.486 19.7965C157.191 19.8949 158.923 19.9412 160.628 19.984C160.728 19.9865 160.827 19.989 160.926 19.9915C162.534 20.0317 164.117 20.0713 165.653 20.1504C168.929 20.319 171.9 20.6643 174.323 21.5284C176.709 22.3791 178.501 23.7084 179.55 25.8289C181.286 30.0172 180.904 37.1012 176.2 42.4222C171.536 47.698 162.418 51.4412 146.306 48.4729C129.817 45.435 119.958 33.9442 116.556 23.5564C114.849 18.3421 114.808 13.5329 116.222 10.2457C116.922 8.61837 117.97 7.37979 119.34 6.60614C120.71 5.83253 122.483 5.47827 124.714 5.76018Z" fill="#C4C4C4" stroke="#C4C4C4" stroke-width="2"/>
<path d="M2.5063 39.2791L2.50659 39.2672V39.2552C2.50659 35.3079 3.66915 32.7938 5.49687 31.0691C7.3672 29.3043 10.0489 28.2543 13.3036 27.4969C15.5038 26.9849 17.866 26.6253 20.3335 26.2498C21.5342 26.067 22.7598 25.8805 24.0037 25.6707C27.7518 25.0388 31.5912 24.2044 35.0407 22.6222C38.1633 21.1899 40.9736 19.3029 43.5926 17.4021C44.4157 16.8047 45.2145 16.2102 45.9976 15.6274C47.7347 14.3346 49.3941 13.0997 51.0674 12.0199C53.4779 10.4645 55.805 9.30987 58.2134 8.86469C60.5948 8.42453 63.1149 8.667 65.9443 10.0087C67.8462 10.9106 69.0128 12.0487 69.6627 13.3155C70.3153 14.5874 70.4988 16.0902 70.252 17.8078C69.7521 21.2876 67.5158 25.4344 64.3574 29.6622C58.0745 38.0723 48.5323 46.298 43.6998 49.3541C26.3973 58.6103 16.0829 58.5163 10.1942 55.1414C4.29558 51.7607 2.37357 44.8177 2.5063 39.2791Z" fill="#C4C4C4" stroke="#C4C4C4" stroke-width="2"/>
<path d="M60.9436 103.357L60.8392 103.334H60.7324C55.8261 103.334 52.5739 101.772 50.3715 99.8981C48.1474 98.0057 46.9348 95.7459 46.2016 94.2513C44.142 90.0528 44.8317 86.4262 46.5046 83.5657C48.2061 80.656 50.9295 78.5487 52.8286 77.583L52.3754 76.6916L52.8286 77.583C57.2602 75.3297 68.1867 73.5123 81.1715 77.204C85.7319 79.2957 90.3563 83.3198 89.7372 89.6659L89.7332 89.7066L89.7326 89.7474C89.6997 91.8501 88.9626 95.0886 86.6574 97.8674C84.3791 100.614 80.4919 103.005 73.9676 103.336L73.8994 103.339L73.8324 103.352C68.5019 104.36 62.839 103.767 60.9436 103.357Z" fill="#FDF0DF" stroke="#C4C4C4" stroke-width="2"/>
<path d="M108.087 103.787L107.982 103.764H107.875C102.969 103.764 99.7169 102.202 97.5145 100.328C95.2905 98.4353 94.0779 96.1756 93.3447 94.681C91.285 90.4825 91.9748 86.8559 93.6476 83.9953C95.3492 81.0856 98.0725 78.9783 99.9717 78.0127L99.5184 77.1213L99.9717 78.0127C104.403 75.7594 115.33 73.942 128.315 77.6337C132.875 79.7254 137.499 83.7495 136.88 90.0956L136.876 90.1363L136.876 90.1771C136.843 92.2797 136.106 95.5183 133.801 98.2971C131.522 101.044 127.635 103.435 121.111 103.765L121.042 103.769L120.975 103.782C115.645 104.789 109.982 104.196 108.087 103.787Z" fill="#FDF0DF" stroke="#C4C4C4" stroke-width="2"/>
</svg>
