<svg width="241" height="140" viewBox="0 0 241 140" fill="none" xmlns="http://www.w3.org/2000/svg">
<path d="M1.10181 123.924H235.796" stroke="#6B6B6B" stroke-width="2" stroke-linecap="round"/>
<path d="M184.001 73.6133C184.001 89.9634 176.849 101.978 165.27 109.944C153.649 117.938 137.512 121.886 119.572 121.886C101.632 121.886 85.4947 117.938 73.8738 109.944C62.2955 101.978 55.1434 89.9634 55.1434 73.6133C55.1434 40.8579 83.913 14.1719 119.572 14.1719C155.231 14.1719 184.001 40.8579 184.001 73.6133Z" fill="#FDF0DF" stroke="#C4C4C4" stroke-width="2"/>
<ellipse cx="98.4286" cy="54.8848" rx="6.00001" ry="8.00001" fill="#525252"/>
<ellipse cx="140.143" cy="54.8848" rx="6.00001" ry="8.00001" fill="#525252"/>
<ellipse cx="119.287" cy="67.1702" rx="4.57143" ry="3.14286" fill="#FEE8B0"/>
<path d="M118.405 82.6392C118.046 84.8324 117.859 84.6002 113.416 83.972C109.287 83.1716 109.016 83.161 109.375 80.9678C109.734 78.7747 111.064 74.4125 114.879 75.0371C118.843 75.6861 118.764 80.4461 118.405 82.6392Z" fill="#FFBDE8"/>
<path d="M106.716 77.7422C106.525 78.885 106.144 81.1708 103.287 83.4565" stroke="#525252" stroke-width="2" stroke-linecap="round"/>
<path d="M106.144 81.1719C111.188 84.5704 122.957 88.1478 135.287 81.1719" stroke="#525252" stroke-width="2" stroke-linecap="round"/>
<path d="M165.327 4.01555C171.552 4.80215 175.36 7.68982 179.233 11.0487C179.631 11.3941 180.031 11.7452 180.434 12.0996C183.948 15.1865 187.745 18.5229 193.5 20.5593C197.368 21.9282 201.812 22.4675 206.334 22.7286C208.6 22.8594 210.905 22.921 213.179 22.9782C213.312 22.9815 213.445 22.9848 213.577 22.9881C215.721 23.0417 217.835 23.0946 219.888 23.2003C224.262 23.4254 228.264 23.8873 231.543 25.0566C234.785 26.2125 237.257 28.0355 238.703 30.9667C241.07 36.6633 240.547 46.2518 234.183 53.4497C227.86 60.6023 215.565 65.5947 194.014 61.6243C171.896 57.5494 158.661 42.1321 154.091 28.1782C151.8 21.181 151.727 14.6789 153.656 10.1952C154.614 7.96961 156.055 6.25688 157.956 5.18395C159.856 4.11106 162.295 3.63239 165.327 4.01555Z" fill="#C4C4C4" stroke="#C4C4C4" stroke-width="2"/>
<path d="M2.00874 49.0302L2.00903 49.0182V49.0062C2.00903 43.6703 3.58441 40.2234 6.10064 37.8491C8.65947 35.4345 12.3053 34.0179 16.6628 33.0039C19.6089 32.3183 22.7804 31.8355 26.0782 31.3335C27.6761 31.0903 29.3037 30.8425 30.9498 30.565C35.9406 29.7235 41.0242 28.6166 45.5822 26.5259C49.7154 24.6301 53.4412 22.1297 56.9279 19.599C58.0176 18.8081 59.0786 18.0185 60.1207 17.243C62.4416 15.5158 64.6687 13.8584 66.9093 12.4125C70.139 10.3285 73.2844 8.76283 76.5576 8.15782C79.8036 7.55783 83.2348 7.89169 87.0688 9.70978C89.6569 10.9371 91.274 12.501 92.1805 14.2679C93.0896 16.0399 93.3358 18.1171 92.9996 20.4572C92.3207 25.182 89.2971 30.7663 85.0771 36.4151C76.6711 47.6671 63.9091 58.6681 57.4345 62.7597C34.3295 75.1223 20.4343 75.0663 12.4268 70.477C4.40927 65.882 1.83039 56.4722 2.00874 49.0302Z" fill="#C4C4C4" stroke="#C4C4C4" stroke-width="2"/>
<path d="M80.1877 134.801L80.0833 134.779H79.9765C73.3559 134.779 68.9429 132.668 65.9459 130.117C62.9272 127.549 61.286 124.485 60.3028 122.481C57.5003 116.768 58.4401 111.814 60.7183 107.919C63.0252 103.974 66.7093 101.124 69.287 99.8129L68.8338 98.9215L69.287 99.8129C75.29 96.7606 89.9594 94.3421 107.344 99.2911C113.477 102.098 119.829 107.565 118.981 116.253L118.977 116.294L118.977 116.334C118.932 119.199 117.931 123.595 114.8 127.369C111.696 131.11 106.422 134.335 97.6402 134.78L97.5721 134.783L97.505 134.796C90.346 136.15 82.7498 135.355 80.1877 134.801Z" fill="#FDF0DF" stroke="#C4C4C4" stroke-width="2"/>
<path d="M143.046 135.373L142.941 135.351H142.834C136.214 135.351 131.801 133.24 128.804 130.69C125.785 128.121 124.144 125.058 123.161 123.053C120.358 117.341 121.298 112.387 123.576 108.491C125.883 104.546 129.567 101.696 132.145 100.385L131.692 99.4938L132.145 100.385C138.148 97.3329 152.817 94.9144 170.202 99.8634C176.335 102.67 182.687 108.137 181.839 116.825L181.835 116.866L181.835 116.907C181.79 119.771 180.789 124.167 177.658 127.941C174.554 131.683 169.28 134.908 160.498 135.352L160.43 135.356L160.363 135.368C153.204 136.722 145.608 135.927 143.046 135.373Z" fill="#FDF0DF" stroke="#C4C4C4" stroke-width="2"/>
</svg>
