<svg width="181" height="160" viewBox="0 0 181 160" fill="none" xmlns="http://www.w3.org/2000/svg">
<path fill-rule="evenodd" clip-rule="evenodd" d="M93.0493 54.4413C106.487 53.1585 116.996 41.8397 116.996 28.0663C116.996 13.433 105.133 1.57031 90.4999 1.57031C75.8666 1.57031 64.0039 13.433 64.0039 28.0663C64.0039 41.7911 74.4392 53.0786 87.8084 54.4273L90.0918 58.8045C90.2354 59.0797 90.6292 59.0797 90.7727 58.8045L93.0493 54.4413Z" fill="#FDF0DF"/>
<path d="M86.6597 15.7793H94.3397L93.1877 34.9793H87.8117L86.6597 15.7793Z" fill="#F97B22"/>
<rect x="87.8115" y="36.5156" width="5.376" height="3.84" fill="#F97B22"/>
<path d="M2.18018 150.146H178.82" stroke="#6B6B6B" stroke-width="1.6" stroke-linecap="round"/>
<path d="M131.588 115.755C131.588 126.71 126.798 134.755 119.043 140.09C111.255 145.448 100.432 148.099 88.3879 148.099C76.3443 148.099 65.5213 145.448 57.7331 140.09C49.9776 134.755 45.1879 126.71 45.1879 115.755C45.1879 93.8037 64.4708 75.9067 88.3879 75.9067C112.305 75.9067 131.588 93.8037 131.588 115.755Z" fill="#FDF0DF" stroke="#ABABAB" stroke-width="1.536"/>
<ellipse cx="74.1804" cy="99.3311" rx="4.032" ry="5.376" fill="#525252"/>
<ellipse cx="102.212" cy="99.3311" rx="4.032" ry="5.376" fill="#525252"/>
<ellipse cx="88.1963" cy="111.426" rx="3.072" ry="2.112" fill="#FEE8B0"/>
<ellipse cx="88.196" cy="121.985" rx="3.072" ry="3.84" fill="#525252"/>
<mask id="mask0_1_12102" style="mask-type:alpha" maskUnits="userSpaceOnUse" x="85" y="118" width="7" height="8">
<ellipse cx="88.1958" cy="121.985" rx="3.072" ry="3.84" fill="#525252"/>
</mask>
<g mask="url(#mask0_1_12102)">
<ellipse cx="88.1958" cy="126.373" rx="3.072" ry="3.84" fill="#FFBDE8"/>
</g>
<path d="M119.124 69.0817C123.278 69.6066 125.819 71.5314 128.418 73.7852C128.685 74.0171 128.954 74.253 129.225 74.4912C131.585 76.5653 134.15 78.8194 138.036 80.1943C140.649 81.1189 143.646 81.4819 146.688 81.6574C148.212 81.7455 149.762 81.7869 151.29 81.8253C151.38 81.8275 151.469 81.8297 151.557 81.832C152.998 81.868 154.418 81.9035 155.796 81.9744C158.733 82.1256 161.411 82.4356 163.601 83.2164C165.762 83.987 167.4 85.1975 168.357 87.1373C169.933 90.9331 169.586 97.3354 165.336 102.143C161.116 106.915 152.894 110.27 138.431 107.605C123.606 104.874 114.738 94.5411 111.677 85.1939C110.141 80.5047 110.098 76.1611 111.382 73.1771C112.018 71.6976 112.974 70.5643 114.23 69.8552C115.485 69.1461 117.103 68.8263 119.124 69.0817Z" fill="#ABABAB" stroke="#ABABAB" stroke-width="1.536"/>
<path d="M9.48218 99.2381L9.4824 99.2289V99.2197C9.4824 95.6549 10.5338 93.3659 12.2018 91.7919C13.9026 90.187 16.3324 89.2398 19.2555 88.5596C21.2317 88.0997 23.3566 87.7763 25.5705 87.4393C26.6452 87.2757 27.7408 87.1089 28.8505 86.9218C32.2063 86.356 35.6327 85.6105 38.7075 84.2002C41.4938 82.9222 44.0037 81.2374 46.3483 79.5357C47.0827 79.0026 47.7969 78.4711 48.4978 77.9496C50.0561 76.7899 51.5484 75.6792 53.0514 74.7094C55.2172 73.3118 57.3187 72.2672 59.5004 71.864C61.6613 71.4645 63.9467 71.6858 66.5054 72.8992C68.2296 73.7168 69.2985 74.7544 69.8961 75.9193C70.4958 77.0882 70.6608 78.4629 70.437 80.0211C69.9843 83.1717 67.9645 86.9084 65.1312 90.701C59.4907 98.2512 50.9259 105.634 46.584 108.379C31.0675 116.681 21.771 116.623 16.4349 113.565C11.0911 110.502 9.36272 104.223 9.48218 99.2381Z" fill="#ABABAB" stroke="#ABABAB" stroke-width="1.536"/>
<path d="M54.6407 133.448L54.6407 133.448C58.6475 131.41 68.4764 129.784 80.1383 133.102C84.2446 134.983 88.4594 138.627 87.8962 144.4L87.8931 144.432L87.8926 144.463C87.8628 146.37 87.1952 149.302 85.1078 151.818C83.041 154.31 79.5231 156.466 73.6456 156.764L73.5933 156.767L73.5418 156.776C68.7459 157.683 63.6544 157.15 61.9427 156.78L61.8625 156.763H61.7805C57.3541 156.763 54.4107 155.352 52.4141 153.654C50.4009 151.94 49.3051 149.896 48.646 148.553C46.7789 144.747 47.4047 141.452 48.9219 138.858C50.4611 136.225 52.9216 134.322 54.6407 133.448Z" fill="#FDF0DF" stroke="#ABABAB" stroke-width="1.536"/>
<path d="M96.8802 133.832L96.8802 133.832C100.887 131.795 110.716 130.168 122.378 133.486C126.484 135.367 130.699 139.012 130.136 144.785L130.133 144.816L130.132 144.848C130.102 146.755 129.435 149.687 127.347 152.203C125.281 154.694 121.763 156.851 115.885 157.149L115.833 157.151L115.781 157.161C110.985 158.068 105.894 157.535 104.182 157.165L104.102 157.148H104.02C99.5936 157.148 96.6502 155.737 94.6536 154.038C92.6404 152.325 91.5446 150.281 90.8855 148.938C89.0184 145.132 89.6442 141.837 91.1614 139.242C92.7006 136.61 95.1611 134.706 96.8802 133.832Z" fill="#FDF0DF" stroke="#ABABAB" stroke-width="1.536"/>
<path d="M103.94 89.7309C103.364 89.2568 101.79 88.5118 100.1 89.3245" stroke="#525252" stroke-width="1.152" stroke-linecap="round"/>
<path d="M72.0684 89.7309C72.6444 89.2568 74.2188 88.5118 75.9084 89.3245" stroke="#525252" stroke-width="1.152" stroke-linecap="round"/>
</svg>
