<svg width="230" height="200" viewBox="0 0 230 200" fill="none" xmlns="http://www.w3.org/2000/svg">
<path fill-rule="evenodd" clip-rule="evenodd" d="M118.187 68.0515C134.983 66.4479 148.12 52.2995 148.12 35.0829C148.12 16.7912 133.292 1.96289 115 1.96289C96.7082 1.96289 81.8799 16.7912 81.8799 35.0829C81.8799 52.2387 94.9237 66.3479 111.635 68.0341L114.49 73.5065C114.669 73.8505 115.161 73.8505 115.341 73.5066L118.187 68.0515Z" fill="#FDF0DF"/>
<path d="M110.2 19.7227H119.8L118.36 43.7227H111.64L110.2 19.7227Z" fill="#F97B22"/>
<rect x="111.64" y="45.6426" width="6.72" height="4.8" fill="#F97B22"/>
<path d="M4.6001 187.686H225.4" stroke="#6B6B6B" stroke-width="2" stroke-linecap="round"/>
<path d="M166.36 144.697C166.36 158.39 160.373 168.446 150.678 175.115C140.943 181.813 127.414 185.126 112.36 185.126C97.3054 185.126 83.7766 181.813 74.0414 175.115C64.347 168.446 58.3599 158.39 58.3599 144.697C58.3599 117.257 82.4634 94.8858 112.36 94.8858C142.256 94.8858 166.36 117.257 166.36 144.697Z" fill="#FDF0DF" stroke="#ABABAB" stroke-width="1.92"/>
<ellipse cx="94.6001" cy="124.165" rx="5.04" ry="6.72" fill="#525252"/>
<ellipse cx="129.64" cy="124.165" rx="5.04" ry="6.72" fill="#525252"/>
<ellipse cx="112.12" cy="139.285" rx="3.84" ry="2.64" fill="#FEE8B0"/>
<ellipse cx="112.12" cy="152.482" rx="3.84" ry="4.8" fill="#525252"/>
<mask id="mask0_1_12067" style="mask-type:alpha" maskUnits="userSpaceOnUse" x="108" y="147" width="8" height="11">
<ellipse cx="112.12" cy="152.482" rx="3.84" ry="4.8" fill="#525252"/>
</mask>
<g mask="url(#mask0_1_12067)">
<ellipse cx="112.12" cy="157.968" rx="3.84" ry="4.8" fill="#FFBDE8"/>
</g>
<path d="M150.78 86.3541C155.973 87.0102 159.149 89.4162 162.397 92.2335C162.732 92.5233 163.067 92.8181 163.406 93.1159C166.356 95.7085 169.563 98.5262 174.42 100.245C177.686 101.401 181.432 101.854 185.234 102.074C187.14 102.184 189.077 102.236 190.988 102.284C191.099 102.286 191.21 102.289 191.321 102.292C193.123 102.337 194.897 102.381 196.62 102.47C200.292 102.659 203.639 103.046 206.376 104.022C209.077 104.986 211.124 106.499 212.322 108.924C214.291 113.668 213.857 121.671 208.544 127.68C203.27 133.646 192.992 137.839 174.914 134.508C156.382 131.094 145.297 118.178 141.471 106.494C139.552 100.633 139.497 95.2033 141.102 91.4733C141.898 89.6239 143.092 88.2073 144.662 87.321C146.232 86.4346 148.254 86.0348 150.78 86.3541Z" fill="#ABABAB" stroke="#ABABAB" stroke-width="1.92"/>
<path d="M13.7274 124.05L13.7276 124.038V124.027C13.7276 119.571 15.0418 116.709 17.1269 114.742C19.2529 112.736 22.2901 111.552 25.944 110.701C28.4143 110.127 31.0704 109.722 33.8377 109.301C35.1811 109.097 36.5506 108.888 37.9378 108.654C42.1325 107.947 46.4155 107.015 50.2591 105.252C53.7419 103.655 56.8792 101.549 59.81 99.4216C60.7281 98.7553 61.6208 98.0909 62.4968 97.4389C64.4447 95.9893 66.3102 94.601 68.1889 93.3887C70.8962 91.6417 73.523 90.336 76.2502 89.8319C78.9513 89.3326 81.808 89.6093 85.0064 91.126C87.1616 92.148 88.4977 93.445 89.2448 94.9011C89.9944 96.3622 90.2007 98.0806 89.9209 100.028C89.355 103.967 86.8303 108.637 83.2887 113.378C76.238 122.816 65.5319 132.045 60.1045 135.476C40.709 145.853 29.0884 145.781 22.4182 141.958C15.7385 138.13 13.578 130.28 13.7274 124.05Z" fill="#ABABAB" stroke="#ABABAB" stroke-width="1.92"/>
<path d="M79.3028 195.978L79.2026 195.957H79.1001C73.5672 195.957 69.8879 194.193 67.3922 192.07C64.8757 189.929 63.5059 187.373 62.682 185.694C60.3482 180.937 61.1303 176.818 63.0268 173.575C64.9509 170.285 68.0265 167.905 70.1753 166.812L69.7402 165.957L70.1753 166.812C75.1839 164.266 87.47 162.233 102.047 166.38C107.18 168.731 112.449 173.287 111.745 180.503L111.741 180.542L111.74 180.582C111.703 182.966 110.869 186.63 108.259 189.776C105.676 192.89 101.278 195.586 93.9316 195.958L93.8661 195.961L93.8018 195.973C87.8068 197.107 81.4425 196.441 79.3028 195.978Z" fill="#FDF0DF" stroke="#ABABAB" stroke-width="1.92"/>
<path d="M132.103 196.459L132.002 196.437H131.9C126.367 196.437 122.688 194.674 120.192 192.55C117.675 190.409 116.306 187.854 115.482 186.174C113.148 181.417 113.93 177.298 115.827 174.055C117.751 170.765 120.826 168.386 122.975 167.293L122.54 166.437L122.975 167.293C127.984 164.746 140.27 162.713 154.847 166.861C159.98 169.212 165.249 173.767 164.545 180.984L164.541 181.023L164.54 181.062C164.503 183.446 163.668 187.111 161.059 190.256C158.476 193.371 154.078 196.066 146.731 196.438L146.666 196.442L146.602 196.454C140.607 197.587 134.242 196.921 132.103 196.459Z" fill="#FDF0DF" stroke="#ABABAB" stroke-width="1.92"/>
<path d="M131.8 112.165C131.08 111.572 129.112 110.641 127 111.657" stroke="#525252" stroke-width="1.44" stroke-linecap="round"/>
<path d="M91.96 112.165C92.68 111.572 94.648 110.641 96.76 111.657" stroke="#525252" stroke-width="1.44" stroke-linecap="round"/>
</svg>
