<svg width="262" height="191" viewBox="0 0 262 191" fill="none" xmlns="http://www.w3.org/2000/svg">
<path d="M1 158.645H261" stroke="#6B6B6B" stroke-width="2" stroke-linecap="round"/>
<path d="M191.609 104.257C191.609 120.426 184.537 132.307 173.087 140.184C161.595 148.09 145.635 151.994 127.892 151.994C110.148 151.994 94.1884 148.09 82.6963 140.184C71.2466 132.307 64.1742 120.426 64.1742 104.257C64.1742 71.8645 92.6253 45.4727 127.892 45.4727C163.158 45.4727 191.609 71.8645 191.609 104.257Z" fill="#FDF0DF" stroke="#C4C4C4" stroke-width="2"/>
<ellipse cx="106.978" cy="80.081" rx="5.93478" ry="7.91304" fill="#525252"/>
<ellipse cx="148.239" cy="80.081" rx="5.93478" ry="7.91304" fill="#525252"/>
<ellipse cx="127.609" cy="97.886" rx="4.52174" ry="3.1087" fill="#FEE8B0"/>
<path d="M173.149 35.4262C179.302 36.2038 183.067 39.0583 186.897 42.3803C187.291 42.7219 187.687 43.0692 188.086 43.4197C191.561 46.4731 195.318 49.7745 201.012 51.7895C204.841 53.1441 209.237 53.6776 213.711 53.9358C215.952 54.0653 218.232 54.1262 220.482 54.1827C220.613 54.186 220.744 54.1893 220.875 54.1926C222.996 54.2456 225.086 54.2979 227.117 54.4024C231.443 54.6251 235.4 55.0819 238.643 56.2379C241.847 57.3805 244.29 59.1821 245.718 62.0781C248.058 67.7091 247.541 77.1887 241.249 84.3049C234.998 91.376 222.842 96.314 201.527 92.3872C179.654 88.3574 166.565 73.1108 162.047 59.312C159.781 52.3923 159.709 45.9638 161.616 41.5321C162.562 39.3326 163.987 37.6404 165.864 36.5805C167.741 35.5207 170.151 35.0474 173.149 35.4262Z" fill="#C4C4C4" stroke="#C4C4C4" stroke-width="2"/>
<path d="M11.6166 79.9434L11.6169 79.9314V79.9195C11.6169 74.6439 13.1744 71.2376 15.6607 68.8915C18.1896 66.5052 21.7935 65.1045 26.1031 64.1016C29.0167 63.4236 32.153 62.9462 35.4147 62.4497C36.9954 62.2091 38.6055 61.964 40.234 61.6894C45.1708 60.857 50.2003 59.7619 54.7101 57.6934C58.7993 55.8177 62.4854 53.344 65.9344 50.8407C67.0124 50.0582 68.062 49.2771 69.0928 48.51C71.3884 46.8016 73.5907 45.1626 75.8068 43.7327C79.0008 41.6716 82.1106 40.1238 85.3462 39.5258C88.5546 38.9327 91.9463 39.2626 95.7365 41.06C98.2948 42.2731 99.8923 43.8186 100.788 45.5637C101.686 47.3139 101.929 49.3662 101.597 51.6792C100.926 56.3499 97.9363 61.8717 93.7625 67.4587C85.4488 78.5871 72.8268 89.4675 66.4236 93.514C43.5709 105.742 29.8314 105.684 21.916 101.147C13.9906 96.6052 11.4403 87.3027 11.6166 79.9434Z" fill="#C4C4C4" stroke="#C4C4C4" stroke-width="2"/>
<path d="M151.912 67.082C151.234 66.4899 149.267 65.2087 146.825 64.8212" stroke="#525252" stroke-width="1.5" stroke-linecap="round"/>
<path d="M108.392 64.8203C107.713 65.4124 105.747 66.6936 103.305 67.0812" stroke="#525252" stroke-width="1.5" stroke-linecap="round"/>
<path d="M116.557 152.955C114.291 158.483 109.94 162.594 105.01 164.42C100.099 166.24 94.6173 165.796 89.9592 162.229C77.7046 152.844 69.2632 141.119 63.7739 130.452C58.4429 120.093 65.6164 108.552 77.3699 106.059L78.3631 105.849C89.6114 103.463 99.4182 107.671 106.069 117.118C109.483 121.967 113.305 128.094 115.715 134.348C118.134 140.626 119.06 146.852 116.942 152.016L116.557 152.955Z" fill="#FDF0DF" stroke="#C4C4C4" stroke-width="2"/>
<path d="M181.546 152.623C183.852 147.112 183.675 141.147 181.474 136.407C179.281 131.686 175.084 128.175 169.26 127.472C152.236 125.418 135.553 128.4 122.548 132.637C111.453 136.25 108.31 149.305 114.851 159.366C121.355 169.371 135.432 172.831 147.558 170.907C148.818 170.708 150.099 170.537 151.394 170.401C163.704 169.113 176.945 163.621 181.546 152.623Z" fill="#FDF0DF" stroke="#C4C4C4" stroke-width="2"/>
<path d="M45.2095 33.1313C41.9494 25.2238 44.6111 16.834 54.9993 27.4791" stroke="#FCC49C" stroke-width="2"/>
<path d="M62.8305 22.9555C59.5705 15.048 62.2322 6.65822 72.6204 17.3033" stroke="#FCC49C" stroke-width="2"/>
<path d="M45.3343 14.1293C42.0742 6.22182 44.7359 -2.16795 55.1241 8.47716" stroke="#FCC49C" stroke-width="2"/>
<path d="M197.976 31.434C201.236 23.5265 198.574 15.1367 188.186 25.7818" stroke="#FCC49C" stroke-width="2"/>
<path d="M180.355 21.2582C183.615 13.3507 180.953 4.96095 170.565 15.6061" stroke="#FCC49C" stroke-width="2"/>
<path d="M197.851 12.4321C201.111 4.52455 198.449 -3.86522 188.061 6.77989" stroke="#FCC49C" stroke-width="2"/>
</svg>
