<svg width="126" height="32" viewBox="0 0 126 32" fill="none" xmlns="http://www.w3.org/2000/svg">
<path d="M21.919 29.9598C21.119 30.5465 19.999 31.0398 18.559 31.4398C17.1457 31.8132 15.3057 31.9998 13.039 31.9998C10.799 31.9998 8.66565 31.8132 6.63898 31.4398C4.61232 31.0665 3.15898 30.6532 2.27898 30.1998C1.39898 29.7465 0.958984 29.3065 0.958984 28.8798C0.958984 27.3865 1.17232 25.8398 1.59898 24.2398C2.02565 22.6132 2.53232 21.7998 3.11898 21.7998C3.22565 21.7998 4.33232 22.1598 6.43898 22.8798C8.54565 23.5998 10.1323 23.9598 11.199 23.9598C12.2657 23.9598 12.959 23.8532 13.279 23.6398C13.599 23.3998 13.759 23.0665 13.759 22.6398C13.759 22.2132 13.4657 21.8398 12.879 21.5198C12.2923 21.1732 11.559 20.8798 10.679 20.6398C9.79898 20.3732 8.83898 19.9998 7.79898 19.5198C6.78565 19.0398 5.83898 18.5065 4.95898 17.9198C4.07898 17.3332 3.34565 16.5065 2.75898 15.4398C2.17232 14.3465 1.87898 13.1065 1.87898 11.7198C1.87898 5.79984 5.41232 2.83984 12.479 2.83984C15.119 2.83984 17.399 3.01318 19.319 3.35984C21.239 3.67984 22.5857 4.05318 23.359 4.47984C24.159 4.87984 24.559 5.27984 24.559 5.67984C24.559 7.06651 24.2257 8.55985 23.559 10.1598C22.919 11.7598 22.2923 12.5598 21.679 12.5598C21.5723 12.5598 21.2257 12.4398 20.639 12.1998C18.879 11.4265 17.4123 11.0398 16.239 11.0398C15.0923 11.0398 14.3057 11.1465 13.879 11.3598C13.479 11.5732 13.279 11.9065 13.279 12.3598C13.279 12.7865 13.5723 13.1465 14.159 13.4398C14.7457 13.7065 15.4657 13.9598 16.319 14.1998C17.199 14.4132 18.1457 14.7598 19.159 15.2398C20.199 15.6932 21.159 16.2398 22.039 16.8798C22.919 17.4932 23.6523 18.3732 24.239 19.5198C24.8257 20.6665 25.119 21.9998 25.119 23.5198C25.119 25.1198 24.7057 26.5732 23.879 27.8798C23.3723 28.6798 22.719 29.3732 21.919 29.9598Z" fill="#FEF3EB"/>
<path d="M51.2391 18.7195V31.0395C51.2391 31.3328 50.4791 31.5728 48.9591 31.7595C47.4391 31.9195 45.8658 31.9995 44.2391 31.9995C42.6391 31.9995 41.5991 31.9328 41.1191 31.7995C40.6658 31.6395 40.4391 31.3861 40.4391 31.0395V18.3195C40.4391 17.1195 40.3858 16.3328 40.2791 15.9595C40.1991 15.5861 40.1191 15.2528 40.0391 14.9595C39.8525 14.4528 39.5191 14.1995 39.0391 14.1995C38.2925 14.1995 37.9191 14.5595 37.9191 15.2795V31.0395C37.9191 31.3328 37.1591 31.5728 35.6391 31.7595C34.1458 31.9195 32.5858 31.9995 30.9591 31.9995C29.3591 31.9995 28.3191 31.9328 27.8391 31.7995C27.3591 31.6395 27.1191 31.3861 27.1191 31.0395V11.3195C27.1191 10.7595 27.8791 10.1995 29.3991 9.63945C30.9458 9.07945 32.5725 8.79945 34.2791 8.79945C35.9858 8.79945 36.9458 9.29279 37.1591 10.2795L37.5191 12.0395H37.7991C38.5725 10.4928 39.9058 9.41279 41.7991 8.79945C42.5725 8.55945 43.4258 8.43945 44.3591 8.43945C47.0525 8.43945 48.8658 9.25279 49.7991 10.8795C50.7591 12.4795 51.2391 15.0928 51.2391 18.7195Z" fill="#FEF3EB"/>
<path d="M61.0383 32.0001C58.6116 32.0001 56.7049 31.4267 55.3183 30.2801C54.7583 29.8001 54.2649 29.0934 53.8383 28.1601C53.4383 27.2267 53.2383 26.1334 53.2383 24.8801C53.2383 23.6267 53.5316 22.5334 54.1183 21.6001C54.7316 20.6667 55.4649 19.9467 56.3183 19.4401C57.1716 18.9334 58.1716 18.5201 59.3183 18.2001C61.0516 17.7467 62.9583 17.5201 65.0383 17.5201H66.3583C66.3583 16.4267 65.9849 15.6534 65.2383 15.2001C64.9183 15.0134 64.4249 14.9201 63.7583 14.9201C63.1183 14.9201 62.3316 15.0934 61.3983 15.4401C60.4916 15.7867 59.7316 16.1467 59.1183 16.5201C58.5049 16.8667 58.0916 17.0401 57.8783 17.0401C57.3983 17.0401 56.7449 16.4134 55.9183 15.1601C55.0916 13.8801 54.6783 12.7201 54.6783 11.6801C54.6783 11.3334 55.1716 10.8801 56.1583 10.3201C57.1449 9.76008 58.5316 9.25341 60.3183 8.80008C62.1316 8.32008 63.8916 8.08008 65.5983 8.08008C67.3049 8.08008 68.7716 8.22674 69.9983 8.52008C71.2516 8.78675 72.2649 9.12008 73.0383 9.52008C73.8383 9.92008 74.5049 10.4534 75.0383 11.1201C75.5983 11.7867 76.0116 12.3867 76.2783 12.9201C76.5716 13.4534 76.785 14.1467 76.9183 15.0001C77.105 15.9867 77.1983 17.2001 77.1983 18.6401V30.6801C77.1983 30.9734 76.4783 31.2134 75.0383 31.4001C73.6249 31.5601 72.2116 31.6401 70.7983 31.6401C69.4116 31.6401 68.5049 31.6001 68.0783 31.5201C67.6783 31.4401 67.4383 31.3467 67.3583 31.2401C67.2783 31.1334 67.2116 30.9467 67.1583 30.6801L66.8383 28.4001H66.5183C65.8516 30.8001 64.0249 32.0001 61.0383 32.0001ZM66.3983 25.3601V20.6801C65.7049 20.6801 65.1449 20.9734 64.7183 21.5601C64.2916 22.1467 64.0783 22.8134 64.0783 23.5601C64.0783 25.3201 64.4783 26.2001 65.2783 26.2001C65.6249 26.2001 65.8916 26.1201 66.0783 25.9601C66.2916 25.7734 66.3983 25.5734 66.3983 25.3601Z" fill="#FEF3EB"/>
<path d="M84.7592 30.9601C84.1192 30.6667 83.4259 30.2267 82.6792 29.6401C81.9592 29.0534 81.3592 28.3601 80.8792 27.5601C79.7592 25.6401 79.1992 23.1334 79.1992 20.0401C79.1992 18.1201 79.5059 16.4134 80.1192 14.9201C80.7326 13.4001 81.4792 12.2267 82.3592 11.4001C83.2392 10.5734 84.2525 9.89341 85.3992 9.36008C87.2392 8.50674 89.0792 8.08008 90.9192 8.08008C94.0126 8.08008 96.1592 8.32008 97.3592 8.80008C98.5859 9.28008 99.1992 10.0934 99.1992 11.2401C99.1992 12.3867 98.9859 13.6134 98.5592 14.9201C98.1592 16.2001 97.6259 16.8401 96.9592 16.8401C96.7459 16.8401 96.0926 16.6134 94.9992 16.1601C93.9326 15.7067 92.9992 15.4801 92.1992 15.4801C91.4259 15.4801 90.8259 15.8001 90.3992 16.4401C89.9992 17.0534 89.7992 18.2667 89.7992 20.0801C89.7992 21.8667 89.9859 23.0934 90.3592 23.7601C90.7326 24.4001 91.3059 24.7201 92.0792 24.7201C92.8792 24.7201 93.8659 24.4534 95.0392 23.9201C96.2126 23.3867 96.8659 23.1201 96.9992 23.1201C97.5059 23.1201 97.9859 23.7201 98.4392 24.9201C98.9192 26.1201 99.1592 27.1867 99.1592 28.1201C99.1592 29.5601 98.4126 30.5734 96.9192 31.1601C95.4259 31.7201 93.3992 32.0001 90.8392 32.0001C88.3059 32.0001 86.2792 31.6534 84.7592 30.9601Z" fill="#FEF3EB"/>
<path d="M111.999 30.24C111.999 30.5333 111.253 30.7733 109.759 30.96C108.266 31.12 106.706 31.2 105.079 31.2C103.453 31.2 102.399 31.1333 101.919 31C101.439 30.84 101.199 30.5867 101.199 30.24V2.56C101.199 1.97333 101.946 1.4 103.439 0.839999C104.959 0.28 106.586 0 108.319 0C110.773 0 111.999 0.613333 111.999 1.84V16.8H112.519C113.799 10.6933 114.746 7.64 115.359 7.64C116.906 7.64 118.773 8 120.959 8.72C123.146 9.44 124.239 10.24 124.239 11.12C124.239 11.76 123.706 12.9867 122.639 14.8C121.573 16.6133 120.466 18.0933 119.319 19.24C123.133 23.8 125.039 26.5067 125.039 27.36C125.039 28.16 123.826 29.1333 121.399 30.28C118.973 31.4267 117.266 32 116.279 32C115.799 32 115.293 31.4267 114.759 30.28C114.226 29.1067 113.653 27.36 113.039 25.04L111.999 26.28V30.24Z" fill="#FEF3EB"/>
</svg>
